<svg width="160" height="182" viewBox="0 0 160 182" fill="none" xmlns="http://www.w3.org/2000/svg">
<g style="mix-blend-mode:multiply" filter="url(#filter0_f_423_160254)">
<ellipse cx="79.6334" cy="157.182" rx="45.6334" ry="19.1815" fill="black" fill-opacity="0.1"/>
</g>
<path d="M55.6719 44.1259L55.6719 43.2897L55.6719 39.9404C55.6719 38.5085 56.5374 37.2259 57.8638 36.7509C78.4004 29.3957 95.6737 34.4683 101.671 36.7477C102.882 37.2079 103.637 38.3909 103.637 39.7275V39.7367V39.7459V39.755V39.7642V39.7734V39.7827V39.7919V39.8011V39.8104V39.8196V39.8289V39.8382V39.8474V39.8567V39.866V39.8753V39.8847V39.894V39.9033V39.9127V39.922V39.9314V39.9408V39.9502V39.9596V39.969V39.9784V39.9878V39.9972V40.0067V40.0161V40.0256V40.035V40.0445V40.054V40.0635V40.073V40.0825V40.092V40.1016V40.1111V40.1206V40.1302V40.1397V40.1493V40.1589V40.1685V40.1781V40.1877V40.1973V40.2069V40.2165V40.2261V40.2358V40.2454V40.2551V40.2648V40.2744V40.2841V40.2938V40.3035V40.3132V40.3229V40.3326V40.3424V40.3521V40.3618V40.3716V40.3813V40.3911V40.4009V40.4106V40.4204V40.4302V40.44V40.4498V40.4596V40.4694V40.4793V40.4891V40.4989V40.5088V40.5186V40.5285V40.5384V40.5482V40.5581V40.568V40.5779V40.5878V40.5977V40.6076V40.6175V40.6275V40.6374V40.6473V40.6573V40.6672V40.6772V40.6871V40.6971V40.7071V40.7171V40.727V40.737V40.747V40.757V40.767V40.7771V40.7871V40.7971V40.8071V40.8172V40.8272V40.8373V40.8473V40.8574V40.8674V40.8775V40.8876V40.8976V40.9077V40.9178V40.9279V40.938V40.9481V40.9582V40.9683V40.9785V40.9886V40.9987V41.0088V41.019V41.0291V41.0393V41.0494V41.0596V41.0697V41.0799V41.0901V41.1003V41.1104V41.1206V41.1308V41.141V41.1512V41.1614V41.1716V41.1818V41.192V41.2022V41.2124V41.2227V41.2329V41.2431V41.2534V41.2636V41.2738V41.2841V41.2943V41.3046V41.3148V41.3251V41.3354V41.3456V41.3559V41.3662V41.3765V41.3867V41.397V41.4073V41.4176V41.4279V41.4382V41.4485V41.4588V41.4691V41.4794V41.4897V41.5V41.5103V41.5207V41.531V41.5413V41.5516V41.562V41.5723V41.5826V41.593V41.6033V41.6136V41.624V41.6343V41.6447V41.655V41.6654V41.6757V41.6861V41.6964V41.7068V41.7172V41.7275V41.7379V41.7483V41.7586V41.769V41.7794V41.7897V41.8001V41.8105V41.8209V41.8313V41.8416V41.852V41.8624V41.8728V41.8832V41.8936V41.904V41.9143V41.9247V41.9351V41.9455V41.9559V41.9663V41.9767V41.9871V41.9975V42.0079V42.0183V42.0287V42.0391V42.0495V42.0599V42.0703V42.0807V42.0911V42.1015V42.1119V42.1223V42.1327V42.1432V42.1536V42.164V42.1744V42.1848V42.1952V42.2056V42.216V42.2264V42.2368V42.2472V42.2576V42.268V42.2784V42.2888V42.2992V42.3096V42.32V42.3305V42.3409V42.3513V42.3617V42.3721V42.3825V42.3929V42.4033V42.4137V42.4241V42.4345V42.4448V42.4552V42.4656V42.476V42.4864V42.4968V42.5072V42.5176V42.528V42.5384V42.5487V42.5591V42.5695V42.5799V42.5903V42.6006V42.611V42.6214V42.6318V42.6421V42.6525V42.6629V42.6732V42.6836V42.694V42.7043V42.7147V42.725V42.7354V42.7457V42.7561V42.7664V42.7768V42.7871V42.7975V42.8078V42.8181V42.8285V42.8388V42.8491V42.8594V42.8698V42.8801V42.8904V42.9007V42.911V42.9213V42.9316V42.9419V42.9522V42.9625V42.9728V42.9831V42.9934V43.0037V43.014V43.0243V43.0345V43.0448V43.0551V43.0653V43.0756V43.0859V43.0961V43.1064V43.1166V43.1269V43.1371V43.1473V43.1576V43.1678V43.178V43.1882V43.1985V43.2087V43.2189V43.2291V43.2393V43.2495V43.2597V43.2699V43.2801V43.2902V43.3004V43.3106V43.3208V43.3309V43.3411V43.3512V43.3614V43.3715V43.3817V43.3918V43.4019V43.4121V43.4222V43.4323V43.4424V43.4525V43.4626V43.4727V43.4828V43.4929V43.503V43.5131V43.5231V43.5332V43.5433V43.5533V43.5634V43.5734V43.5835V43.5935V43.6035V43.6135V43.6236V43.6336V43.6436V43.6536V43.6636V43.6736V43.6835V43.6935V43.7035V43.7135V43.7234V43.7334V43.7433V43.7532V43.7632V43.7731V43.783V43.7929V43.8029V43.8128V43.8227V43.8325V43.8424V43.8523V43.8622V43.872V43.8819V43.8917V43.9016V43.9114V43.9213V43.9311V43.9409V43.9507V43.9605V43.9703V43.9801V43.9899V43.9996V44.0094V44.0192V44.0289V44.0387V44.0484V44.0581V44.0679V44.0776V44.0873V44.097V44.1067V44.108C91.6786 39.7523 79.6323 39.7771 70.5346 40.904C65.8974 41.4784 62.019 42.3399 59.2981 43.0585C57.9375 43.4178 56.8658 43.7415 56.1328 43.9759C55.9602 44.0311 55.8063 44.0813 55.6719 44.1259Z" fill="#1F2431" stroke="#89E159"/>
<rect x="62.5684" y="114.984" width="11.069" height="22.7932" fill="#1F2431" stroke="#89E159"/>
<rect x="86.3623" y="114.984" width="11.069" height="22.7932" fill="#1F2431" stroke="#89E159"/>
<rect x="54.9824" y="138.433" width="50.7242" height="16.2414" rx="8.12071" fill="#1F2431" stroke="#89E159"/>
<path fill-rule="evenodd" clip-rule="evenodd" d="M67.0859 138.933H63.1031C63.0397 138.933 62.9765 138.933 62.9135 138.935V154.172C62.9765 154.173 63.0397 154.174 63.1031 154.174H67.0859V138.933ZM68.0859 154.174H72.2584V138.933H68.0859V154.174ZM77.4307 154.174H73.2584V138.933H77.4307V154.174ZM78.4307 154.174H82.6032V138.933H78.4307V154.174ZM87.7755 154.174H83.6032V138.933H87.7755V154.174ZM88.7755 154.174H92.9479V138.933H88.7755V154.174ZM97.586 154.174H93.9479V138.933H97.586C97.7656 138.933 97.9438 138.939 98.1204 138.951V154.156C97.9438 154.168 97.7656 154.174 97.586 154.174ZM99.1204 154.019C100.767 153.683 102.22 152.816 103.293 151.604V141.503C102.22 140.291 100.767 139.424 99.1204 139.087V154.019ZM104.293 152.239H104.066C102.486 154.038 100.169 155.174 97.586 155.174H63.1031C60.7274 155.174 58.5761 154.213 57.0168 152.659H56.741V152.371C55.3383 150.837 54.4824 148.795 54.4824 146.553C54.4824 144.311 55.3383 142.269 56.741 140.736V140.433H57.0318C58.5899 138.887 60.735 137.933 63.1031 137.933H97.586C100.13 137.933 102.417 139.035 103.995 140.788H104.293V141.137C105.49 142.617 106.207 144.501 106.207 146.553C106.207 148.605 105.49 150.49 104.293 151.97V152.239ZM56.741 142.357C55.9456 143.56 55.4824 145.003 55.4824 146.553C55.4824 148.104 55.9456 149.546 56.741 150.75V142.357ZM57.741 151.968V141.138C58.8515 140.039 60.2983 139.278 61.9135 139.025V154.082C60.2983 153.829 58.8515 153.068 57.741 151.968ZM105.207 146.553C105.207 145.243 104.876 144.009 104.293 142.932V150.175C104.876 149.098 105.207 147.864 105.207 146.553Z" fill="#89E159"/>
<path d="M79.3081 114.674H59.7722L48.6997 85.9281C47.8382 83.6915 47.3965 81.3208 47.3965 78.9243L47.3965 60.1543C47.3965 53.9661 50.2318 47.9942 55.6529 45.2126C75.6212 34.9665 94.3015 40.5658 104.703 45.5622C110.112 48.1607 112.948 53.9051 112.948 59.9999V78.9189C112.948 81.3155 112.507 83.6916 111.645 85.9281L100.573 114.674H79.3081Z" fill="#1F2431"/>
<path d="M79.3081 114.674H59.7722L48.6997 85.9281C47.8382 83.6915 47.3965 81.3208 47.3965 78.9243L47.3965 60.1543C47.3965 53.9661 50.2318 47.9942 55.6529 45.2126C75.6212 34.9665 94.3015 40.5658 104.703 45.5622C110.112 48.1607 112.948 53.9051 112.948 59.9999V78.9189C112.948 81.3155 112.507 83.6916 111.645 85.9281L100.573 114.674H79.3081Z" fill="url(#paint0_linear_423_160254)"/>
<path d="M79.3081 114.674H59.7722L48.6997 85.9281C47.8382 83.6915 47.3965 81.3208 47.3965 78.9243L47.3965 60.1543C47.3965 53.9661 50.2318 47.9942 55.6529 45.2126C75.6212 34.9665 94.3015 40.5658 104.703 45.5622C110.112 48.1607 112.948 53.9051 112.948 59.9999V78.9189C112.948 81.3155 112.507 83.6916 111.645 85.9281L100.573 114.674H79.3081Z" stroke="#89E159"/>
<path d="M83.5888 50.1125L99.4792 58.7708C101.89 60.0846 103.391 62.6109 103.391 65.3566V81.8882C103.391 84.634 101.89 87.1603 99.4792 88.474L83.5888 97.1323C81.3517 98.3512 78.6489 98.3512 76.4119 97.1323L60.5215 88.474C58.1104 87.1603 56.6099 84.634 56.6099 81.8882V65.3566C56.6099 62.6109 58.1104 60.0846 60.5215 58.7708L76.4119 50.1126C78.6489 48.8936 81.3517 48.8936 83.5888 50.1125Z" stroke="url(#paint1_linear_423_160254)"/>
<path d="M83.7468 52.5077L97.6962 60.0683C100.115 61.3795 101.622 63.9103 101.622 66.662V80.9282C101.622 83.6799 100.115 86.2107 97.6962 87.522L83.7468 95.0825C81.5175 96.2908 78.8285 96.2908 76.5992 95.0825L62.6499 87.522C60.2306 86.2107 58.7237 83.6799 58.7237 80.9282V66.662C58.7237 63.9103 60.2306 61.3795 62.6499 60.0683L76.5992 52.5077C78.8285 51.2994 81.5175 51.2994 83.7468 52.5077Z" fill="#141B25" stroke="url(#paint2_linear_423_160254)"/>
<g filter="url(#filter1_d_423_160254)">
<ellipse cx="80.1731" cy="73.9661" rx="12.5862" ry="12.5862" fill="#89E159"/>
</g>
<path d="M126.397 56.9984L126.397 75.3477C126.397 77.544 125.266 79.5858 123.405 80.7518C121.345 82.0422 118.731 82.0493 116.664 80.77L113.604 78.876L113.604 53.4128L116.739 51.5311C118.769 50.3127 121.307 50.3195 123.331 51.5487C125.234 52.7051 126.397 54.771 126.397 56.9984Z" fill="#1F2431"/>
<path d="M126.397 56.9984L126.397 75.3477C126.397 77.544 125.266 79.5858 123.405 80.7518C121.345 82.0422 118.731 82.0493 116.664 80.77L113.604 78.876L113.604 53.4128L116.739 51.5311C118.769 50.3127 121.307 50.3195 123.331 51.5487C125.234 52.7051 126.397 54.771 126.397 56.9984Z" fill="url(#paint3_linear_423_160254)"/>
<path d="M126.397 56.9984L126.397 75.3477C126.397 77.544 125.266 79.5858 123.405 80.7518C121.345 82.0422 118.731 82.0493 116.664 80.77L113.604 78.876L113.604 53.4128L116.739 51.5311C118.769 50.3127 121.307 50.3195 123.331 51.5487C125.234 52.7051 126.397 54.771 126.397 56.9984Z" stroke="#89E159"/>
<path d="M133.838 61.5352H140.536L140.536 70.88H133.838H127.053L127.053 61.5352H133.838Z" fill="#1F2431" stroke="#89E159"/>
<path d="M146.742 50.7629L146.742 62.2591L137.397 62.2591L137.397 50.7629L137.397 39.1211L146.742 39.1211L146.742 50.7629Z" fill="#1F2431" stroke="#89E159"/>
<path d="M146.161 71.8177C143.611 73.7865 140.053 73.7865 137.502 71.8177C133.828 68.9813 133.828 63.4366 137.502 60.6002C140.053 58.6315 143.611 58.6315 146.161 60.6002C149.836 63.4366 149.836 68.9813 146.161 71.8177Z" fill="#1F2431"/>
<path d="M146.161 71.8177C143.611 73.7865 140.053 73.7865 137.502 71.8177C133.828 68.9813 133.828 63.4366 137.502 60.6002C140.053 58.6315 143.611 58.6315 146.161 60.6002C149.836 63.4366 149.836 68.9813 146.161 71.8177Z" fill="url(#paint4_linear_423_160254)"/>
<path d="M146.161 71.8177C143.611 73.7865 140.053 73.7865 137.502 71.8177C133.828 68.9813 133.828 63.4366 137.502 60.6002C140.053 58.6315 143.611 58.6315 146.161 60.6002C149.836 63.4366 149.836 68.9813 146.161 71.8177Z" stroke="#89E159"/>
<path d="M138.453 61.8552L138.597 61.7442C140.576 60.216 143.338 60.216 145.318 61.7442L145.462 61.8552C148.314 64.0569 148.314 68.361 145.462 70.5628L145.318 70.6737C143.338 72.202 140.576 72.202 138.597 70.6737L138.453 70.5628C135.6 68.361 135.6 64.0569 138.453 61.8552Z" stroke="#89E159"/>
<path d="M151.31 25.7767L153.25 22.0306C153.796 20.9746 153.523 19.6796 152.597 18.934L151.294 17.8848H156.142L158.413 19.713C158.969 20.1604 159.133 20.9373 158.805 21.5709L156.628 25.7767H151.31Z" fill="#1F2431"/>
<path d="M151.31 25.7767L153.25 22.0306C153.796 20.9746 153.523 19.6796 152.597 18.934L151.294 17.8848H156.142L158.413 19.713C158.969 20.1604 159.133 20.9373 158.805 21.5709L156.628 25.7767H151.31Z" fill="url(#paint5_linear_423_160254)"/>
<path d="M151.31 25.7767L153.25 22.0306C153.796 20.9746 153.523 19.6796 152.597 18.934L151.294 17.8848H156.142L158.413 19.713C158.969 20.1604 159.133 20.9373 158.805 21.5709L156.628 25.7767H151.31Z" stroke="#89E159"/>
<path d="M132.482 25.7767L130.543 22.0306C129.997 20.9746 130.27 19.6796 131.196 18.934L132.499 17.8848H127.651L125.379 19.713C124.824 20.1604 124.66 20.9373 124.988 21.5709L127.165 25.7767H132.482Z" fill="#1F2431"/>
<path d="M132.482 25.7767L130.543 22.0306C129.997 20.9746 130.27 19.6796 131.196 18.934L132.499 17.8848H127.651L125.379 19.713C124.824 20.1604 124.66 20.9373 124.988 21.5709L127.165 25.7767H132.482Z" fill="url(#paint6_linear_423_160254)"/>
<path d="M132.482 25.7767L130.543 22.0306C129.997 20.9746 130.27 19.6796 131.196 18.934L132.499 17.8848H127.651L125.379 19.713C124.824 20.1604 124.66 20.9373 124.988 21.5709L127.165 25.7767H132.482Z" stroke="#89E159"/>
<path d="M130.47 22.9253C139.699 18.575 148.477 20.9969 153.273 23.0752C155.498 24.0391 156.741 26.3362 156.741 28.8451V29.6146C156.741 32.5489 155.029 35.2137 152.361 36.4346L149.411 37.7845C148.432 38.2326 147.367 38.4646 146.29 38.4646H137.501C136.424 38.4646 135.36 38.2326 134.38 37.7845L131.43 36.4346C128.762 35.2137 127.051 32.5495 127.051 29.6152L127.051 28.8451C127.051 26.3292 128.273 23.961 130.47 22.9253Z" fill="#1F2431"/>
<path d="M130.47 22.9253C139.699 18.575 148.477 20.9969 153.273 23.0752C155.498 24.0391 156.741 26.3362 156.741 28.8451V29.6146C156.741 32.5489 155.029 35.2137 152.361 36.4346L149.411 37.7845C148.432 38.2326 147.367 38.4646 146.29 38.4646H137.501C136.424 38.4646 135.36 38.2326 134.38 37.7845L131.43 36.4346C128.762 35.2137 127.051 32.5495 127.051 29.6152L127.051 28.8451C127.051 26.3292 128.273 23.961 130.47 22.9253Z" fill="url(#paint7_linear_423_160254)"/>
<path d="M130.47 22.9253C139.699 18.575 148.477 20.9969 153.273 23.0752C155.498 24.0391 156.741 26.3362 156.741 28.8451V29.6146C156.741 32.5489 155.029 35.2137 152.361 36.4346L149.411 37.7845C148.432 38.2326 147.367 38.4646 146.29 38.4646H137.501C136.424 38.4646 135.36 38.2326 134.38 37.7845L131.43 36.4346C128.762 35.2137 127.051 32.5495 127.051 29.6152L127.051 28.8451C127.051 26.3292 128.273 23.961 130.47 22.9253Z" stroke="#89E159"/>
<path d="M138.73 22.8128L140.857 18.703C141.289 17.8682 141.217 16.8615 140.669 16.0975L138.882 13.6035H145.629L147.834 16.68C148.163 17.1384 148.206 17.7424 147.947 18.2433L145.582 22.8128H138.73Z" fill="#1F2431"/>
<path d="M138.73 22.8128L140.857 18.703C141.289 17.8682 141.217 16.8615 140.669 16.0975L138.882 13.6035H145.629L147.834 16.68C148.163 17.1384 148.206 17.7424 147.947 18.2433L145.582 22.8128H138.73Z" fill="url(#paint8_linear_423_160254)"/>
<path d="M138.73 22.8128L140.857 18.703C141.289 17.8682 141.217 16.8615 140.669 16.0975L138.882 13.6035H145.629L147.834 16.68C148.163 17.1384 148.206 17.7424 147.947 18.2433L145.582 22.8128H138.73Z" stroke="#89E159"/>
<path d="M22.9482 50.7629L22.9482 62.2591L13.6034 62.2591L13.6034 50.7629L13.6034 39.1211L22.9482 39.1211L22.9482 50.7629Z" fill="#1F2431" stroke="#89E159"/>
<path d="M26.5957 61.5352H33.2933L33.2933 70.88H26.5957H19.8105L19.8105 61.5352H26.5957Z" fill="#1F2431" stroke="#89E159"/>
<path d="M43.6961 51.5613L46.7414 53.4111L46.7414 78.8778L43.7705 80.7388C41.6979 82.0371 39.0674 82.0443 36.9878 80.7572C35.0982 79.5877 33.9482 77.5237 33.9482 75.3014L33.9482 57.0454C33.9482 54.7917 35.1306 52.7033 37.0629 51.5436C39.1058 50.3175 41.6598 50.3243 43.6961 51.5613Z" fill="#1F2431"/>
<path d="M43.6961 51.5613L46.7414 53.4111L46.7414 78.8778L43.7705 80.7388C41.6979 82.0371 39.0674 82.0443 36.9878 80.7572C35.0982 79.5877 33.9482 77.5237 33.9482 75.3014L33.9482 57.0454C33.9482 54.7917 35.1306 52.7033 37.0629 51.5436C39.1058 50.3175 41.6598 50.3243 43.6961 51.5613Z" fill="url(#paint9_linear_423_160254)"/>
<path d="M43.6961 51.5613L46.7414 53.4111L46.7414 78.8778L43.7705 80.7388C41.6979 82.0371 39.0674 82.0443 36.9878 80.7572C35.0982 79.5877 33.9482 77.5237 33.9482 75.3014L33.9482 57.0454C33.9482 54.7917 35.1306 52.7033 37.0629 51.5436C39.1058 50.3175 41.6598 50.3243 43.6961 51.5613Z" stroke="#89E159"/>
<path d="M27.5214 25.7036L29.4502 21.9971C30.0012 20.9382 29.7268 19.6375 28.7951 18.8915L27.5084 17.8613H32.3505L34.6121 19.6721C35.1712 20.1197 35.3358 20.9002 35.0052 21.5355L32.8361 25.7036H27.5214Z" fill="#1F2431"/>
<path d="M27.5214 25.7036L29.4502 21.9971C30.0012 20.9382 29.7268 19.6375 28.7951 18.8915L27.5084 17.8613H32.3505L34.6121 19.6721C35.1712 20.1197 35.3358 20.9002 35.0052 21.5355L32.8361 25.7036H27.5214Z" fill="url(#paint10_linear_423_160254)"/>
<path d="M27.5214 25.7036L29.4502 21.9971C30.0012 20.9382 29.7268 19.6375 28.7951 18.8915L27.5084 17.8613H32.3505L34.6121 19.6721C35.1712 20.1197 35.3358 20.9002 35.0052 21.5355L32.8361 25.7036H27.5214Z" stroke="#89E159"/>
<path d="M8.68567 25.7036L6.75682 21.9971C6.2058 20.9382 6.48019 19.6375 7.41197 18.8915L8.69859 17.8613H3.85648L1.59492 19.6721C1.03585 20.1197 0.871214 20.9002 1.20183 21.5355L3.3709 25.7036H8.68567Z" fill="#1F2431"/>
<path d="M8.68567 25.7036L6.75682 21.9971C6.2058 20.9382 6.48019 19.6375 7.41197 18.8915L8.69859 17.8613H3.85648L1.59492 19.6721C1.03585 20.1197 0.871214 20.9002 1.20183 21.5355L3.3709 25.7036H8.68567Z" fill="url(#paint11_linear_423_160254)"/>
<path d="M8.68567 25.7036L6.75682 21.9971C6.2058 20.9382 6.48019 19.6375 7.41197 18.8915L8.69859 17.8613H3.85648L1.59492 19.6721C1.03585 20.1197 0.871214 20.9002 1.20183 21.5355L3.3709 25.7036H8.68567Z" stroke="#89E159"/>
<path d="M6.68126 22.9273C15.9096 18.5769 24.6881 20.9988 29.4841 23.0772C31.7085 24.0411 32.9514 26.3382 32.9514 28.847V29.6166C32.9514 32.5509 31.2403 35.2157 28.572 36.4366L25.6218 37.7865C24.6425 38.2346 23.5781 38.4665 22.5012 38.4665H13.712C12.635 38.4665 11.5707 38.2346 10.5914 37.7865L7.64112 36.4366C4.97287 35.2156 3.26172 32.5514 3.26172 29.6172L3.26172 28.8471C3.26172 26.3312 4.48425 23.963 6.68126 22.9273Z" fill="#1F2431"/>
<path d="M6.68126 22.9273C15.9096 18.5769 24.6881 20.9988 29.4841 23.0772C31.7085 24.0411 32.9514 26.3382 32.9514 28.847V29.6166C32.9514 32.5509 31.2403 35.2157 28.572 36.4366L25.6218 37.7865C24.6425 38.2346 23.5781 38.4665 22.5012 38.4665H13.712C12.635 38.4665 11.5707 38.2346 10.5914 37.7865L7.64112 36.4366C4.97287 35.2156 3.26172 32.5514 3.26172 29.6172L3.26172 28.8471C3.26172 26.3312 4.48425 23.963 6.68126 22.9273Z" fill="url(#paint12_linear_423_160254)"/>
<path d="M6.68126 22.9273C15.9096 18.5769 24.6881 20.9988 29.4841 23.0772C31.7085 24.0411 32.9514 26.3382 32.9514 28.847V29.6166C32.9514 32.5509 31.2403 35.2157 28.572 36.4366L25.6218 37.7865C24.6425 38.2346 23.5781 38.4665 22.5012 38.4665H13.712C12.635 38.4665 11.5707 38.2346 10.5914 37.7865L7.64112 36.4366C4.97287 35.2156 3.26172 32.5514 3.26172 29.6172L3.26172 28.8471C3.26172 26.3312 4.48425 23.963 6.68126 22.9273Z" stroke="#89E159"/>
<path d="M21.265 22.7557L19.1464 18.6846C18.7105 17.8469 18.7838 16.8352 19.3358 16.069L21.1123 13.6035H14.369L12.1712 16.6536C11.84 17.1133 11.796 17.7204 12.0576 18.223L14.4164 22.7557H21.265Z" fill="#1F2431"/>
<path d="M21.265 22.7557L19.1464 18.6846C18.7105 17.8469 18.7838 16.8352 19.3358 16.069L21.1123 13.6035H14.369L12.1712 16.6536C11.84 17.1133 11.796 17.7204 12.0576 18.223L14.4164 22.7557H21.265Z" fill="url(#paint13_linear_423_160254)"/>
<path d="M21.265 22.7557L19.1464 18.6846C18.7105 17.8469 18.7838 16.8352 19.3358 16.069L21.1123 13.6035H14.369L12.1712 16.6536C11.84 17.1133 11.796 17.7204 12.0576 18.223L14.4164 22.7557H21.265Z" stroke="#89E159"/>
<path d="M22.6045 71.8177C20.054 73.7865 16.4963 73.7865 13.9457 71.8177C10.2712 68.9813 10.2712 63.4366 13.9457 60.6002C16.4963 58.6315 20.054 58.6315 22.6045 60.6002C26.2791 63.4366 26.2791 68.9813 22.6045 71.8177Z" fill="#1F2431"/>
<path d="M22.6045 71.8177C20.054 73.7865 16.4963 73.7865 13.9457 71.8177C10.2712 68.9813 10.2712 63.4366 13.9457 60.6002C16.4963 58.6315 20.054 58.6315 22.6045 60.6002C26.2791 63.4366 26.2791 68.9813 22.6045 71.8177Z" fill="url(#paint14_linear_423_160254)"/>
<path d="M22.6045 71.8177C20.054 73.7865 16.4963 73.7865 13.9457 71.8177C10.2712 68.9813 10.2712 63.4366 13.9457 60.6002C16.4963 58.6315 20.054 58.6315 22.6045 60.6002C26.2791 63.4366 26.2791 68.9813 22.6045 71.8177Z" stroke="#89E159"/>
<path d="M14.8288 61.8552L14.971 61.7454C16.9509 60.2171 19.7126 60.2171 21.6925 61.7454L21.8347 61.8552C24.6871 64.0569 24.6871 68.361 21.8347 70.5628L21.6925 70.6726C19.7126 72.2009 16.9509 72.2009 14.971 70.6726L14.8288 70.5628C11.9764 68.361 11.9764 64.0569 14.8288 61.8552Z" stroke="#89E159"/>
<path d="M61.8905 7.34092C66.4401 2.7946 73.1207 0.499991 79.8339 0.5C86.5471 0.500009 93.2276 2.79464 97.7772 7.34098C98.3489 7.91229 98.6442 8.71982 98.6442 9.56747V9.62341V9.67929V9.73511V9.79086V9.84654V9.90216V9.95772V10.0132V10.0687V10.124V10.1793V10.2346V10.2898V10.3449V10.3999V10.4549V10.5099V10.5648V10.6196V10.6743V10.729V10.7837V10.8383V10.8928V10.9473V11.0017V11.056V11.1103V11.1645V11.2187V11.2728V11.3269V11.3809V11.4348V11.4887V11.5426V11.5963V11.6501V11.7037V11.7573V11.8109V11.8644V11.9179V11.9713V12.0246V12.0779V12.1311V12.1843V12.2375V12.2905V12.3436V12.3966V12.4495V12.5024V12.5552V12.608V12.6607V12.7134V12.766V12.8186V12.8711V12.9236V12.976V13.0284V13.0807V13.133V13.1852V13.2374V13.2895V13.3416V13.3937V13.4457V13.4976V13.5495V13.6014V13.6532V13.705V13.7567V13.8084V13.86V13.9116V13.9632V14.0147V14.0661V14.1176V14.1689V14.2203V14.2716V14.3228V14.374V14.4252V14.4763V14.5274V14.5784V14.6294V14.6804V14.7313V14.7822V14.8331V14.8839V14.9346V14.9853V15.036V15.0867V15.1373V15.1879V15.2384V15.2889V15.3394V15.3898V15.4402V15.4905V15.5409V15.5911V15.6414V15.6916V15.7418V15.7919V15.842V15.8921V15.9421V15.9921V16.0421V16.0921V16.142V16.1918V16.2417V16.2915V16.3413V16.391V16.4407V16.4904V16.5401V16.5897V16.6393V16.6889V16.7384V16.7879V16.8374V16.8868V16.9362V16.9856V17.035V17.0843V17.1336V17.1829V17.2322V17.2814V17.3306V17.3798V17.4289V17.478V17.5271V17.5762V17.6252V17.6743V17.7233V17.7722V17.8212V17.8701V17.919V17.9679V18.0167V18.0656V18.1144V18.1632V18.2119V18.2607V18.3094V18.3581V18.4068V18.4554V18.5041V18.5527V18.6013V18.6499V18.6984V18.747V18.7955V18.844V18.8925V18.941V18.9894V19.0379V19.0863V19.1347V19.1831V19.2314V19.2798V19.3281V19.3764V19.4247V19.473V19.5213V19.5695V19.6178V19.666V19.7142V19.7624V19.8106V19.8588V19.907V19.9551V20.0033V20.0514V20.0995V20.1476V20.1957V20.2438V20.2918V20.3399V20.388V20.436V20.484V20.532V20.5801V20.6281V20.676V20.724V20.772V20.82V20.8679V20.9159V20.9638V21.0118V21.0597V21.1076V21.1556V21.2035V21.2514V21.2993V21.3472V21.3951V21.443V21.4909V21.5387V21.5866V21.6345V21.6824V21.7302V21.7781V21.826V21.8738V21.9217V21.9695V22.0174V22.0652V22.1131V22.1609V22.2088V22.2567V22.3045V22.3524V22.4002V22.4481V22.4959V22.5438V22.5916V22.6395V22.6874V22.7352V22.7831V22.831V22.8788V22.9267V22.9746V23.0225V23.0704V23.1183V23.1662V23.2141V23.262V23.3099V23.3578V23.4057V23.4537V23.5016V23.5496V23.5975V23.6455V23.6934V23.7414V23.7894V23.8374V23.8854V23.9334V23.9814V24.0295V24.0775V24.1255V24.1736V24.2217V24.2697V24.3178V24.3659V24.4141V24.4622V24.5103V24.5585V24.6066V24.6548V24.703V24.7512V24.7994V24.8476V24.8959V24.9441V24.9924V25.0407V25.089V25.1373V25.1857V25.234V25.2824V25.3308V25.3792V25.4276V25.476V25.5245V25.5729V25.6214V25.6699V25.7184V25.767V25.8155V25.8641V25.9127V25.9613V26.01V26.0586V26.1073V26.156V26.2047V26.2535V26.3022V26.351V26.3998V26.4487V26.4975V26.5464V26.5953V26.6442V26.6932V26.7421V26.7911V26.8402V26.8892V26.9383V26.9874V27.0365V27.0856V27.1348V27.184V27.2332V27.2825V27.3318V27.3811V27.4304V27.4798V27.5291V27.5786V27.628V27.6775V27.727V27.7765V27.8261V27.8757V27.9253V27.975V28.0246V28.0744V28.1241V28.1739V28.2237V28.2735V28.3234V28.3733V28.4232V28.4732V28.5232V28.5733V28.6233V28.6734V28.7236V28.7738V28.824V28.8742V28.9245V28.9748V29.0252V29.0756V29.126V29.1764V29.2269V29.2775V29.328V29.3787V29.4293V29.48V29.5307V29.5815V29.6323V29.6831V29.734V29.7849V29.8359V29.8869V29.9379V29.989V30.0401V30.0913V30.1425V30.1937V30.245V30.2964V30.3477V30.3992V30.4506V30.5021V30.5537V30.6053V30.6569V30.7086V30.7603V30.8121V30.8639V30.9158V30.9677V31.0196V31.0716V31.1236V31.1757V31.2279V31.2801V31.3323V31.3846V31.4369V31.4893V31.5417V31.5942V31.6467V31.6993V31.7519V31.8046V31.8573V31.9101V31.9629V32.0158V32.0687V32.1217V32.1747V32.2278V32.2809V32.3341V32.3873V32.4406V32.494V32.5474V32.6008V32.6543V32.7079V32.7615V32.8152V32.8689V32.9227V32.9765V33.0304V33.0843V33.1383V33.1924V33.2465V33.3007V33.3549V33.4092V33.4635V33.5179V33.5724V33.6269V33.6815V33.7361V33.7908V33.8456V33.9004V33.9553V34.0102V34.0652V34.1203V34.1754V34.2306V34.2858V34.3411V34.3965V34.4519V34.5074V34.563V34.6186V34.6743V34.73V34.7858V34.8084C93.7448 33.122 87.3328 32.17 80.6833 32.1079C73.9729 32.0452 66.984 32.8884 61.0234 34.8234C61.0234 30.8659 61.0235 27.1358 61.0235 23.5447C61.0236 18.7045 61.0236 14.1168 61.0235 9.56523C61.0235 8.71787 61.3185 7.91247 61.8905 7.34092Z" fill="#1F2431"/>
<path d="M61.8905 7.34092C66.4401 2.7946 73.1207 0.499991 79.8339 0.5C86.5471 0.500009 93.2276 2.79464 97.7772 7.34098C98.3489 7.91229 98.6442 8.71982 98.6442 9.56747V9.62341V9.67929V9.73511V9.79086V9.84654V9.90216V9.95772V10.0132V10.0687V10.124V10.1793V10.2346V10.2898V10.3449V10.3999V10.4549V10.5099V10.5648V10.6196V10.6743V10.729V10.7837V10.8383V10.8928V10.9473V11.0017V11.056V11.1103V11.1645V11.2187V11.2728V11.3269V11.3809V11.4348V11.4887V11.5426V11.5963V11.6501V11.7037V11.7573V11.8109V11.8644V11.9179V11.9713V12.0246V12.0779V12.1311V12.1843V12.2375V12.2905V12.3436V12.3966V12.4495V12.5024V12.5552V12.608V12.6607V12.7134V12.766V12.8186V12.8711V12.9236V12.976V13.0284V13.0807V13.133V13.1852V13.2374V13.2895V13.3416V13.3937V13.4457V13.4976V13.5495V13.6014V13.6532V13.705V13.7567V13.8084V13.86V13.9116V13.9632V14.0147V14.0661V14.1176V14.1689V14.2203V14.2716V14.3228V14.374V14.4252V14.4763V14.5274V14.5784V14.6294V14.6804V14.7313V14.7822V14.8331V14.8839V14.9346V14.9853V15.036V15.0867V15.1373V15.1879V15.2384V15.2889V15.3394V15.3898V15.4402V15.4905V15.5409V15.5911V15.6414V15.6916V15.7418V15.7919V15.842V15.8921V15.9421V15.9921V16.0421V16.0921V16.142V16.1918V16.2417V16.2915V16.3413V16.391V16.4407V16.4904V16.5401V16.5897V16.6393V16.6889V16.7384V16.7879V16.8374V16.8868V16.9362V16.9856V17.035V17.0843V17.1336V17.1829V17.2322V17.2814V17.3306V17.3798V17.4289V17.478V17.5271V17.5762V17.6252V17.6743V17.7233V17.7722V17.8212V17.8701V17.919V17.9679V18.0167V18.0656V18.1144V18.1632V18.2119V18.2607V18.3094V18.3581V18.4068V18.4554V18.5041V18.5527V18.6013V18.6499V18.6984V18.747V18.7955V18.844V18.8925V18.941V18.9894V19.0379V19.0863V19.1347V19.1831V19.2314V19.2798V19.3281V19.3764V19.4247V19.473V19.5213V19.5695V19.6178V19.666V19.7142V19.7624V19.8106V19.8588V19.907V19.9551V20.0033V20.0514V20.0995V20.1476V20.1957V20.2438V20.2918V20.3399V20.388V20.436V20.484V20.532V20.5801V20.6281V20.676V20.724V20.772V20.82V20.8679V20.9159V20.9638V21.0118V21.0597V21.1076V21.1556V21.2035V21.2514V21.2993V21.3472V21.3951V21.443V21.4909V21.5387V21.5866V21.6345V21.6824V21.7302V21.7781V21.826V21.8738V21.9217V21.9695V22.0174V22.0652V22.1131V22.1609V22.2088V22.2567V22.3045V22.3524V22.4002V22.4481V22.4959V22.5438V22.5916V22.6395V22.6874V22.7352V22.7831V22.831V22.8788V22.9267V22.9746V23.0225V23.0704V23.1183V23.1662V23.2141V23.262V23.3099V23.3578V23.4057V23.4537V23.5016V23.5496V23.5975V23.6455V23.6934V23.7414V23.7894V23.8374V23.8854V23.9334V23.9814V24.0295V24.0775V24.1255V24.1736V24.2217V24.2697V24.3178V24.3659V24.4141V24.4622V24.5103V24.5585V24.6066V24.6548V24.703V24.7512V24.7994V24.8476V24.8959V24.9441V24.9924V25.0407V25.089V25.1373V25.1857V25.234V25.2824V25.3308V25.3792V25.4276V25.476V25.5245V25.5729V25.6214V25.6699V25.7184V25.767V25.8155V25.8641V25.9127V25.9613V26.01V26.0586V26.1073V26.156V26.2047V26.2535V26.3022V26.351V26.3998V26.4487V26.4975V26.5464V26.5953V26.6442V26.6932V26.7421V26.7911V26.8402V26.8892V26.9383V26.9874V27.0365V27.0856V27.1348V27.184V27.2332V27.2825V27.3318V27.3811V27.4304V27.4798V27.5291V27.5786V27.628V27.6775V27.727V27.7765V27.8261V27.8757V27.9253V27.975V28.0246V28.0744V28.1241V28.1739V28.2237V28.2735V28.3234V28.3733V28.4232V28.4732V28.5232V28.5733V28.6233V28.6734V28.7236V28.7738V28.824V28.8742V28.9245V28.9748V29.0252V29.0756V29.126V29.1764V29.2269V29.2775V29.328V29.3787V29.4293V29.48V29.5307V29.5815V29.6323V29.6831V29.734V29.7849V29.8359V29.8869V29.9379V29.989V30.0401V30.0913V30.1425V30.1937V30.245V30.2964V30.3477V30.3992V30.4506V30.5021V30.5537V30.6053V30.6569V30.7086V30.7603V30.8121V30.8639V30.9158V30.9677V31.0196V31.0716V31.1236V31.1757V31.2279V31.2801V31.3323V31.3846V31.4369V31.4893V31.5417V31.5942V31.6467V31.6993V31.7519V31.8046V31.8573V31.9101V31.9629V32.0158V32.0687V32.1217V32.1747V32.2278V32.2809V32.3341V32.3873V32.4406V32.494V32.5474V32.6008V32.6543V32.7079V32.7615V32.8152V32.8689V32.9227V32.9765V33.0304V33.0843V33.1383V33.1924V33.2465V33.3007V33.3549V33.4092V33.4635V33.5179V33.5724V33.6269V33.6815V33.7361V33.7908V33.8456V33.9004V33.9553V34.0102V34.0652V34.1203V34.1754V34.2306V34.2858V34.3411V34.3965V34.4519V34.5074V34.563V34.6186V34.6743V34.73V34.7858V34.8084C93.7448 33.122 87.3328 32.17 80.6833 32.1079C73.9729 32.0452 66.984 32.8884 61.0234 34.8234C61.0234 30.8659 61.0235 27.1358 61.0235 23.5447C61.0236 18.7045 61.0236 14.1168 61.0235 9.56523C61.0235 8.71787 61.3185 7.91247 61.8905 7.34092Z" fill="url(#paint15_linear_423_160254)"/>
<path d="M61.8905 7.34092C66.4401 2.7946 73.1207 0.499991 79.8339 0.5C86.5471 0.500009 93.2276 2.79464 97.7772 7.34098C98.3489 7.91229 98.6442 8.71982 98.6442 9.56747V9.62341V9.67929V9.73511V9.79086V9.84654V9.90216V9.95772V10.0132V10.0687V10.124V10.1793V10.2346V10.2898V10.3449V10.3999V10.4549V10.5099V10.5648V10.6196V10.6743V10.729V10.7837V10.8383V10.8928V10.9473V11.0017V11.056V11.1103V11.1645V11.2187V11.2728V11.3269V11.3809V11.4348V11.4887V11.5426V11.5963V11.6501V11.7037V11.7573V11.8109V11.8644V11.9179V11.9713V12.0246V12.0779V12.1311V12.1843V12.2375V12.2905V12.3436V12.3966V12.4495V12.5024V12.5552V12.608V12.6607V12.7134V12.766V12.8186V12.8711V12.9236V12.976V13.0284V13.0807V13.133V13.1852V13.2374V13.2895V13.3416V13.3937V13.4457V13.4976V13.5495V13.6014V13.6532V13.705V13.7567V13.8084V13.86V13.9116V13.9632V14.0147V14.0661V14.1176V14.1689V14.2203V14.2716V14.3228V14.374V14.4252V14.4763V14.5274V14.5784V14.6294V14.6804V14.7313V14.7822V14.8331V14.8839V14.9346V14.9853V15.036V15.0867V15.1373V15.1879V15.2384V15.2889V15.3394V15.3898V15.4402V15.4905V15.5409V15.5911V15.6414V15.6916V15.7418V15.7919V15.842V15.8921V15.9421V15.9921V16.0421V16.0921V16.142V16.1918V16.2417V16.2915V16.3413V16.391V16.4407V16.4904V16.5401V16.5897V16.6393V16.6889V16.7384V16.7879V16.8374V16.8868V16.9362V16.9856V17.035V17.0843V17.1336V17.1829V17.2322V17.2814V17.3306V17.3798V17.4289V17.478V17.5271V17.5762V17.6252V17.6743V17.7233V17.7722V17.8212V17.8701V17.919V17.9679V18.0167V18.0656V18.1144V18.1632V18.2119V18.2607V18.3094V18.3581V18.4068V18.4554V18.5041V18.5527V18.6013V18.6499V18.6984V18.747V18.7955V18.844V18.8925V18.941V18.9894V19.0379V19.0863V19.1347V19.1831V19.2314V19.2798V19.3281V19.3764V19.4247V19.473V19.5213V19.5695V19.6178V19.666V19.7142V19.7624V19.8106V19.8588V19.907V19.9551V20.0033V20.0514V20.0995V20.1476V20.1957V20.2438V20.2918V20.3399V20.388V20.436V20.484V20.532V20.5801V20.6281V20.676V20.724V20.772V20.82V20.8679V20.9159V20.9638V21.0118V21.0597V21.1076V21.1556V21.2035V21.2514V21.2993V21.3472V21.3951V21.443V21.4909V21.5387V21.5866V21.6345V21.6824V21.7302V21.7781V21.826V21.8738V21.9217V21.9695V22.0174V22.0652V22.1131V22.1609V22.2088V22.2567V22.3045V22.3524V22.4002V22.4481V22.4959V22.5438V22.5916V22.6395V22.6874V22.7352V22.7831V22.831V22.8788V22.9267V22.9746V23.0225V23.0704V23.1183V23.1662V23.2141V23.262V23.3099V23.3578V23.4057V23.4537V23.5016V23.5496V23.5975V23.6455V23.6934V23.7414V23.7894V23.8374V23.8854V23.9334V23.9814V24.0295V24.0775V24.1255V24.1736V24.2217V24.2697V24.3178V24.3659V24.4141V24.4622V24.5103V24.5585V24.6066V24.6548V24.703V24.7512V24.7994V24.8476V24.8959V24.9441V24.9924V25.0407V25.089V25.1373V25.1857V25.234V25.2824V25.3308V25.3792V25.4276V25.476V25.5245V25.5729V25.6214V25.6699V25.7184V25.767V25.8155V25.8641V25.9127V25.9613V26.01V26.0586V26.1073V26.156V26.2047V26.2535V26.3022V26.351V26.3998V26.4487V26.4975V26.5464V26.5953V26.6442V26.6932V26.7421V26.7911V26.8402V26.8892V26.9383V26.9874V27.0365V27.0856V27.1348V27.184V27.2332V27.2825V27.3318V27.3811V27.4304V27.4798V27.5291V27.5786V27.628V27.6775V27.727V27.7765V27.8261V27.8757V27.9253V27.975V28.0246V28.0744V28.1241V28.1739V28.2237V28.2735V28.3234V28.3733V28.4232V28.4732V28.5232V28.5733V28.6233V28.6734V28.7236V28.7738V28.824V28.8742V28.9245V28.9748V29.0252V29.0756V29.126V29.1764V29.2269V29.2775V29.328V29.3787V29.4293V29.48V29.5307V29.5815V29.6323V29.6831V29.734V29.7849V29.8359V29.8869V29.9379V29.989V30.0401V30.0913V30.1425V30.1937V30.245V30.2964V30.3477V30.3992V30.4506V30.5021V30.5537V30.6053V30.6569V30.7086V30.7603V30.8121V30.8639V30.9158V30.9677V31.0196V31.0716V31.1236V31.1757V31.2279V31.2801V31.3323V31.3846V31.4369V31.4893V31.5417V31.5942V31.6467V31.6993V31.7519V31.8046V31.8573V31.9101V31.9629V32.0158V32.0687V32.1217V32.1747V32.2278V32.2809V32.3341V32.3873V32.4406V32.494V32.5474V32.6008V32.6543V32.7079V32.7615V32.8152V32.8689V32.9227V32.9765V33.0304V33.0843V33.1383V33.1924V33.2465V33.3007V33.3549V33.4092V33.4635V33.5179V33.5724V33.6269V33.6815V33.7361V33.7908V33.8456V33.9004V33.9553V34.0102V34.0652V34.1203V34.1754V34.2306V34.2858V34.3411V34.3965V34.4519V34.5074V34.563V34.6186V34.6743V34.73V34.7858V34.8084C93.7448 33.122 87.3328 32.17 80.6833 32.1079C73.9729 32.0452 66.984 32.8884 61.0234 34.8234C61.0234 30.8659 61.0235 27.1358 61.0235 23.5447C61.0236 18.7045 61.0236 14.1168 61.0235 9.56523C61.0235 8.71787 61.3185 7.91247 61.8905 7.34092Z" stroke="#89E159"/>
<g filter="url(#filter2_d_423_160254)">
<ellipse cx="70.8258" cy="18.5982" rx="5.15096" ry="5.15096" fill="#89E159"/>
</g>
<g filter="url(#filter3_d_423_160254)">
<ellipse cx="88.8541" cy="18.5982" rx="5.15096" ry="5.15096" fill="#89E159"/>
</g>
<defs>
<filter id="filter0_f_423_160254" x="28.4312" y="132.431" width="102.405" height="49.5009" filterUnits="userSpaceOnUse" color-interpolation-filters="sRGB">
<feFlood flood-opacity="0" result="BackgroundImageFix"/>
<feBlend mode="normal" in="SourceGraphic" in2="BackgroundImageFix" result="shape"/>
<feGaussianBlur stdDeviation="2.78441" result="effect1_foregroundBlur_423_160254"/>
</filter>
<filter id="filter1_d_423_160254" x="55.5869" y="49.3799" width="49.1729" height="49.1729" filterUnits="userSpaceOnUse" color-interpolation-filters="sRGB">
<feFlood flood-opacity="0" result="BackgroundImageFix"/>
<feColorMatrix in="SourceAlpha" type="matrix" values="0 0 0 0 0 0 0 0 0 0 0 0 0 0 0 0 0 0 127 0" result="hardAlpha"/>
<feMorphology radius="4" operator="dilate" in="SourceAlpha" result="effect1_dropShadow_423_160254"/>
<feOffset/>
<feGaussianBlur stdDeviation="4"/>
<feComposite in2="hardAlpha" operator="out"/>
<feColorMatrix type="matrix" values="0 0 0 0 0.537255 0 0 0 0 0.882353 0 0 0 0 0.34902 0 0 0 1 0"/>
<feBlend mode="normal" in2="BackgroundImageFix" result="effect1_dropShadow_423_160254"/>
<feBlend mode="normal" in="SourceGraphic" in2="effect1_dropShadow_423_160254" result="shape"/>
</filter>
<filter id="filter2_d_423_160254" x="53.6748" y="1.44727" width="34.3018" height="34.3018" filterUnits="userSpaceOnUse" color-interpolation-filters="sRGB">
<feFlood flood-opacity="0" result="BackgroundImageFix"/>
<feColorMatrix in="SourceAlpha" type="matrix" values="0 0 0 0 0 0 0 0 0 0 0 0 0 0 0 0 0 0 127 0" result="hardAlpha"/>
<feMorphology radius="4" operator="dilate" in="SourceAlpha" result="effect1_dropShadow_423_160254"/>
<feOffset/>
<feGaussianBlur stdDeviation="4"/>
<feComposite in2="hardAlpha" operator="out"/>
<feColorMatrix type="matrix" values="0 0 0 0 0.537255 0 0 0 0 0.882353 0 0 0 0 0.34902 0 0 0 1 0"/>
<feBlend mode="normal" in2="BackgroundImageFix" result="effect1_dropShadow_423_160254"/>
<feBlend mode="normal" in="SourceGraphic" in2="effect1_dropShadow_423_160254" result="shape"/>
</filter>
<filter id="filter3_d_423_160254" x="71.7031" y="1.44727" width="34.3018" height="34.3018" filterUnits="userSpaceOnUse" color-interpolation-filters="sRGB">
<feFlood flood-opacity="0" result="BackgroundImageFix"/>
<feColorMatrix in="SourceAlpha" type="matrix" values="0 0 0 0 0 0 0 0 0 0 0 0 0 0 0 0 0 0 127 0" result="hardAlpha"/>
<feMorphology radius="4" operator="dilate" in="SourceAlpha" result="effect1_dropShadow_423_160254"/>
<feOffset/>
<feGaussianBlur stdDeviation="4"/>
<feComposite in2="hardAlpha" operator="out"/>
<feColorMatrix type="matrix" values="0 0 0 0 0.537255 0 0 0 0 0.882353 0 0 0 0 0.34902 0 0 0 1 0"/>
<feBlend mode="normal" in2="BackgroundImageFix" result="effect1_dropShadow_423_160254"/>
<feBlend mode="normal" in="SourceGraphic" in2="effect1_dropShadow_423_160254" result="shape"/>
</filter>
<linearGradient id="paint0_linear_423_160254" x1="96.1302" y1="115.174" x2="46.86" y2="88.4372" gradientUnits="userSpaceOnUse">
<stop stop-color="#1E4E4E"/>
<stop offset="1" stop-color="#1F2431"/>
</linearGradient>
<linearGradient id="paint1_linear_423_160254" x1="57.4715" y1="47.5879" x2="108.918" y2="52.1129" gradientUnits="userSpaceOnUse">
<stop stop-color="#89E159"/>
<stop offset="1" stop-color="#B9F598"/>
</linearGradient>
<linearGradient id="paint2_linear_423_160254" x1="59.4747" y1="50.002" x2="106.737" y2="54.181" gradientUnits="userSpaceOnUse">
<stop stop-color="#89E159"/>
<stop offset="1" stop-color="#B9F598"/>
</linearGradient>
<linearGradient id="paint3_linear_423_160254" x1="122.644" y1="50.7058" x2="111.895" y2="81.799" gradientUnits="userSpaceOnUse">
<stop stop-color="#1E4E4E"/>
<stop offset="1" stop-color="#1F2431"/>
</linearGradient>
<linearGradient id="paint4_linear_423_160254" x1="151.015" y1="69.4393" x2="137.099" y2="72.6889" gradientUnits="userSpaceOnUse">
<stop stop-color="#1E4E4E"/>
<stop offset="1" stop-color="#1F2431"/>
</linearGradient>
<linearGradient id="paint5_linear_423_160254" x1="157.366" y1="26.2767" x2="150.9" y2="21.7012" gradientUnits="userSpaceOnUse">
<stop stop-color="#1E4E4E"/>
<stop offset="1" stop-color="#1F2431"/>
</linearGradient>
<linearGradient id="paint6_linear_423_160254" x1="126.427" y1="26.2767" x2="132.893" y2="21.7012" gradientUnits="userSpaceOnUse">
<stop stop-color="#1E4E4E"/>
<stop offset="1" stop-color="#1F2431"/>
</linearGradient>
<linearGradient id="paint7_linear_423_160254" x1="149.254" y1="38.9646" x2="134.63" y2="24.2593" gradientUnits="userSpaceOnUse">
<stop stop-color="#1E4E4E"/>
<stop offset="1" stop-color="#1F2431"/>
</linearGradient>
<linearGradient id="paint8_linear_423_160254" x1="146.08" y1="23.3128" x2="138.789" y2="18.4112" gradientUnits="userSpaceOnUse">
<stop stop-color="#1E4E4E"/>
<stop offset="1" stop-color="#1F2431"/>
</linearGradient>
<linearGradient id="paint9_linear_423_160254" x1="37.2414" y1="50.3894" x2="46.6323" y2="80.7188" gradientUnits="userSpaceOnUse">
<stop stop-color="#1E4E4E"/>
<stop offset="1" stop-color="#1F2431"/>
</linearGradient>
<linearGradient id="paint10_linear_423_160254" x1="33.573" y1="26.2036" x2="27.1315" y2="21.6211" gradientUnits="userSpaceOnUse">
<stop stop-color="#1E4E4E"/>
<stop offset="1" stop-color="#1F2431"/>
</linearGradient>
<linearGradient id="paint11_linear_423_160254" x1="2.63407" y1="26.2036" x2="9.07555" y2="21.6211" gradientUnits="userSpaceOnUse">
<stop stop-color="#1E4E4E"/>
<stop offset="1" stop-color="#1F2431"/>
</linearGradient>
<linearGradient id="paint12_linear_423_160254" x1="25.4654" y1="38.9665" x2="10.8406" y2="24.2612" gradientUnits="userSpaceOnUse">
<stop stop-color="#1F2431"/>
<stop offset="1" stop-color="#1E4E4E"/>
</linearGradient>
<linearGradient id="paint13_linear_423_160254" x1="13.9191" y1="23.2557" x2="21.1835" y2="18.3455" gradientUnits="userSpaceOnUse">
<stop stop-color="#1E4E4E"/>
<stop offset="1" stop-color="#1F2431"/>
</linearGradient>
<linearGradient id="paint14_linear_423_160254" x1="27.4586" y1="69.4393" x2="13.5428" y2="72.6889" gradientUnits="userSpaceOnUse">
<stop stop-color="#1F2431"/>
<stop offset="1" stop-color="#1E4E4E"/>
</linearGradient>
<linearGradient id="paint15_linear_423_160254" x1="89.0943" y1="35.5173" x2="63.6836" y2="18.3479" gradientUnits="userSpaceOnUse">
<stop stop-color="#1E4E4E"/>
<stop offset="1" stop-color="#1F2431"/>
</linearGradient>
</defs>
</svg>
