<svg width="92" height="120" viewBox="0 0 92 120" fill="none" xmlns="http://www.w3.org/2000/svg">
<path d="M59.7856 109.58C59.7856 110.709 58.7191 112.065 56.2032 113.196C53.7816 114.284 50.3661 114.983 46.54 114.983C42.714 114.983 39.2984 114.284 36.8768 113.196C34.3609 112.065 33.2944 110.709 33.2944 109.58C33.2944 108.452 34.3609 107.096 36.8768 105.965C39.2984 104.877 42.714 104.178 46.54 104.178C50.3661 104.178 53.7816 104.877 56.2032 105.965C58.7191 107.096 59.7856 108.452 59.7856 109.58Z" fill="#D9D9D9" stroke="#89E159" stroke-width="2"/>
<path d="M72.7357 48.117C72.7357 48.933 72.2599 49.8561 71.067 50.8322C69.8815 51.8022 68.1055 52.7202 65.8224 53.5103C61.2659 55.0872 54.9063 56.0808 47.8347 56.0808C40.7631 56.0808 34.4034 55.0872 29.8469 53.5103C27.5638 52.7202 25.7878 51.8022 24.6023 50.8322C23.4094 49.8561 22.9336 48.933 22.9336 48.117C22.9336 47.3011 23.4094 46.378 24.6023 45.4019C25.7878 44.4319 27.5638 43.5138 29.8469 42.7237C34.4034 41.1468 40.7631 40.1533 47.8347 40.1533C54.9063 40.1533 61.2659 41.1468 65.8224 42.7237C68.1055 43.5138 69.8815 44.4319 71.067 45.4019C72.2599 46.378 72.7357 47.3011 72.7357 48.117Z" fill="#141B25" stroke="#1E4E4E" stroke-width="2"/>
<path d="M22.2477 49.163C26.006 61.1299 36.4749 85.6859 46.537 91.6555C55.6023 84.3991 72.697 63.4992 73.7331 48.1328C71.143 53.255 63.373 57.0962 47.8323 57.0962C35.5738 57.0962 24.9269 51.5188 22.2477 49.163Z" fill="#1F2431"/>
<path d="M22.2477 49.163C26.006 61.1299 36.4749 85.6859 46.537 91.6555C55.6023 84.3991 72.697 63.4992 73.7331 48.1328C71.143 53.255 63.373 57.0962 47.8323 57.0962C35.5738 57.0962 24.9269 51.5188 22.2477 49.163Z" fill="url(#paint0_linear_436_166073)"/>
<path d="M46.537 91.6555C42.2201 95.9239 32.2917 104.22 32.2917 108.317C32.2917 112.415 40.9254 115.147 45.2422 116.001C49.9908 115.574 59.7468 113.44 60.7829 108.317C61.8189 103.195 52.1489 95.4971 46.537 91.6555Z" fill="#1F2431"/>
<path d="M46.537 91.6555C42.2201 95.9239 32.2917 104.22 32.2917 108.317C32.2917 112.415 40.9254 115.147 45.2422 116.001C49.9908 115.574 59.7468 113.44 60.7829 108.317C61.8189 103.195 52.1489 95.4971 46.537 91.6555Z" fill="url(#paint1_linear_436_166073)"/>
<path d="M21.9313 48.1324C25.8161 42.9944 32.2917 39.1543 47.8323 39.1553C64.7104 39.1563 71.143 42.9953 73.7331 48.1328M21.9313 48.1324C21.3843 48.1324 21.5304 48.5322 22.2477 49.163M21.9313 48.1324C22.0307 48.4643 22.1363 48.8081 22.2477 49.163M46.537 91.6555C42.2201 95.9239 32.2917 104.22 32.2917 108.317C32.2917 112.415 40.9254 115.147 45.2422 116.001C49.9908 115.574 59.7468 113.44 60.7829 108.317C61.8189 103.195 52.1489 95.4971 46.537 91.6555ZM46.537 91.6555C55.6023 84.3991 72.697 63.4992 73.7331 48.1328M46.537 91.6555C36.4749 85.6859 26.006 61.1299 22.2477 49.163M73.7331 48.1328C71.143 53.255 63.373 57.0962 47.8323 57.0962C35.5738 57.0962 24.9269 51.5188 22.2477 49.163" stroke="#89E159" stroke-width="2"/>
<path d="M67.7895 30.3392C68.6029 32.3999 69.7066 34.0976 70.8125 35.1804C71.366 35.7223 71.9026 36.0932 72.3856 36.2888C72.8652 36.4829 73.2634 36.4944 73.5856 36.3701C73.9077 36.2457 74.1928 35.9706 74.4126 35.5066C74.634 35.0392 74.7747 34.4069 74.8106 33.6377C74.8824 32.1003 74.5314 30.1122 73.7181 28.0515C72.9048 25.9908 71.8011 24.2931 70.6951 23.2103C70.1417 22.6684 69.6051 22.2975 69.1221 22.1019C68.6425 21.9078 68.2443 21.8963 67.9221 22.0206C67.6 22.1449 67.3149 22.4201 67.0951 22.8841C66.8737 23.3515 66.733 23.9837 66.6971 24.753C66.6253 26.2904 66.9762 28.2785 67.7895 30.3392Z" fill="#DBE2F9" stroke="#F68561" stroke-width="1.01248"/>
<path d="M63.6588 35.5528C65.5432 36.7471 67.4447 37.4775 68.9811 37.7082C69.75 37.8236 70.4031 37.8103 70.9082 37.6862C71.4097 37.563 71.7345 37.34 71.9175 37.0537C72.1005 36.7675 72.1659 36.3801 72.0656 35.8754C71.9647 35.3673 71.7003 34.7725 71.2697 34.1277C70.4093 32.8395 68.9397 31.4334 67.0553 30.2391C65.1708 29.0448 63.2694 28.3145 61.733 28.0838C60.9641 27.9683 60.3109 27.9816 59.8059 28.1057C59.3043 28.2289 58.9795 28.452 58.7966 28.7382C58.6136 29.0244 58.5482 29.4119 58.6484 29.9165C58.7494 30.4246 59.0138 31.0195 59.4444 31.6642C60.3048 32.9525 61.7743 34.3586 63.6588 35.5528Z" fill="#DBE2F9" stroke="#F68561" stroke-width="1.01248"/>
<path d="M65.9852 40.7699C68.1135 40.0835 69.8916 39.0896 71.0486 38.0583C71.6276 37.5422 72.0327 37.0331 72.2573 36.5673C72.4805 36.1046 72.5131 35.7148 72.407 35.394C72.3009 35.0732 72.0416 34.7776 71.585 34.5341C71.1253 34.289 70.494 34.1141 69.7181 34.035C68.1678 33.8768 66.1384 34.1108 64.0101 34.7971C61.8817 35.4835 60.1036 36.4774 58.9467 37.5087C58.3676 38.0248 57.9626 38.5339 57.7379 38.9997C57.5148 39.4623 57.4822 39.8522 57.5883 40.173C57.6943 40.4937 57.9536 40.7894 58.4103 41.0329C58.87 41.278 59.5012 41.4528 60.2772 41.532C61.8275 41.6902 63.8569 41.4562 65.9852 40.7699Z" fill="#DBE2F9" stroke="#F68561" stroke-width="1.01248"/>
<path d="M70.349 44.1846C71.2852 42.1755 71.7566 40.209 71.7794 38.6663C71.7908 37.8944 71.6895 37.2527 71.4978 36.7709C71.3074 36.2924 71.0405 35.999 70.7276 35.8539C70.4147 35.7089 70.0177 35.6946 69.5283 35.8579C69.0354 36.0223 68.4784 36.3588 67.8941 36.8653C66.7265 37.8773 65.5235 39.5045 64.5873 41.5137C63.6511 43.5228 63.1797 45.4893 63.1569 47.032C63.1455 47.8039 63.2468 48.4456 63.4386 48.9274C63.629 49.4059 63.8959 49.6993 64.2088 49.8444C64.5216 49.9894 64.9186 50.0037 65.408 49.8404C65.9009 49.676 66.458 49.3395 67.0422 48.833C68.2098 47.821 69.4129 46.1938 70.349 44.1846Z" fill="#DBE2F9" stroke="#F68561" stroke-width="1.01248"/>
<path d="M77.2762 41.5438C76.5136 39.4642 75.4518 37.7405 74.3727 36.6313C73.8327 36.0762 73.3053 35.6925 72.8272 35.4853C72.3525 35.2796 71.9546 35.2584 71.6293 35.3749C71.3041 35.4914 71.0123 35.7596 70.7811 36.2181C70.5483 36.6799 70.3921 37.3085 70.3373 38.0766C70.2278 39.6115 70.5298 41.6073 71.2924 43.6869C72.0549 45.7664 73.1167 47.4901 74.1959 48.5993C74.7358 49.1544 75.2632 49.5382 75.7414 49.7454C76.2161 49.951 76.614 49.9722 76.9392 49.8557C77.2645 49.7392 77.5563 49.4711 77.7874 49.0126C78.0203 48.5508 78.1764 47.9222 78.2313 47.1541C78.3408 45.6192 78.0387 43.6233 77.2762 41.5438Z" fill="#DBE2F9" stroke="#F68561" stroke-width="1.01248"/>
<path d="M80.7068 35.5213C78.9129 34.198 77.0686 33.3361 75.5526 32.9981C74.7939 32.8289 74.1414 32.7963 73.6287 32.8846C73.1194 32.9722 72.7791 33.1719 72.5757 33.4448C72.3724 33.7178 72.2792 34.0998 72.3429 34.6101C72.4071 35.1239 72.628 35.7357 73.0112 36.4088C73.7767 37.754 75.1415 39.2594 76.9354 40.5828C78.7293 41.9062 80.5736 42.768 82.0896 43.106C82.8483 43.2752 83.5008 43.3078 84.0135 43.2195C84.5227 43.1319 84.8631 42.9322 85.0664 42.6593C85.2698 42.3864 85.3629 42.0043 85.2992 41.494C85.2351 40.9802 85.0141 40.3685 84.631 39.6953C83.8654 38.3502 82.5007 36.8447 80.7068 35.5213Z" fill="#DBE2F9" stroke="#F68561" stroke-width="1.01248"/>
<path d="M78.0152 31.2574C75.8798 31.9221 74.0915 32.8978 72.9239 33.9172C72.3395 34.4274 71.9292 34.9323 71.6998 35.3958C71.4719 35.8561 71.4353 36.2456 71.538 36.5674C71.6408 36.8892 71.897 37.1875 72.3512 37.4355C72.8083 37.6853 73.4378 37.8666 74.2129 37.9536C75.7616 38.1276 77.7933 37.9143 79.9287 37.2496C82.0641 36.585 83.8524 35.6092 85.02 34.5899C85.6044 34.0796 86.0147 33.5747 86.2441 33.1113C86.472 32.6509 86.5086 32.2615 86.4059 31.9397C86.3031 31.6179 86.0469 31.3196 85.5927 31.0715C85.1356 30.8218 84.5061 30.6405 83.731 30.5534C82.1823 30.3795 80.1506 30.5928 78.0152 31.2574Z" fill="#DBE2F9" stroke="#F68561" stroke-width="1.01248"/>
<path d="M74.1126 27.0751C72.5845 28.6916 71.5115 30.4117 70.9996 31.869C70.7434 32.5982 70.6358 33.2387 70.665 33.7553C70.6939 34.2684 70.8543 34.6285 71.1043 34.862C71.3542 35.0955 71.7258 35.2321 72.2429 35.2289C72.7635 35.2257 73.3999 35.0791 74.1163 34.7796C75.5477 34.1811 77.2083 33.0098 78.7364 31.3933C80.2645 29.7768 81.3375 28.0567 81.8494 26.5994C82.1056 25.8702 82.2132 25.2298 82.184 24.7131C82.1551 24.2 81.9947 23.8399 81.7447 23.6064C81.4948 23.3729 81.1232 23.2363 80.6061 23.2395C80.0855 23.2427 79.4491 23.3893 78.7327 23.6888C77.3013 24.2873 75.6407 25.4586 74.1126 27.0751Z" fill="#DBE2F9" stroke="#F68561" stroke-width="1.01248"/>
<ellipse cx="5.9858" cy="5.4797" rx="5.9858" ry="5.4797" transform="matrix(-0.93295 0.360005 0.367121 0.930173 76.1826 29.0596)" fill="#F68561"/>
<path d="M18.2534 28.481C19.2446 30.9922 20.5914 33.066 21.9465 34.3929C22.6246 35.0568 23.2873 35.5167 23.8907 35.7609C24.4906 36.0038 25.0033 36.0237 25.4267 35.8603C25.8501 35.6969 26.2136 35.3389 26.4886 34.7585C26.7651 34.1747 26.9376 33.3925 26.9817 32.45C27.0696 30.5662 26.6398 28.1385 25.6487 25.6273C24.6575 23.1161 23.3107 21.0422 21.9556 19.7153C21.2775 19.0514 20.6148 18.5915 20.0114 18.3473C19.4115 18.1045 18.8988 18.0845 18.4754 18.2479C18.052 18.4113 17.6885 18.7693 17.4135 19.3498C17.137 19.9335 16.9644 20.7158 16.9204 21.6583C16.8324 23.5421 17.2623 25.9697 18.2534 28.481Z" fill="#DBE2F9" stroke="#F68561" stroke-width="1.01248"/>
<path d="M13.2834 34.8597C15.5796 36.3149 17.901 37.2079 19.7833 37.4906C20.7252 37.632 21.5329 37.617 22.1637 37.462C22.791 37.3079 23.2129 37.0247 23.4539 36.6477C23.6949 36.2706 23.7739 35.7702 23.6485 35.139C23.5224 34.5043 23.1941 33.7694 22.6667 32.9796C21.6125 31.4013 19.8173 29.6853 17.521 28.23C15.2248 26.7748 12.9035 25.8818 11.0212 25.5992C10.0793 25.4577 9.27162 25.4728 8.64082 25.6277C8.01347 25.7818 7.59163 26.065 7.3506 26.4421C7.10958 26.8191 7.03055 27.3196 7.15596 27.9508C7.28206 28.5854 7.61034 29.3203 8.13782 30.1101C9.19196 31.6885 10.9872 33.4045 13.2834 34.8597Z" fill="#DBE2F9" stroke="#F68561" stroke-width="1.01248"/>
<path d="M16.1984 41.2035C18.7917 40.3672 20.9634 39.1547 22.3808 37.8913C23.0901 37.2591 23.5921 36.6305 23.8727 36.0487C24.1517 35.4701 24.1993 34.9678 24.0594 34.5448C23.9196 34.1219 23.581 33.7441 23.0099 33.4396C22.4357 33.1335 21.6547 32.9187 20.7043 32.8217C18.805 32.6279 16.3273 32.9148 13.734 33.7512C11.1407 34.5875 8.96898 35.8 7.55158 37.0634C6.8423 37.6956 6.34028 38.3242 6.0597 38.9059C5.78064 39.4846 5.7331 39.9869 5.87295 40.4098C6.01281 40.8328 6.35141 41.2106 6.92251 41.515C7.49669 41.8212 8.27763 42.036 9.22804 42.133C11.1273 42.3268 13.6051 42.0398 16.1984 41.2035Z" fill="#DBE2F9" stroke="#F68561" stroke-width="1.01248"/>
<path d="M21.5572 45.289C22.698 42.8406 23.2749 40.4395 23.3028 38.5492C23.3168 37.6034 23.193 36.8097 22.9535 36.2078C22.7153 35.6094 22.3754 35.2279 21.9641 35.0373C21.5528 34.8466 21.0414 34.8334 20.4292 35.0377C19.8135 35.2431 19.1254 35.6604 18.4096 36.2809C16.9789 37.521 15.5108 39.5089 14.37 41.9573C13.2291 44.4057 12.6522 46.8067 12.6243 48.697C12.6103 49.6428 12.7341 50.4366 12.9736 51.0384C13.2118 51.6369 13.5517 52.0183 13.963 52.209C14.3743 52.3996 14.8858 52.4128 15.4979 52.2086C16.1136 52.0032 16.8017 51.5858 17.5175 50.9654C18.9482 49.7253 20.4163 47.7374 21.5572 45.289Z" fill="#DBE2F9" stroke="#F68561" stroke-width="1.01248"/>
<path d="M29.9657 42C29.0365 39.4658 27.7409 37.3602 26.4186 36.001C25.757 35.3209 25.1056 34.8451 24.5084 34.5864C23.9146 34.3291 23.4025 34.2967 22.975 34.4498C22.5476 34.6029 22.1753 34.952 21.8862 35.5255C21.5953 36.1024 21.4036 36.8801 21.3365 37.8211C21.2022 39.702 21.5724 42.139 22.5017 44.6732C23.4309 47.2074 24.7265 49.3131 26.0488 50.6723C26.7104 51.3523 27.3617 51.8281 27.959 52.0869C28.5528 52.3442 29.0649 52.3765 29.4924 52.2235C29.9198 52.0704 30.292 51.7213 30.5812 51.1478C30.8721 50.5709 31.0638 49.7932 31.1309 48.8522C31.2651 46.9713 30.895 44.5342 29.9657 42Z" fill="#DBE2F9" stroke="#F68561" stroke-width="1.01248"/>
<path d="M34.0912 34.6437C31.9052 33.0311 29.6538 31.9775 27.7964 31.5634C26.867 31.3562 26.0603 31.3145 25.4198 31.4247C24.7829 31.5343 24.3414 31.7871 24.0736 32.1465C23.8057 32.506 23.6909 32.9997 23.7706 33.638C23.8507 34.2798 24.1253 35.0357 24.5946 35.8604C25.5326 37.5084 27.2 39.3458 29.3859 40.9584C31.5718 42.5709 33.8233 43.6245 35.6806 44.0386C36.61 44.2458 37.4168 44.2876 38.0573 44.1774C38.6942 44.0678 39.1357 43.815 39.4035 43.4555C39.6713 43.0961 39.7861 42.6023 39.7065 41.964C39.6264 41.3223 39.3518 40.5663 38.8824 39.7417C37.9445 38.0936 36.2771 36.2562 34.0912 34.6437Z" fill="#DBE2F9" stroke="#F68561" stroke-width="1.01248"/>
<path d="M30.7277 29.4531C28.1257 30.2629 25.9416 31.4532 24.5112 32.7021C23.7954 33.327 23.2869 33.9505 23.0004 34.5293C22.7153 35.1051 22.6626 35.6068 22.7981 36.0311C22.9336 36.4554 23.2683 36.8366 23.8362 37.1469C24.4073 37.4588 25.186 37.6816 26.1354 37.7882C28.0327 38.0013 30.5134 37.7396 33.1153 36.9298C35.7172 36.1199 37.9013 34.9296 39.3317 33.6808C40.0475 33.0558 40.556 32.4324 40.8426 31.8536C41.1276 31.2778 41.1803 30.776 41.0448 30.3517C40.9093 29.9275 40.5746 29.5462 40.0067 29.236C39.4356 28.9241 38.6569 28.7013 37.7075 28.5947C35.8102 28.3815 33.3296 28.6432 30.7277 29.4531Z" fill="#DBE2F9" stroke="#F68561" stroke-width="1.01248"/>
<path d="M25.9475 24.4077C24.0854 26.3774 22.7741 28.4773 22.1469 30.2627C21.8331 31.1561 21.6986 31.9478 21.735 32.5932C21.7712 33.2349 21.973 33.7011 22.302 34.0084C22.631 34.3157 23.1117 34.4868 23.7584 34.4828C24.4087 34.4788 25.1953 34.2961 26.0729 33.9292C27.8268 33.1959 29.8538 31.7645 31.7159 29.7948C33.578 27.825 34.8893 25.7252 35.5165 23.9397C35.8303 23.0463 35.9649 22.2546 35.9284 21.6093C35.8922 20.9675 35.6904 20.5013 35.3614 20.194C35.0324 19.8868 34.5517 19.7156 33.905 19.7196C33.2547 19.7236 32.4681 19.9063 31.5905 20.2732C29.8366 21.0065 27.8097 22.4379 25.9475 24.4077Z" fill="#DBE2F9" stroke="#F68561" stroke-width="1.01248"/>
<ellipse cx="7.26309" cy="6.649" rx="7.26309" ry="6.649" transform="matrix(-0.93295 0.360005 0.367121 0.930173 28.5376 26.8896)" fill="#F68561"/>
<path d="M42.8662 33.8882C43.8574 36.3994 45.2042 38.4733 46.5593 39.8001C47.2374 40.464 47.9001 40.9239 48.5035 41.1682C49.1034 41.411 49.616 41.4309 50.0395 41.2675C50.4629 41.1042 50.8264 40.7462 51.1014 40.1657C51.3779 39.5819 51.5504 38.7997 51.5945 37.8572C51.6824 35.9734 51.2526 33.5457 50.2614 31.0345C49.2703 28.5233 47.9235 26.4495 46.5684 25.1226C45.8903 24.4587 45.2276 23.9988 44.6242 23.7545C44.0243 23.5117 43.5116 23.4918 43.0882 23.6552C42.6648 23.8185 42.3013 24.1766 42.0263 24.757C41.7498 25.3408 41.5772 26.123 41.5332 27.0655C41.4452 28.9493 41.8751 31.377 42.8662 33.8882Z" fill="#DBE2F9" stroke="#F68561" stroke-width="1.01248"/>
<path d="M37.8962 40.2669C40.1924 41.7222 42.5138 42.6151 44.3961 42.8978C45.338 43.0392 46.1457 43.0242 46.7764 42.8693C47.4038 42.7151 47.8256 42.432 48.0667 42.0549C48.3077 41.6778 48.3867 41.1774 48.2613 40.5462C48.1352 39.9116 47.8069 39.1766 47.2795 38.3868C46.2253 36.8085 44.43 35.0925 42.1338 33.6373C39.8376 32.182 37.5163 31.2891 35.6339 31.0064C34.6921 30.865 33.8844 30.88 33.2536 31.0349C32.6263 31.189 32.2044 31.4722 31.9634 31.8493C31.7224 32.2264 31.6433 32.7268 31.7688 33.358C31.8948 33.9926 32.2231 34.7276 32.7506 35.5173C33.8048 37.0957 35.6 38.8117 37.8962 40.2669Z" fill="#DBE2F9" stroke="#F68561" stroke-width="1.01248"/>
<path d="M40.8112 46.6117C43.4045 45.7754 45.5762 44.5629 46.9936 43.2995C47.7029 42.6673 48.2049 42.0387 48.4855 41.457C48.7645 40.8783 48.8121 40.376 48.6722 39.953C48.5323 39.5301 48.1937 39.1523 47.6226 38.8478C47.0485 38.5417 46.2675 38.3269 45.3171 38.2299C43.4178 38.0361 40.9401 38.323 38.3468 39.1594C35.7535 39.9957 33.5818 41.2082 32.1644 42.4716C31.4551 43.1038 30.9531 43.7324 30.6725 44.3141C30.3934 44.8928 30.3459 45.3951 30.4857 45.818C30.6256 46.241 30.9642 46.6188 31.5353 46.9233C32.1095 47.2294 32.8904 47.4442 33.8408 47.5412C35.7401 47.735 38.2179 47.448 40.8112 46.6117Z" fill="#DBE2F9" stroke="#F68561" stroke-width="1.01248"/>
<path d="M46.1695 50.6952C47.3103 48.2468 47.8872 45.8458 47.9151 43.9555C47.9291 43.0097 47.8053 42.2159 47.5658 41.6141C47.3276 41.0156 46.9877 40.6342 46.5764 40.4435C46.1651 40.2529 45.6537 40.2397 45.0415 40.4439C44.4258 40.6493 43.7377 41.0667 43.0219 41.6871C41.5912 42.9272 40.1231 44.9151 38.9823 47.3635C37.8414 49.8119 37.2645 52.213 37.2366 54.1033C37.2226 55.0491 37.3464 55.8428 37.5859 56.4447C37.8241 57.0431 38.164 57.4246 38.5753 57.6152C38.9866 57.8059 39.4981 57.8191 40.1103 57.6148C40.7259 57.4094 41.414 56.9921 42.1299 56.3716C43.5605 55.1315 45.0287 53.1436 46.1695 50.6952Z" fill="#DBE2F9" stroke="#F68561" stroke-width="1.01248"/>
<path d="M54.579 47.4082C53.6497 44.874 52.3541 42.7684 51.0319 41.4092C50.3703 40.7291 49.7189 40.2533 49.1217 39.9946C48.5279 39.7373 48.0157 39.7049 47.5883 39.858C47.1609 40.0111 46.7886 40.3602 46.4994 40.9337C46.2086 41.5106 46.0169 42.2883 45.9497 43.2293C45.8155 45.1102 46.1857 47.5472 47.1149 50.0814C48.0442 52.6156 49.3398 54.7213 50.6621 56.0805C51.3237 56.7605 51.975 57.2363 52.5722 57.4951C53.1661 57.7524 53.6782 57.7848 54.1056 57.6317C54.5331 57.4786 54.9053 57.1295 55.1945 56.556C55.4853 55.9791 55.677 55.2014 55.7442 54.2604C55.8784 52.3795 55.5082 49.9424 54.579 47.4082Z" fill="#DBE2F9" stroke="#F68561" stroke-width="1.01248"/>
<path d="M58.704 40.0509C56.518 38.4383 54.2666 37.3848 52.4092 36.9707C51.4798 36.7634 50.673 36.7217 50.0326 36.8319C49.3957 36.9415 48.9542 37.1943 48.6864 37.5538C48.4185 37.9132 48.3037 38.407 48.3834 39.0452C48.4635 39.687 48.7381 40.443 49.2074 41.2676C50.1454 42.9157 51.8128 44.753 53.9987 46.3656C56.1846 47.9782 58.436 49.0317 60.2934 49.4458C61.2228 49.6531 62.0296 49.6948 62.67 49.5846C63.307 49.475 63.7484 49.2222 64.0163 48.8627C64.2841 48.5033 64.3989 48.0095 64.3193 47.3713C64.2391 46.7295 63.9646 45.9735 63.4952 45.1489C62.5573 43.5008 60.8899 41.6635 58.704 40.0509Z" fill="#DBE2F9" stroke="#F68561" stroke-width="1.01248"/>
<path d="M55.3404 34.8603C52.7385 35.6702 50.5544 36.8604 49.124 38.1093C48.4082 38.7343 47.8997 39.3577 47.6131 39.9365C47.3281 40.5123 47.2754 41.0141 47.4109 41.4384C47.5464 41.8626 47.8811 42.2438 48.449 42.5541C49.0201 42.866 49.7988 43.0888 50.7482 43.1954C52.6455 43.4085 55.1262 43.1469 57.7281 42.337C60.33 41.5271 62.5141 40.3369 63.9445 39.088C64.6603 38.4631 65.1688 37.8396 65.4554 37.2608C65.7404 36.685 65.7931 36.1832 65.6576 35.759C65.5221 35.3347 65.1874 34.9535 64.6195 34.6432C64.0484 34.3313 63.2697 34.1085 62.3203 34.0019C60.423 33.7888 57.9424 34.0505 55.3404 34.8603Z" fill="#DBE2F9" stroke="#F68561" stroke-width="1.01248"/>
<path d="M50.5608 29.8159C48.6987 31.7856 47.3874 33.8855 46.7602 35.6709C46.4464 36.5643 46.3118 37.356 46.3483 38.0014C46.3845 38.6431 46.5863 39.1093 46.9153 39.4166C47.2443 39.7239 47.725 39.895 48.3717 39.891C49.022 39.887 49.8086 39.7043 50.6862 39.3374C52.4401 38.6041 54.467 37.1727 56.3292 35.203C58.1913 33.2332 59.5025 31.1334 60.1298 29.3479C60.4436 28.4545 60.5781 27.6628 60.5417 27.0175C60.5055 26.3757 60.3037 25.9095 59.9747 25.6022C59.6457 25.295 59.165 25.1238 58.5183 25.1278C57.868 25.1318 57.0814 25.3145 56.2038 25.6814C54.4499 26.4147 52.4229 27.8461 50.5608 29.8159Z" fill="#DBE2F9" stroke="#F68561" stroke-width="1.01248"/>
<ellipse cx="7.26309" cy="6.649" rx="7.26309" ry="6.649" transform="matrix(-0.93295 0.360005 0.367121 0.930173 53.1509 32.2969)" fill="#F68561"/>
<path d="M36.2517 12.7971C36.9583 14.5875 37.9162 16.0594 38.8726 16.9959C39.3513 17.4646 39.8122 17.7821 40.223 17.9484C40.6305 18.1133 40.9599 18.1198 41.2214 18.0189C41.4828 17.918 41.7208 17.6926 41.9075 17.2984C42.0958 16.9009 42.2174 16.3586 42.2485 15.6932C42.3105 14.3638 42.0069 12.6394 41.3003 10.849C40.5937 9.05859 39.6357 7.58665 38.6794 6.6502C38.2007 6.18154 37.7398 5.86398 37.3289 5.69768C36.9215 5.53276 36.592 5.52634 36.3306 5.62721C36.0692 5.72809 35.8312 5.95349 35.6445 6.34768C35.4561 6.74519 35.3346 7.2875 35.3035 7.95286C35.2414 9.28232 35.5451 11.0067 36.2517 12.7971Z" fill="#DBE2F9" stroke="#F68561" stroke-width="1.01248"/>
<path d="M32.625 17.3125C34.2623 18.3502 35.9119 18.9829 37.2407 19.1825C37.9058 19.2824 38.4663 19.2701 38.8958 19.1645C39.322 19.0599 39.5885 18.8728 39.7366 18.6411C39.8848 18.4094 39.942 18.0897 39.8569 17.661C39.771 17.2288 39.5449 16.7181 39.1724 16.1603C38.4283 15.0461 37.1542 13.826 35.5168 12.7883C33.8794 11.7506 32.2298 11.1178 30.901 10.9183C30.2359 10.8184 29.6755 10.8307 29.2459 10.9362C28.8198 11.0409 28.5532 11.2279 28.4051 11.4596C28.257 11.6914 28.1997 12.011 28.2849 12.4397C28.3707 12.8719 28.5968 13.3827 28.9693 13.9404C29.7135 15.0546 30.9876 16.2748 32.625 17.3125Z" fill="#DBE2F9" stroke="#F68561" stroke-width="1.01248"/>
<path d="M34.599 21.8544C36.4483 21.258 37.9903 20.3952 38.991 19.5032C39.4919 19.0568 39.8388 18.6193 40.0299 18.2231C40.2194 17.8301 40.2431 17.5078 40.1573 17.2483C40.0715 16.9888 39.8597 16.7423 39.4718 16.5355C39.0808 16.3271 38.5393 16.1761 37.8681 16.1077C36.5272 15.9708 34.7668 16.173 32.9175 16.7694C31.0681 17.3658 29.5262 18.2286 28.5255 19.1206C28.0246 19.5671 27.6777 20.0045 27.4866 20.4007C27.297 20.7937 27.2734 21.1161 27.3592 21.3756C27.445 21.635 27.6567 21.8815 28.0447 22.0883C28.4357 22.2968 28.9772 22.4477 29.6484 22.5162C30.9893 22.653 32.7497 22.4508 34.599 21.8544Z" fill="#DBE2F9" stroke="#F68561" stroke-width="1.01248"/>
<path d="M38.3657 24.8665C39.1791 23.1209 39.5872 21.4153 39.6069 20.0811C39.6168 19.4134 39.529 18.863 39.3659 18.4532C39.2041 18.0468 38.9811 17.8061 38.7272 17.6884C38.4734 17.5708 38.1451 17.5559 37.7294 17.6946C37.3101 17.8344 36.8317 18.1224 36.3264 18.5604C35.3167 19.4356 34.2726 20.8465 33.4593 22.5921C32.6459 24.3377 32.2378 26.0433 32.2181 27.3774C32.2082 28.0451 32.296 28.5956 32.4591 29.0054C32.6209 29.4118 32.8439 29.6525 33.0978 29.7702C33.3516 29.8878 33.6799 29.9027 34.0956 29.764C34.5149 29.6241 34.9933 29.3362 35.4986 28.8982C36.5083 28.023 37.5523 26.6121 38.3657 24.8665Z" fill="#DBE2F9" stroke="#F68561" stroke-width="1.01248"/>
<path d="M44.4028 22.6124C43.7403 20.8057 42.8188 19.3111 41.8856 18.3519C41.4185 17.8718 40.9655 17.5432 40.5588 17.367C40.1556 17.1923 39.8262 17.1779 39.5623 17.2724C39.2984 17.3669 39.0549 17.5865 38.8585 17.976C38.6604 18.3688 38.5256 18.9079 38.4782 19.5722C38.3835 20.8996 38.6447 22.6306 39.3072 24.4374C39.9697 26.2442 40.8913 27.7387 41.8245 28.698C42.2915 29.178 42.7445 29.5066 43.1512 29.6828C43.5545 29.8575 43.8838 29.872 44.1477 29.7775C44.4117 29.6829 44.6552 29.4633 44.8516 29.0739C45.0496 28.6811 45.1844 28.1419 45.2319 27.4776C45.3266 26.1502 45.0654 24.4192 44.4028 22.6124Z" fill="#DBE2F9" stroke="#F68561" stroke-width="1.01248"/>
<path d="M47.4169 17.3909C45.8582 16.2411 44.2583 15.4942 42.9471 15.2019C42.2908 15.0555 41.7309 15.0284 41.2947 15.1035C40.8621 15.178 40.5825 15.3458 40.4178 15.5668C40.2531 15.7878 40.173 16.1028 40.2271 16.5363C40.2817 16.9733 40.4705 17.4986 40.8019 18.0809C41.464 19.2443 42.6472 20.5505 44.2058 21.7004C45.7645 22.8502 47.3645 23.5971 48.6757 23.8895C49.332 24.0358 49.8919 24.0629 50.328 23.9878C50.7607 23.9134 51.0403 23.7456 51.205 23.5245C51.3697 23.3035 51.4498 22.9885 51.3957 22.555C51.3411 22.118 51.1523 21.5927 50.8209 21.0104C50.1588 19.8471 48.9756 18.5408 47.4169 17.3909Z" fill="#DBE2F9" stroke="#F68561" stroke-width="1.01248"/>
<path d="M45.128 13.6822C43.2725 14.2597 41.7217 15.1067 40.7118 15.9884C40.2063 16.4298 39.8549 16.8637 39.6597 17.2579C39.4661 17.649 39.4392 17.971 39.5223 18.2313C39.6054 18.4916 39.8146 18.7402 40.2004 18.9509C40.5892 19.1633 41.1292 19.3198 41.7997 19.3951C43.1392 19.5455 44.9016 19.3613 46.7571 18.7837C48.6126 18.2062 50.1634 17.3592 51.1732 16.4775C51.6788 16.0361 52.0302 15.6023 52.2253 15.2081C52.4189 14.817 52.4459 14.4949 52.3628 14.2346C52.2796 13.9743 52.0705 13.7258 51.6847 13.515C51.2958 13.3026 50.7559 13.1462 50.0854 13.0709C48.7459 12.9204 46.9834 13.1047 45.128 13.6822Z" fill="#DBE2F9" stroke="#F68561" stroke-width="1.01248"/>
<path d="M41.7543 10.0191C40.4265 11.4236 39.4966 12.916 39.0538 14.1763C38.8323 14.807 38.7408 15.3567 38.7656 15.7962C38.7902 16.232 38.9257 16.5285 39.1282 16.7177C39.3308 16.9069 39.637 17.0228 40.0762 17.0201C40.519 17.0174 41.0653 16.8925 41.6849 16.6334C42.9229 16.1158 44.3636 15.1005 45.6913 13.696C47.0191 12.2915 47.949 10.7991 48.3918 9.53885C48.6134 8.90805 48.7048 8.35839 48.68 7.91892C48.6554 7.48305 48.52 7.1866 48.3174 6.9974C48.1148 6.8082 47.8087 6.69226 47.3694 6.69497C46.9266 6.6977 46.3803 6.82263 45.7607 7.0817C44.5227 7.59929 43.082 8.61463 41.7543 10.0191Z" fill="#DBE2F9" stroke="#F68561" stroke-width="1.01248"/>
<ellipse cx="5.21942" cy="4.77813" rx="5.21942" ry="4.77813" transform="matrix(-0.93295 0.360005 0.367121 0.930173 43.51 11.7041)" fill="#F68561"/>
<path d="M56.5701 12.6217C57.2625 14.3761 58.201 15.818 59.1375 16.735C59.6062 17.1939 60.057 17.5043 60.4583 17.6668C60.8561 17.8278 61.1764 17.8335 61.4298 17.7358C61.6831 17.638 61.9148 17.4192 62.0972 17.0343C62.2811 16.6461 62.4001 16.1158 62.4305 15.4642C62.4913 14.1625 62.194 12.4731 61.5016 10.7187C60.8091 8.96431 59.8706 7.52239 58.9341 6.60544C58.4654 6.14651 58.0146 5.83606 57.6133 5.67364C57.2155 5.51262 56.8952 5.50686 56.6419 5.60462C56.3885 5.70237 56.1568 5.92116 55.9745 6.30605C55.7905 6.69427 55.6715 7.22461 55.6411 7.87614C55.5803 9.17793 55.8776 10.8673 56.5701 12.6217Z" fill="#DBE2F9" stroke="#F68561" stroke-width="1.01248"/>
<path d="M53.0108 17.0441C54.6153 18.0609 56.2313 18.6807 57.5325 18.8761C58.1839 18.9739 58.732 18.9617 59.1515 18.8587C59.5676 18.7565 59.8264 18.5743 59.9699 18.3498C60.1133 18.1253 60.1695 17.8147 60.0864 17.3961C60.0025 16.974 59.7815 16.4744 59.4168 15.9283C58.6881 14.8372 57.44 13.6418 55.8355 12.6249C54.231 11.6081 52.6149 10.9883 51.3137 10.7929C50.6624 10.6951 50.1143 10.7073 49.6948 10.8103C49.2787 10.9125 49.0199 11.0947 48.8764 11.3192C48.7329 11.5437 48.6767 11.8543 48.7599 12.2729C48.8438 12.695 49.0648 13.1946 49.4295 13.7407C50.1582 14.8318 51.4063 16.0272 53.0108 17.0441Z" fill="#DBE2F9" stroke="#F68561" stroke-width="1.01248"/>
<path d="M54.936 21.4964C56.7482 20.912 58.2587 20.0667 59.2386 19.1932C59.7291 18.756 60.0683 18.3281 60.2549 17.9412C60.44 17.5574 60.4625 17.244 60.3794 16.9927C60.2962 16.7414 60.0909 16.5015 59.7121 16.2996C59.3302 16.096 58.8006 15.9482 58.1434 15.8812C56.8303 15.7472 55.1057 15.9452 53.2935 16.5296C51.4813 17.114 49.9708 17.9593 48.9909 18.8328C48.5004 19.27 48.1612 19.6979 47.9746 20.0848C47.7895 20.4686 47.7671 20.7819 47.8502 21.0333C47.9333 21.2846 48.1387 21.5245 48.5175 21.7264C48.8993 21.93 49.4289 22.0778 50.0862 22.1448C51.3992 22.2788 53.1238 22.0808 54.936 21.4964Z" fill="#DBE2F9" stroke="#F68561" stroke-width="1.01248"/>
<path d="M58.6222 24.4544C59.4192 22.7439 59.8189 21.0729 59.8382 19.7666C59.8478 19.1128 59.7619 18.5745 59.6026 18.1742C59.4446 17.7774 59.2274 17.5437 58.9814 17.4297C58.7354 17.3157 58.4163 17.3007 58.0104 17.4361C57.6009 17.5727 57.133 17.8543 56.6381 18.2832C55.6494 19.1401 54.6266 20.5222 53.8295 22.2327C53.0325 23.9433 52.6329 25.6142 52.6135 26.9206C52.6039 27.5744 52.6898 28.1127 52.8491 28.5129C53.0071 28.9098 53.2243 29.1434 53.4703 29.2575C53.7163 29.3715 54.0354 29.3865 54.4414 29.251C54.8508 29.1144 55.3187 28.8329 55.8136 28.404C56.8023 27.547 57.8251 26.165 58.6222 24.4544Z" fill="#DBE2F9" stroke="#F68561" stroke-width="1.01248"/>
<path d="M64.5431 22.2511C63.8939 20.4806 62.991 19.0165 62.0772 18.0773C61.6199 17.6072 61.1767 17.2859 60.7796 17.1138C60.3858 16.9432 60.0656 16.9297 59.8098 17.0213C59.5541 17.1129 59.317 17.326 59.1252 17.7063C58.9318 18.0899 58.7998 18.6172 58.7534 19.2677C58.6606 20.5674 58.9164 22.2632 59.5656 24.0337C60.2148 25.8042 61.1177 27.2682 62.0315 28.2075C62.4888 28.6776 62.9319 28.9988 63.3291 29.1709C63.7229 29.3415 64.0431 29.3551 64.2989 29.2635C64.5546 29.1719 64.7917 28.9587 64.9835 28.5784C65.1769 28.1948 65.3089 27.6676 65.3553 27.0171C65.4481 25.7173 65.1923 24.0215 64.5431 22.2511Z" fill="#DBE2F9" stroke="#F68561" stroke-width="1.01248"/>
<path d="M67.5004 17.1371C65.973 16.0103 64.4055 15.2788 63.1216 14.9925C62.479 14.8492 61.9313 14.8229 61.5054 14.8962C61.083 14.9689 60.8114 15.1324 60.6519 15.3465C60.4924 15.5606 60.414 15.8667 60.4668 16.29C60.5201 16.7168 60.7046 17.2306 61.0291 17.8008C61.6775 18.94 62.8365 20.2197 64.3639 21.3465C65.8913 22.4733 67.4587 23.2048 68.7426 23.4911C69.3853 23.6344 69.9329 23.6607 70.3589 23.5874C70.7813 23.5147 71.0528 23.3512 71.2124 23.1371C71.3719 22.923 71.4503 22.6169 71.3975 22.1936C71.3442 21.7668 71.1597 21.253 70.8352 20.6828C70.1868 19.5436 69.0278 18.2639 67.5004 17.1371Z" fill="#DBE2F9" stroke="#F68561" stroke-width="1.01248"/>
<path d="M65.2668 13.5029C63.4485 14.0688 61.9293 14.8987 60.9404 15.7621C60.4454 16.1943 60.1018 16.6187 59.9112 17.0037C59.7222 17.3855 59.6965 17.6986 59.777 17.9507C59.8576 18.2029 60.0605 18.4448 60.4372 18.6506C60.8169 18.858 61.345 19.0111 62.0016 19.0849C63.3132 19.2322 65.0398 19.0518 66.858 18.4859C68.6763 17.92 70.1955 17.0901 71.1844 16.2267C71.6794 15.7945 72.023 15.3701 72.2136 14.9851C72.4026 14.6032 72.4283 14.2902 72.3478 14.038C72.2672 13.7859 72.0643 13.544 71.6876 13.3382C71.3079 13.1307 70.7798 12.9776 70.1232 12.9039C68.8116 12.7565 67.085 12.9369 65.2668 13.5029Z" fill="#DBE2F9" stroke="#F68561" stroke-width="1.01248"/>
<path d="M61.9639 9.90857C60.6629 11.2849 59.752 12.7469 59.3184 13.981C59.1014 14.5987 59.0121 15.1363 59.0363 15.5654C59.0604 15.991 59.1925 16.279 59.3888 16.4623C59.5851 16.6456 59.8825 16.7588 60.3113 16.7562C60.7438 16.7535 61.2781 16.6315 61.8849 16.3778C63.0971 15.8709 64.5086 14.8764 65.8096 13.5001C67.1107 12.1238 68.0216 10.6618 68.4552 9.42768C68.6722 8.80999 68.7615 8.2724 68.7373 7.84321C68.7132 7.41761 68.5811 7.12962 68.3848 6.94632C68.1885 6.76302 67.8911 6.64982 67.4622 6.65247C67.0298 6.65514 66.4955 6.77719 65.8887 7.03087C64.6765 7.5377 63.265 8.53228 61.9639 9.90857Z" fill="#DBE2F9" stroke="#F68561" stroke-width="1.01248"/>
<ellipse cx="5.11744" cy="4.68477" rx="5.11744" ry="4.68477" transform="matrix(-0.93295 0.360005 0.367121 0.930173 63.6772 11.5537)" fill="#F68561"/>
<path d="M43.6538 89.8532C42.2855 91.2053 43.2668 92.8511 43.6538 93.2333C44.3383 93.9093 48.4386 94.5853 49.8067 93.2333C50.2426 92.8025 50.4753 92.2785 50.5661 91.7722C50.7604 90.6897 50.3066 89.6884 49.8067 89.8532C47.7567 90.5292 45.7056 90.5292 43.6538 89.8532Z" fill="#F68561"/>
<path d="M49.8067 93.2333C48.4386 94.5853 44.3383 93.9093 43.6538 93.2333C43.2668 92.8511 42.2855 91.2053 43.6538 89.8532C45.7056 90.5292 47.7567 90.5292 49.8067 89.8532C50.3066 89.6884 50.7604 90.6897 50.5661 91.7722M49.8067 93.2333C51.4019 92.5573 54.7292 91.6109 55.2761 93.2333C55.9598 95.2614 59.1598 97.6339 62.5782 96.9579M49.8067 93.2333C50.2426 92.8025 50.4753 92.2785 50.5661 91.7722M50.4904 91.8813C50.5142 91.846 50.5395 91.8096 50.5661 91.7722M60.0619 93.2333C55.2761 91.8813 57.3272 91.8813 55.9598 89.8532C54.4825 87.6621 51.5598 90.3799 50.5661 91.7722" stroke="#F68561" stroke-width="1.23715"/>
<defs>
<linearGradient id="paint0_linear_436_166073" x1="60.1669" y1="116.001" x2="17.7445" y2="98.1171" gradientUnits="userSpaceOnUse">
<stop stop-color="#1E4E4E"/>
<stop offset="1" stop-color="#1F2431"/>
</linearGradient>
<linearGradient id="paint1_linear_436_166073" x1="60.1669" y1="116.001" x2="17.7445" y2="98.1171" gradientUnits="userSpaceOnUse">
<stop stop-color="#1E4E4E"/>
<stop offset="1" stop-color="#1F2431"/>
</linearGradient>
</defs>
</svg>
