<svg width="1024" height="768" viewBox="0 0 1024 768" fill="none" xmlns="http://www.w3.org/2000/svg">
<rect width="1024" height="768" rx="36" fill="#141B25"/>
<path d="M476.229 516.879C524.005 559.579 327.137 695.276 214.548 765H332.624C431.996 677.965 483.572 631.803 524.202 565.926C561.798 504.968 518.328 501.011 492.383 479.372C466.439 457.734 524.202 434.653 662.736 400.993C726.862 385.412 732.247 346.175 702.386 331.75C672.526 317.324 650.879 302.044 709.729 285.588C776.793 266.834 940.619 270.361 1024 276.451V257.698C1013.72 245.196 747.912 252.409 678.89 263.949C609.867 275.49 612.805 298.09 643.644 351.465C674.484 404.84 217.763 365.89 278.464 296.166C339.164 226.443 218.742 225 189.861 225C168.772 225 47.9741 228.366 0 234.617V263.949C44.5462 257.698 149.72 250.004 189.861 252.409C230.001 254.813 295.107 261.545 233.428 308.669C184.084 346.368 378.162 390.094 504.132 408.206C371.374 425.132 434.456 489.47 476.229 516.879Z" fill="#1F2431"/>
<path d="M476.229 516.879C524.005 559.579 327.137 695.276 214.548 765H332.624C431.996 677.965 483.572 631.803 524.202 565.926C561.798 504.968 518.328 501.011 492.383 479.372C466.439 457.734 524.202 434.653 662.736 400.993C726.862 385.412 732.247 346.175 702.386 331.75C672.526 317.324 650.879 302.044 709.729 285.588C776.793 266.834 940.619 270.361 1024 276.451V257.698C1013.72 245.196 747.912 252.409 678.89 263.949C609.867 275.49 612.805 298.09 643.644 351.465C674.484 404.84 217.763 365.89 278.464 296.166C339.164 226.443 218.742 225 189.861 225C168.772 225 47.9741 228.366 0 234.617V263.949C44.5462 257.698 149.72 250.004 189.861 252.409C230.001 254.813 295.107 261.545 233.428 308.669C184.084 346.368 378.162 390.094 504.132 408.206C371.374 425.132 434.456 489.47 476.229 516.879Z" fill="url(#paint0_linear_637_199354)"/>
<path d="M54 331C55.6528 333.313 59.3667 339.951 61 348" stroke="#89E159" stroke-width="2"/>
<path d="M79 330C77.3472 332.449 73.6333 339.478 72 348" stroke="#89E159" stroke-width="2"/>
<path d="M66.5 347V324.5" stroke="#89E159" stroke-width="2"/>
<path d="M28 427.5C29.6528 429.813 33.3667 436.451 35 444.5" stroke="#89E159" stroke-width="2"/>
<path d="M53 426.5C51.3472 428.949 47.6333 435.978 46 444.5" stroke="#89E159" stroke-width="2"/>
<path d="M40.5 443.5V421" stroke="#89E159" stroke-width="2"/>
<path d="M15 514.5C16.6528 516.813 20.3667 523.451 22 531.5" stroke="#89E159" stroke-width="2"/>
<path d="M40 513.5C38.3472 515.949 34.6333 522.978 33 531.5" stroke="#89E159" stroke-width="2"/>
<path d="M27.5 530.5V508" stroke="#89E159" stroke-width="2"/>
<path d="M16 643.5C17.6528 645.813 21.3667 652.451 23 660.5" stroke="#89E159" stroke-width="2"/>
<path d="M41 642.5C39.3472 644.949 35.6333 651.978 34 660.5" stroke="#89E159" stroke-width="2"/>
<path d="M28.5 659.5V637" stroke="#89E159" stroke-width="2"/>
<path d="M183 730.5C184.653 732.813 188.367 739.451 190 747.5" stroke="#89E159" stroke-width="2"/>
<path d="M208 729.5C206.347 731.949 202.633 738.978 201 747.5" stroke="#89E159" stroke-width="2"/>
<path d="M195.5 746.5V724" stroke="#89E159" stroke-width="2"/>
<path d="M82 729.5C83.6528 731.813 87.3667 738.451 89 746.5" stroke="#89E159" stroke-width="2"/>
<path d="M107 728.5C105.347 730.949 101.633 737.978 100 746.5" stroke="#89E159" stroke-width="2"/>
<path d="M94.5 745.5V723" stroke="#89E159" stroke-width="2"/>
<path d="M369 420.5C370.653 422.813 374.367 429.451 376 437.5" stroke="#89E159" stroke-width="2"/>
<path d="M394 419.5C392.347 421.949 388.633 428.978 387 437.5" stroke="#89E159" stroke-width="2"/>
<path d="M381.5 436.5V414" stroke="#89E159" stroke-width="2"/>
<path d="M352 609.5C353.653 611.813 357.367 618.451 359 626.5" stroke="#89E159" stroke-width="2"/>
<path d="M377 608.5C375.347 610.949 371.633 617.978 370 626.5" stroke="#89E159" stroke-width="2"/>
<path d="M364.5 625.5V603" stroke="#89E159" stroke-width="2"/>
<path d="M442 539.5C443.653 541.813 447.367 548.451 449 556.5" stroke="#89E159" stroke-width="2"/>
<path d="M467 538.5C465.347 540.949 461.633 547.978 460 556.5" stroke="#89E159" stroke-width="2"/>
<path d="M454.5 555.5V533" stroke="#89E159" stroke-width="2"/>
<path d="M392 475.5C393.653 477.813 397.367 484.451 399 492.5" stroke="#89E159" stroke-width="2"/>
<path d="M417 474.5C415.347 476.949 411.633 483.978 410 492.5" stroke="#89E159" stroke-width="2"/>
<path d="M404.5 491.5V469" stroke="#89E159" stroke-width="2"/>
<path d="M176 289.5C177.653 291.813 181.367 298.451 183 306.5" stroke="#89E159" stroke-width="2"/>
<path d="M201 288.5C199.347 290.949 195.633 297.978 194 306.5" stroke="#89E159" stroke-width="2"/>
<path d="M188.5 305.5V283" stroke="#89E159" stroke-width="2"/>
<path d="M125 179.381C125.859 180.584 127.791 184.035 128.64 188.221" stroke="#89E159" stroke-width="2"/>
<path d="M138 178.859C137.141 180.133 135.209 183.788 134.36 188.219" stroke="#89E159" stroke-width="2"/>
<path d="M131.5 187.7V176" stroke="#89E159" stroke-width="2"/>
<path d="M320 93.3809C320.859 94.5836 322.791 98.0354 323.64 102.221" stroke="#89E159" stroke-width="2"/>
<path d="M333 92.8594C332.141 94.1328 330.209 97.7877 329.36 102.219" stroke="#89E159" stroke-width="2"/>
<path d="M326.5 101.7V90" stroke="#89E159" stroke-width="2"/>
<path d="M487 340.381C487.859 341.584 489.791 345.035 490.64 349.221" stroke="#89E159" stroke-width="2"/>
<path d="M500 339.859C499.141 341.133 497.209 344.788 496.36 349.219" stroke="#89E159" stroke-width="2"/>
<path d="M493.5 348.7V337" stroke="#89E159" stroke-width="2"/>
<path d="M336 321.381C336.859 322.584 338.791 326.035 339.64 330.221" stroke="#89E159" stroke-width="2"/>
<path d="M349 320.859C348.141 322.133 346.209 325.788 345.36 330.219" stroke="#89E159" stroke-width="2"/>
<path d="M342.5 329.7V318" stroke="#89E159" stroke-width="2"/>
<path d="M719 215.381C719.859 216.584 721.791 220.035 722.64 224.221" stroke="#89E159" stroke-width="2"/>
<path d="M732 214.859C731.141 216.133 729.209 219.788 728.36 224.219" stroke="#89E159" stroke-width="2"/>
<path d="M725.5 223.7V212" stroke="#89E159" stroke-width="2"/>
<path d="M593 240.381C593.859 241.584 595.791 245.035 596.64 249.221" stroke="#89E159" stroke-width="2"/>
<path d="M606 239.859C605.141 241.133 603.209 244.788 602.36 249.219" stroke="#89E159" stroke-width="2"/>
<path d="M599.5 248.7V237" stroke="#89E159" stroke-width="2"/>
<path d="M827 221.381C827.859 222.584 829.791 226.035 830.64 230.221" stroke="#89E159" stroke-width="2"/>
<path d="M840 220.859C839.141 222.133 837.209 225.788 836.36 230.219" stroke="#89E159" stroke-width="2"/>
<path d="M833.5 229.7V218" stroke="#89E159" stroke-width="2"/>
<path d="M102 283.381C102.859 284.584 104.791 288.035 105.64 292.221" stroke="#89E159" stroke-width="2"/>
<path d="M115 282.859C114.141 284.133 112.209 287.788 111.36 292.219" stroke="#89E159" stroke-width="2"/>
<path d="M108.5 291.7V280" stroke="#89E159" stroke-width="2"/>
<defs>
<linearGradient id="paint0_linear_637_199354" x1="553.5" y1="225" x2="581.437" y2="760.569" gradientUnits="userSpaceOnUse">
<stop stop-color="#1E4E4E"/>
<stop offset="1" stop-color="#002727"/>
</linearGradient>
</defs>
</svg>
