<svg width="162" height="179" viewBox="0 0 162 179" fill="none" xmlns="http://www.w3.org/2000/svg">
<g style="mix-blend-mode:multiply" filter="url(#filter0_f_421_160045)">
<ellipse cx="80.6334" cy="154.182" rx="45.6334" ry="19.1815" fill="black" fill-opacity="0.1"/>
</g>
<rect x="51.203" y="56.0329" width="59.5949" height="59.5951" rx="12.6315" fill="#1F2431"/>
<rect x="51.203" y="56.0329" width="59.5949" height="59.5951" rx="12.6315" fill="url(#paint0_linear_421_160045)"/>
<rect x="68.6936" y="79.3519" width="1.94332" height="20.7287" rx="0.971657" transform="rotate(-90 68.6936 79.3519)" fill="#1F2431"/>
<rect x="68.6936" y="79.3519" width="1.94332" height="20.7287" rx="0.971657" transform="rotate(-90 68.6936 79.3519)" fill="url(#paint1_linear_421_160045)"/>
<rect x="68.6936" y="79.3519" width="1.94332" height="20.7287" rx="0.971657" transform="rotate(-90 68.6936 79.3519)" stroke="#89E159" stroke-width="0.647772"/>
<rect x="68.6936" y="85.182" width="1.94332" height="20.7287" rx="0.971657" transform="rotate(-90 68.6936 85.182)" fill="#1F2431"/>
<rect x="68.6936" y="85.182" width="1.94332" height="20.7287" rx="0.971657" transform="rotate(-90 68.6936 85.182)" fill="url(#paint2_linear_421_160045)"/>
<rect x="68.6936" y="85.182" width="1.94332" height="20.7287" rx="0.971657" transform="rotate(-90 68.6936 85.182)" stroke="#89E159" stroke-width="0.647772"/>
<rect x="68.6934" y="91.0121" width="1.94332" height="20.7287" rx="0.971657" transform="rotate(-90 68.6934 91.0121)" fill="#1F2431"/>
<rect x="68.6934" y="91.0121" width="1.94332" height="20.7287" rx="0.971657" transform="rotate(-90 68.6934 91.0121)" fill="url(#paint3_linear_421_160045)"/>
<rect x="68.6934" y="91.0121" width="1.94332" height="20.7287" rx="0.971657" transform="rotate(-90 68.6934 91.0121)" stroke="#89E159" stroke-width="0.647772"/>
<path d="M71.9325 71.9023C71.9325 72.7967 71.2074 73.5217 70.313 73.5217C69.4186 73.5217 68.6936 72.7967 68.6936 71.9023C68.6936 71.0079 69.4186 70.2829 70.313 70.2829C71.2074 70.2829 71.9325 71.0079 71.9325 71.9023Z" fill="#1F2431"/>
<path d="M71.9325 71.9023C71.9325 72.7967 71.2074 73.5217 70.313 73.5217C69.4186 73.5217 68.6936 72.7967 68.6936 71.9023C68.6936 71.0079 69.4186 70.2829 70.313 70.2829C71.2074 70.2829 71.9325 71.0079 71.9325 71.9023Z" fill="url(#paint4_linear_421_160045)"/>
<path d="M71.9325 71.9023C71.9325 72.7967 71.2074 73.5217 70.313 73.5217C69.4186 73.5217 68.6936 72.7967 68.6936 71.9023C68.6936 71.0079 69.4186 70.2829 70.313 70.2829C71.2074 70.2829 71.9325 71.0079 71.9325 71.9023Z" stroke="#89E159" stroke-width="0.647772"/>
<path d="M75.8196 71.9023C75.8196 72.7967 75.0946 73.5217 74.2002 73.5217C73.3058 73.5217 72.5808 72.7967 72.5808 71.9023C72.5808 71.0079 73.3058 70.2829 74.2002 70.2829C75.0946 70.2829 75.8196 71.0079 75.8196 71.9023Z" fill="#1F2431"/>
<path d="M75.8196 71.9023C75.8196 72.7967 75.0946 73.5217 74.2002 73.5217C73.3058 73.5217 72.5808 72.7967 72.5808 71.9023C72.5808 71.0079 73.3058 70.2829 74.2002 70.2829C75.0946 70.2829 75.8196 71.0079 75.8196 71.9023Z" fill="url(#paint5_linear_421_160045)"/>
<path d="M75.8196 71.9023C75.8196 72.7967 75.0946 73.5217 74.2002 73.5217C73.3058 73.5217 72.5808 72.7967 72.5808 71.9023C72.5808 71.0079 73.3058 70.2829 74.2002 70.2829C75.0946 70.2829 75.8196 71.0079 75.8196 71.9023Z" stroke="#89E159" stroke-width="0.647772"/>
<path d="M79.0576 71.9023C79.0576 72.7967 78.3325 73.5217 77.4382 73.5217C76.5438 73.5217 75.8187 72.7967 75.8187 71.9023C75.8187 71.0079 76.5438 70.2829 77.4382 70.2829C78.3325 70.2829 79.0576 71.0079 79.0576 71.9023Z" fill="#1F2431"/>
<path d="M79.0576 71.9023C79.0576 72.7967 78.3325 73.5217 77.4382 73.5217C76.5438 73.5217 75.8187 72.7967 75.8187 71.9023C75.8187 71.0079 76.5438 70.2829 77.4382 70.2829C78.3325 70.2829 79.0576 71.0079 79.0576 71.9023Z" fill="url(#paint6_linear_421_160045)"/>
<path d="M79.0576 71.9023C79.0576 72.7967 78.3325 73.5217 77.4382 73.5217C76.5438 73.5217 75.8187 72.7967 75.8187 71.9023C75.8187 71.0079 76.5438 70.2829 77.4382 70.2829C78.3325 70.2829 79.0576 71.0079 79.0576 71.9023Z" stroke="#89E159" stroke-width="0.647772"/>
<rect x="51.203" y="56.0329" width="59.5949" height="59.5951" rx="12.6315" stroke="#89E159" stroke-width="0.647772"/>
<rect x="60.2712" y="0.323886" width="41.4573" height="41.4574" rx="4.85829" fill="#1F2431"/>
<rect x="60.2712" y="0.323886" width="41.4573" height="41.4574" rx="4.85829" fill="url(#paint7_linear_421_160045)"/>
<rect x="60.2712" y="0.323886" width="41.4573" height="41.4574" rx="4.85829" stroke="#89E159" stroke-width="0.647772"/>
<mask id="path-10-inside-1_421_160045" fill="white">
<path d="M74.8455 42.1055H87.8009V55.7087H74.8455V42.1055Z"/>
</mask>
<path d="M74.8455 42.1055H87.8009V55.7087H74.8455V42.1055Z" fill="#1F2431"/>
<path d="M74.8455 42.1055H87.8009V55.7087H74.8455V42.1055Z" fill="url(#paint8_linear_421_160045)"/>
<path d="M87.1532 42.1055V55.7087H88.4487V42.1055H87.1532ZM75.4933 55.7087V42.1055H74.1978V55.7087H75.4933Z" fill="#89E159" mask="url(#path-10-inside-1_421_160045)"/>
<mask id="path-12-inside-2_421_160045" fill="white">
<path d="M63.8347 115.951H76.7901V135.384H63.8347V115.951Z"/>
</mask>
<path d="M63.8347 115.951H76.7901V135.384H63.8347V115.951Z" fill="#1F2431"/>
<path d="M63.8347 115.951H76.7901V135.384H63.8347V115.951Z" fill="url(#paint9_linear_421_160045)"/>
<path d="M76.1423 115.951V135.384H77.4379V115.951H76.1423ZM64.4824 135.384V115.951H63.1869V135.384H64.4824Z" fill="#89E159" mask="url(#path-12-inside-2_421_160045)"/>
<mask id="path-14-inside-3_421_160045" fill="white">
<path d="M85.2107 115.951H98.1661V135.384H85.2107V115.951Z"/>
</mask>
<path d="M85.2107 115.951H98.1661V135.384H85.2107V115.951Z" fill="#1F2431"/>
<path d="M85.2107 115.951H98.1661V135.384H85.2107V115.951Z" fill="url(#paint10_linear_421_160045)"/>
<path d="M97.5183 115.951V135.384H98.8139V115.951H97.5183ZM85.8585 135.384V115.951H84.5629V135.384H85.8585Z" fill="#89E159" mask="url(#path-14-inside-3_421_160045)"/>
<path d="M91.3644 19.1082C91.3644 24.8322 86.7241 29.4725 81 29.4725C75.276 29.4725 70.6357 24.8322 70.6357 19.1082C70.6357 13.3841 75.276 8.74381 81 8.74381C86.7241 8.74381 91.3644 13.3841 91.3644 19.1082Z" fill="#8990A5" stroke="#89E159" stroke-width="0.647772"/>
<path d="M88.1247 19.1076C88.1247 23.0429 84.9345 26.2331 80.9992 26.2331C77.0639 26.2331 73.8737 23.0429 73.8737 19.1076C73.8737 15.1723 77.0639 11.9821 80.9992 11.9821C84.9345 11.9821 88.1247 15.1723 88.1247 19.1076Z" fill="#89E159" stroke="#89E159" stroke-width="0.647772"/>
<path d="M70.3124 32.3887C78.0857 37.5086 83.796 37.6327 91.6889 32.3887" stroke="#89E159" stroke-width="1.29554"/>
<rect x="59.6236" y="135.709" width="43.4006" height="14.8988" rx="4.85829" fill="#1F2431"/>
<rect x="59.6236" y="135.709" width="43.4006" height="14.8988" rx="4.85829" fill="url(#paint11_linear_421_160045)"/>
<rect x="59.6236" y="135.709" width="43.4006" height="14.8988" rx="4.85829" stroke="#89E159" stroke-width="0.647772"/>
<path d="M75.8175 150.931C75.8175 153.614 73.6424 155.789 70.9593 155.789C68.2761 155.789 66.101 153.614 66.101 150.931C66.101 148.248 68.2761 146.073 70.9593 146.073C73.6424 146.073 75.8175 148.248 75.8175 150.931Z" fill="#1F2431"/>
<path d="M75.8175 150.931C75.8175 153.614 73.6424 155.789 70.9593 155.789C68.2761 155.789 66.101 153.614 66.101 150.931C66.101 148.248 68.2761 146.073 70.9593 146.073C73.6424 146.073 75.8175 148.248 75.8175 150.931Z" fill="url(#paint12_linear_421_160045)"/>
<path d="M75.8175 150.931C75.8175 153.614 73.6424 155.789 70.9593 155.789C68.2761 155.789 66.101 153.614 66.101 150.931C66.101 148.248 68.2761 146.073 70.9593 146.073C73.6424 146.073 75.8175 148.248 75.8175 150.931Z" stroke="#89E159" stroke-width="0.647772"/>
<path d="M73.8739 150.607C73.8739 152.395 72.4238 153.846 70.635 153.846C68.8462 153.846 67.3962 152.395 67.3962 150.607C67.3962 148.818 68.8462 147.368 70.635 147.368C72.4238 147.368 73.8739 148.818 73.8739 150.607Z" fill="#1F2431"/>
<path d="M73.8739 150.607C73.8739 152.395 72.4238 153.846 70.635 153.846C68.8462 153.846 67.3962 152.395 67.3962 150.607C67.3962 148.818 68.8462 147.368 70.635 147.368C72.4238 147.368 73.8739 148.818 73.8739 150.607Z" fill="url(#paint13_linear_421_160045)"/>
<path d="M73.8739 150.607C73.8739 152.395 72.4238 153.846 70.635 153.846C68.8462 153.846 67.3962 152.395 67.3962 150.607C67.3962 148.818 68.8462 147.368 70.635 147.368C72.4238 147.368 73.8739 148.818 73.8739 150.607Z" stroke="#89E159" stroke-width="0.647772"/>
<path d="M86.1826 150.931C86.1826 153.614 84.0075 155.789 81.3244 155.789C78.6412 155.789 76.4661 153.614 76.4661 150.931C76.4661 148.248 78.6412 146.073 81.3244 146.073C84.0075 146.073 86.1826 148.248 86.1826 150.931Z" fill="#1F2431"/>
<path d="M86.1826 150.931C86.1826 153.614 84.0075 155.789 81.3244 155.789C78.6412 155.789 76.4661 153.614 76.4661 150.931C76.4661 148.248 78.6412 146.073 81.3244 146.073C84.0075 146.073 86.1826 148.248 86.1826 150.931Z" fill="url(#paint14_linear_421_160045)"/>
<path d="M86.1826 150.931C86.1826 153.614 84.0075 155.789 81.3244 155.789C78.6412 155.789 76.4661 153.614 76.4661 150.931C76.4661 148.248 78.6412 146.073 81.3244 146.073C84.0075 146.073 86.1826 148.248 86.1826 150.931Z" stroke="#89E159" stroke-width="0.647772"/>
<path d="M84.239 150.607C84.239 152.395 82.7889 153.846 81.0001 153.846C79.2113 153.846 77.7613 152.395 77.7613 150.607C77.7613 148.818 79.2113 147.368 81.0001 147.368C82.7889 147.368 84.239 148.818 84.239 150.607Z" fill="#1F2431"/>
<path d="M84.239 150.607C84.239 152.395 82.7889 153.846 81.0001 153.846C79.2113 153.846 77.7613 152.395 77.7613 150.607C77.7613 148.818 79.2113 147.368 81.0001 147.368C82.7889 147.368 84.239 148.818 84.239 150.607Z" fill="url(#paint15_linear_421_160045)"/>
<path d="M84.239 150.607C84.239 152.395 82.7889 153.846 81.0001 153.846C79.2113 153.846 77.7613 152.395 77.7613 150.607C77.7613 148.818 79.2113 147.368 81.0001 147.368C82.7889 147.368 84.239 148.818 84.239 150.607Z" stroke="#89E159" stroke-width="0.647772"/>
<path d="M95.8992 150.931C95.8992 153.614 93.7241 155.789 91.0409 155.789C88.3577 155.789 86.1826 153.614 86.1826 150.931C86.1826 148.248 88.3577 146.073 91.0409 146.073C93.7241 146.073 95.8992 148.248 95.8992 150.931Z" fill="#1F2431"/>
<path d="M95.8992 150.931C95.8992 153.614 93.7241 155.789 91.0409 155.789C88.3577 155.789 86.1826 153.614 86.1826 150.931C86.1826 148.248 88.3577 146.073 91.0409 146.073C93.7241 146.073 95.8992 148.248 95.8992 150.931Z" fill="url(#paint16_linear_421_160045)"/>
<path d="M95.8992 150.931C95.8992 153.614 93.7241 155.789 91.0409 155.789C88.3577 155.789 86.1826 153.614 86.1826 150.931C86.1826 148.248 88.3577 146.073 91.0409 146.073C93.7241 146.073 95.8992 148.248 95.8992 150.931Z" stroke="#89E159" stroke-width="0.647772"/>
<path d="M93.9555 150.607C93.9555 152.395 92.5054 153.846 90.7166 153.846C88.9279 153.846 87.4778 152.395 87.4778 150.607C87.4778 148.818 88.9279 147.368 90.7166 147.368C92.5054 147.368 93.9555 148.818 93.9555 150.607Z" fill="#1F2431"/>
<path d="M93.9555 150.607C93.9555 152.395 92.5054 153.846 90.7166 153.846C88.9279 153.846 87.4778 152.395 87.4778 150.607C87.4778 148.818 88.9279 147.368 90.7166 147.368C92.5054 147.368 93.9555 148.818 93.9555 150.607Z" fill="url(#paint17_linear_421_160045)"/>
<path d="M93.9555 150.607C93.9555 152.395 92.5054 153.846 90.7166 153.846C88.9279 153.846 87.4778 152.395 87.4778 150.607C87.4778 148.818 88.9279 147.368 90.7166 147.368C92.5054 147.368 93.9555 148.818 93.9555 150.607Z" stroke="#89E159" stroke-width="0.647772"/>
<rect x="112.094" y="76.7611" width="10.3644" height="38.8662" rx="2.2672" transform="rotate(-90 112.094 76.7611)" fill="#1F2431"/>
<rect x="112.094" y="76.7611" width="10.3644" height="38.8662" rx="2.2672" transform="rotate(-90 112.094 76.7611)" fill="url(#paint18_linear_421_160045)"/>
<rect x="112.094" y="76.7611" width="10.3644" height="38.8662" rx="2.2672" transform="rotate(-90 112.094 76.7611)" stroke="#89E159" stroke-width="0.647772"/>
<rect x="140.597" y="43.7243" width="9.71656" height="27.8542" rx="2.2672" fill="#1F2431"/>
<rect x="140.597" y="43.7243" width="9.71656" height="27.8542" rx="2.2672" fill="url(#paint19_linear_421_160045)"/>
<rect x="140.597" y="43.7243" width="9.71656" height="27.8542" rx="2.2672" stroke="#89E159" stroke-width="0.647772"/>
<path d="M121.164 72.5496C121.164 77.737 116.959 81.9423 111.771 81.9423C106.584 81.9423 102.378 77.737 102.378 72.5496C102.378 67.3621 106.584 63.1569 111.771 63.1569C116.959 63.1569 121.164 67.3621 121.164 72.5496Z" fill="#1F2431"/>
<path d="M121.164 72.5496C121.164 77.737 116.959 81.9423 111.771 81.9423C106.584 81.9423 102.378 77.737 102.378 72.5496C102.378 67.3621 106.584 63.1569 111.771 63.1569C116.959 63.1569 121.164 67.3621 121.164 72.5496Z" fill="url(#paint20_linear_421_160045)"/>
<path d="M121.164 72.5496C121.164 77.737 116.959 81.9423 111.771 81.9423C106.584 81.9423 102.378 77.737 102.378 72.5496C102.378 67.3621 106.584 63.1569 111.771 63.1569C116.959 63.1569 121.164 67.3621 121.164 72.5496Z" stroke="#89E159" stroke-width="0.647772"/>
<path d="M118.572 72.8739C118.572 76.4514 115.672 79.3516 112.094 79.3516C108.517 79.3516 105.616 76.4514 105.616 72.8739C105.616 69.2963 108.517 66.3962 112.094 66.3962C115.672 66.3962 118.572 69.2963 118.572 72.8739Z" fill="#1F2431"/>
<path d="M118.572 72.8739C118.572 76.4514 115.672 79.3516 112.094 79.3516C108.517 79.3516 105.616 76.4514 105.616 72.8739C105.616 69.2963 108.517 66.3962 112.094 66.3962C115.672 66.3962 118.572 69.2963 118.572 72.8739Z" fill="url(#paint21_linear_421_160045)"/>
<path d="M118.572 72.8739C118.572 76.4514 115.672 79.3516 112.094 79.3516C108.517 79.3516 105.616 76.4514 105.616 72.8739C105.616 69.2963 108.517 66.3962 112.094 66.3962C115.672 66.3962 118.572 69.2963 118.572 72.8739Z" stroke="#89E159" stroke-width="0.647772"/>
<path d="M151.607 71.2554C151.607 75.0262 148.693 78.057 145.129 78.057C141.565 78.057 138.651 75.0262 138.651 71.2554C138.651 67.4846 141.565 64.4538 145.129 64.4538C148.693 64.4538 151.607 67.4846 151.607 71.2554Z" fill="#1F2431"/>
<path d="M151.607 71.2554C151.607 75.0262 148.693 78.057 145.129 78.057C141.565 78.057 138.651 75.0262 138.651 71.2554C138.651 67.4846 141.565 64.4538 145.129 64.4538C148.693 64.4538 151.607 67.4846 151.607 71.2554Z" fill="url(#paint22_linear_421_160045)"/>
<path d="M151.607 71.2554C151.607 75.0262 148.693 78.057 145.129 78.057C141.565 78.057 138.651 75.0262 138.651 71.2554C138.651 67.4846 141.565 64.4538 145.129 64.4538C148.693 64.4538 151.607 67.4846 151.607 71.2554Z" stroke="#89E159" stroke-width="0.647772"/>
<path d="M149.663 70.9315C149.663 73.4358 147.633 75.4659 145.129 75.4659C142.624 75.4659 140.594 73.4358 140.594 70.9315C140.594 68.4273 142.624 66.3971 145.129 66.3971C147.633 66.3971 149.663 68.4273 149.663 70.9315Z" fill="#1F2431"/>
<path d="M149.663 70.9315C149.663 73.4358 147.633 75.4659 145.129 75.4659C142.624 75.4659 140.594 73.4358 140.594 70.9315C140.594 68.4273 142.624 66.3971 145.129 66.3971C147.633 66.3971 149.663 68.4273 149.663 70.9315Z" fill="url(#paint23_linear_421_160045)"/>
<path d="M149.663 70.9315C149.663 73.4358 147.633 75.4659 145.129 75.4659C142.624 75.4659 140.594 73.4358 140.594 70.9315C140.594 68.4273 142.624 66.3971 145.129 66.3971C147.633 66.3971 149.663 68.4273 149.663 70.9315Z" stroke="#89E159" stroke-width="0.647772"/>
<path d="M130.483 38.6613C127.784 30.1516 135.195 23.3704 139.925 21.376C138.908 27.0806 139.25 29.3538 139.925 32.6779C140.762 36.8009 152.746 36.6668 153.421 32.6779C154.095 28.689 154.455 27.0806 153.421 21.376C157.02 24.2569 161.945 30.006 160.844 38.6613C159.49 49.2984 133.857 49.2984 130.483 38.6613Z" fill="#1F2431"/>
<path d="M130.483 38.6613C127.784 30.1516 135.195 23.3704 139.925 21.376C138.908 27.0806 139.25 29.3538 139.925 32.6779C140.762 36.8009 152.746 36.6668 153.421 32.6779C154.095 28.689 154.455 27.0806 153.421 21.376C157.02 24.2569 161.945 30.006 160.844 38.6613C159.49 49.2984 133.857 49.2984 130.483 38.6613Z" fill="url(#paint24_linear_421_160045)"/>
<path d="M130.483 38.6613C127.784 30.1516 135.195 23.3704 139.925 21.376C138.908 27.0806 139.25 29.3538 139.925 32.6779C140.762 36.8009 152.746 36.6668 153.421 32.6779C154.095 28.689 154.455 27.0806 153.421 21.376C157.02 24.2569 161.945 30.006 160.844 38.6613C159.49 49.2984 133.857 49.2984 130.483 38.6613Z" stroke="#89E159" stroke-width="0.647772"/>
<rect x="-0.323886" y="-0.323886" width="10.3644" height="38.8662" rx="2.2672" transform="matrix(0 -1 -1 0 49.5834 76.4372)" fill="#1F2431"/>
<rect x="-0.323886" y="-0.323886" width="10.3644" height="38.8662" rx="2.2672" transform="matrix(0 -1 -1 0 49.5834 76.4372)" fill="url(#paint25_linear_421_160045)"/>
<rect x="-0.323886" y="-0.323886" width="10.3644" height="38.8662" rx="2.2672" transform="matrix(0 -1 -1 0 49.5834 76.4372)" stroke="#89E159" stroke-width="0.647772"/>
<rect x="-0.323886" y="0.323886" width="9.71656" height="27.8542" rx="2.2672" transform="matrix(-1 0 0 1 21.0801 43.4004)" fill="#1F2431"/>
<rect x="-0.323886" y="0.323886" width="9.71656" height="27.8542" rx="2.2672" transform="matrix(-1 0 0 1 21.0801 43.4004)" fill="url(#paint26_linear_421_160045)"/>
<rect x="-0.323886" y="0.323886" width="9.71656" height="27.8542" rx="2.2672" transform="matrix(-1 0 0 1 21.0801 43.4004)" stroke="#89E159" stroke-width="0.647772"/>
<path d="M40.8372 72.5496C40.8372 77.737 45.0424 81.9423 50.2299 81.9423C55.4173 81.9423 59.6225 77.737 59.6225 72.5496C59.6225 67.3621 55.4173 63.1569 50.2299 63.1569C45.0424 63.1569 40.8372 67.3621 40.8372 72.5496Z" fill="#1F2431"/>
<path d="M40.8372 72.5496C40.8372 77.737 45.0424 81.9423 50.2299 81.9423C55.4173 81.9423 59.6225 77.737 59.6225 72.5496C59.6225 67.3621 55.4173 63.1569 50.2299 63.1569C45.0424 63.1569 40.8372 67.3621 40.8372 72.5496Z" fill="url(#paint27_linear_421_160045)"/>
<path d="M40.8372 72.5496C40.8372 77.737 45.0424 81.9423 50.2299 81.9423C55.4173 81.9423 59.6225 77.737 59.6225 72.5496C59.6225 67.3621 55.4173 63.1569 50.2299 63.1569C45.0424 63.1569 40.8372 67.3621 40.8372 72.5496Z" stroke="#89E159" stroke-width="0.647772"/>
<path d="M43.4292 72.8739C43.4292 76.4514 46.3294 79.3516 49.9069 79.3516C53.4844 79.3516 56.3846 76.4514 56.3846 72.8739C56.3846 69.2963 53.4844 66.3962 49.9069 66.3962C46.3294 66.3962 43.4292 69.2963 43.4292 72.8739Z" fill="#1F2431"/>
<path d="M43.4292 72.8739C43.4292 76.4514 46.3294 79.3516 49.9069 79.3516C53.4844 79.3516 56.3846 76.4514 56.3846 72.8739C56.3846 69.2963 53.4844 66.3962 49.9069 66.3962C46.3294 66.3962 43.4292 69.2963 43.4292 72.8739Z" fill="url(#paint28_linear_421_160045)"/>
<path d="M43.4292 72.8739C43.4292 76.4514 46.3294 79.3516 49.9069 79.3516C53.4844 79.3516 56.3846 76.4514 56.3846 72.8739C56.3846 69.2963 53.4844 66.3962 49.9069 66.3962C46.3294 66.3962 43.4292 69.2963 43.4292 72.8739Z" stroke="#89E159" stroke-width="0.647772"/>
<path d="M10.3943 71.2554C10.3943 75.0262 13.3085 78.057 16.872 78.057C20.4355 78.057 23.3497 75.0262 23.3497 71.2554C23.3497 67.4846 20.4355 64.4538 16.872 64.4538C13.3085 64.4538 10.3943 67.4846 10.3943 71.2554Z" fill="#1F2431"/>
<path d="M10.3943 71.2554C10.3943 75.0262 13.3085 78.057 16.872 78.057C20.4355 78.057 23.3497 75.0262 23.3497 71.2554C23.3497 67.4846 20.4355 64.4538 16.872 64.4538C13.3085 64.4538 10.3943 67.4846 10.3943 71.2554Z" fill="url(#paint29_linear_421_160045)"/>
<path d="M10.3943 71.2554C10.3943 75.0262 13.3085 78.057 16.872 78.057C20.4355 78.057 23.3497 75.0262 23.3497 71.2554C23.3497 67.4846 20.4355 64.4538 16.872 64.4538C13.3085 64.4538 10.3943 67.4846 10.3943 71.2554Z" stroke="#89E159" stroke-width="0.647772"/>
<path d="M12.338 70.9315C12.338 73.4358 14.3681 75.4659 16.8724 75.4659C19.3766 75.4659 21.4068 73.4358 21.4068 70.9315C21.4068 68.4273 19.3766 66.3971 16.8724 66.3971C14.3681 66.3971 12.338 68.4273 12.338 70.9315Z" fill="#1F2431"/>
<path d="M12.338 70.9315C12.338 73.4358 14.3681 75.4659 16.8724 75.4659C19.3766 75.4659 21.4068 73.4358 21.4068 70.9315C21.4068 68.4273 19.3766 66.3971 16.8724 66.3971C14.3681 66.3971 12.338 68.4273 12.338 70.9315Z" fill="url(#paint30_linear_421_160045)"/>
<path d="M12.338 70.9315C12.338 73.4358 14.3681 75.4659 16.8724 75.4659C19.3766 75.4659 21.4068 73.4358 21.4068 70.9315C21.4068 68.4273 19.3766 66.3971 16.8724 66.3971C14.3681 66.3971 12.338 68.4273 12.338 70.9315Z" stroke="#89E159" stroke-width="0.647772"/>
<path d="M31.5174 38.6613C34.2166 30.1516 26.8054 23.3704 22.0763 21.376C23.0924 27.0806 22.7511 29.3538 22.0763 32.6779C21.2394 36.8009 9.25502 36.6668 8.58021 32.6779C7.90541 28.689 7.54589 27.0806 8.58021 21.376C4.98125 24.2569 0.0556717 30.006 1.1571 38.6613C2.51073 49.2984 28.1434 49.2984 31.5174 38.6613Z" fill="#1F2431"/>
<path d="M31.5174 38.6613C34.2166 30.1516 26.8054 23.3704 22.0763 21.376C23.0924 27.0806 22.7511 29.3538 22.0763 32.6779C21.2394 36.8009 9.25502 36.6668 8.58021 32.6779C7.90541 28.689 7.54589 27.0806 8.58021 21.376C4.98125 24.2569 0.0556717 30.006 1.1571 38.6613C2.51073 49.2984 28.1434 49.2984 31.5174 38.6613Z" fill="url(#paint31_linear_421_160045)"/>
<path d="M31.5174 38.6613C34.2166 30.1516 26.8054 23.3704 22.0763 21.376C23.0924 27.0806 22.7511 29.3538 22.0763 32.6779C21.2394 36.8009 9.25502 36.6668 8.58021 32.6779C7.90541 28.689 7.54589 27.0806 8.58021 21.376C4.98125 24.2569 0.0556717 30.006 1.1571 38.6613C2.51073 49.2984 28.1434 49.2984 31.5174 38.6613Z" stroke="#89E159" stroke-width="0.647772"/>
<defs>
<filter id="filter0_f_421_160045" x="29.4312" y="129.431" width="102.405" height="49.5009" filterUnits="userSpaceOnUse" color-interpolation-filters="sRGB">
<feFlood flood-opacity="0" result="BackgroundImageFix"/>
<feBlend mode="normal" in="SourceGraphic" in2="BackgroundImageFix" result="shape"/>
<feGaussianBlur stdDeviation="2.78441" result="effect1_foregroundBlur_421_160045"/>
</filter>
<linearGradient id="paint0_linear_421_160045" x1="95.4455" y1="115.952" x2="53.7947" y2="90.0709" gradientUnits="userSpaceOnUse">
<stop stop-color="#1E4E4E"/>
<stop offset="1" stop-color="#1F2431"/>
</linearGradient>
<linearGradient id="paint1_linear_421_160045" x1="70.2866" y1="101.052" x2="67.8174" y2="100.866" gradientUnits="userSpaceOnUse">
<stop stop-color="#1E4E4E"/>
<stop offset="1" stop-color="#1F2431"/>
</linearGradient>
<linearGradient id="paint2_linear_421_160045" x1="70.2866" y1="106.882" x2="67.8174" y2="106.696" gradientUnits="userSpaceOnUse">
<stop stop-color="#1E4E4E"/>
<stop offset="1" stop-color="#1F2431"/>
</linearGradient>
<linearGradient id="paint3_linear_421_160045" x1="70.2863" y1="112.712" x2="67.8172" y2="112.526" gradientUnits="userSpaceOnUse">
<stop stop-color="#1E4E4E"/>
<stop offset="1" stop-color="#1F2431"/>
</linearGradient>
<linearGradient id="paint4_linear_421_160045" x1="71.245" y1="73.8456" x2="68.5578" y2="72.1759" gradientUnits="userSpaceOnUse">
<stop stop-color="#1E4E4E"/>
<stop offset="1" stop-color="#1F2431"/>
</linearGradient>
<linearGradient id="paint5_linear_421_160045" x1="75.1321" y1="73.8456" x2="72.445" y2="72.1759" gradientUnits="userSpaceOnUse">
<stop stop-color="#1E4E4E"/>
<stop offset="1" stop-color="#1F2431"/>
</linearGradient>
<linearGradient id="paint6_linear_421_160045" x1="78.3701" y1="73.8456" x2="75.6829" y2="72.1759" gradientUnits="userSpaceOnUse">
<stop stop-color="#1E4E4E"/>
<stop offset="1" stop-color="#1F2431"/>
</linearGradient>
<linearGradient id="paint7_linear_421_160045" x1="91.0958" y1="42.1052" x2="61.985" y2="24.0164" gradientUnits="userSpaceOnUse">
<stop stop-color="#1E4E4E"/>
<stop offset="1" stop-color="#1F2431"/>
</linearGradient>
<linearGradient id="paint8_linear_421_160045" x1="84.4297" y1="55.7087" x2="75.2344" y2="50.267" gradientUnits="userSpaceOnUse">
<stop stop-color="#1E4E4E"/>
<stop offset="1" stop-color="#1F2431"/>
</linearGradient>
<linearGradient id="paint9_linear_421_160045" x1="73.4188" y1="135.384" x2="62.8217" y2="130.994" gradientUnits="userSpaceOnUse">
<stop stop-color="#1E4E4E"/>
<stop offset="1" stop-color="#1F2431"/>
</linearGradient>
<linearGradient id="paint10_linear_421_160045" x1="94.7949" y1="135.384" x2="84.1978" y2="130.994" gradientUnits="userSpaceOnUse">
<stop stop-color="#1E4E4E"/>
<stop offset="1" stop-color="#1F2431"/>
</linearGradient>
<linearGradient id="paint11_linear_421_160045" x1="91.8858" y1="150.931" x2="81.589" y2="132.803" gradientUnits="userSpaceOnUse">
<stop stop-color="#1E4E4E"/>
<stop offset="1" stop-color="#1F2431"/>
</linearGradient>
<linearGradient id="paint12_linear_421_160045" x1="73.4444" y1="156.113" x2="66.2787" y2="151.661" gradientUnits="userSpaceOnUse">
<stop stop-color="#1E4E4E"/>
<stop offset="1" stop-color="#1F2431"/>
</linearGradient>
<linearGradient id="paint13_linear_421_160045" x1="72.3435" y1="154.169" x2="67.4171" y2="151.108" gradientUnits="userSpaceOnUse">
<stop stop-color="#1E4E4E"/>
<stop offset="1" stop-color="#1F2431"/>
</linearGradient>
<linearGradient id="paint14_linear_421_160045" x1="83.8095" y1="156.113" x2="76.6438" y2="151.661" gradientUnits="userSpaceOnUse">
<stop stop-color="#1E4E4E"/>
<stop offset="1" stop-color="#1F2431"/>
</linearGradient>
<linearGradient id="paint15_linear_421_160045" x1="82.7087" y1="154.169" x2="77.7822" y2="151.108" gradientUnits="userSpaceOnUse">
<stop stop-color="#1E4E4E"/>
<stop offset="1" stop-color="#1F2431"/>
</linearGradient>
<linearGradient id="paint16_linear_421_160045" x1="93.5261" y1="156.113" x2="86.3603" y2="151.661" gradientUnits="userSpaceOnUse">
<stop stop-color="#1E4E4E"/>
<stop offset="1" stop-color="#1F2431"/>
</linearGradient>
<linearGradient id="paint17_linear_421_160045" x1="92.4252" y1="154.169" x2="87.4987" y2="151.108" gradientUnits="userSpaceOnUse">
<stop stop-color="#1E4E4E"/>
<stop offset="1" stop-color="#1F2431"/>
</linearGradient>
<linearGradient id="paint18_linear_421_160045" x1="119.916" y1="116.599" x2="109.67" y2="114.825" gradientUnits="userSpaceOnUse">
<stop stop-color="#1E4E4E"/>
<stop offset="1" stop-color="#1F2431"/>
</linearGradient>
<linearGradient id="paint19_linear_421_160045" x1="147.94" y1="71.9024" x2="138.49" y2="69.7671" gradientUnits="userSpaceOnUse">
<stop stop-color="#1E4E4E"/>
<stop offset="1" stop-color="#1F2431"/>
</linearGradient>
<linearGradient id="paint20_linear_421_160045" x1="116.431" y1="82.2662" x2="102.995" y2="73.9175" gradientUnits="userSpaceOnUse">
<stop stop-color="#1E4E4E"/>
<stop offset="1" stop-color="#1F2431"/>
</linearGradient>
<linearGradient id="paint21_linear_421_160045" x1="115.356" y1="79.6755" x2="105.951" y2="73.8314" gradientUnits="userSpaceOnUse">
<stop stop-color="#1E4E4E"/>
<stop offset="1" stop-color="#1F2431"/>
</linearGradient>
<linearGradient id="paint22_linear_421_160045" x1="148.391" y1="78.3809" x2="138.747" y2="72.6609" gradientUnits="userSpaceOnUse">
<stop stop-color="#1E4E4E"/>
<stop offset="1" stop-color="#1F2431"/>
</linearGradient>
<linearGradient id="paint23_linear_421_160045" x1="147.458" y1="75.7898" x2="140.741" y2="71.6155" gradientUnits="userSpaceOnUse">
<stop stop-color="#1E4E4E"/>
<stop offset="1" stop-color="#1F2431"/>
</linearGradient>
<linearGradient id="paint24_linear_421_160045" x1="152.91" y1="46.6391" x2="134.109" y2="32.2605" gradientUnits="userSpaceOnUse">
<stop stop-color="#1E4E4E"/>
<stop offset="1" stop-color="#1F2431"/>
</linearGradient>
<linearGradient id="paint25_linear_421_160045" x1="8.14655" y1="39.514" x2="-2.09949" y2="37.7397" gradientUnits="userSpaceOnUse">
<stop stop-color="#1E4E4E"/>
<stop offset="1" stop-color="#1F2431"/>
</linearGradient>
<linearGradient id="paint26_linear_421_160045" x1="7.66732" y1="28.502" x2="-1.7827" y2="26.3667" gradientUnits="userSpaceOnUse">
<stop stop-color="#1E4E4E"/>
<stop offset="1" stop-color="#1F2431"/>
</linearGradient>
<linearGradient id="paint27_linear_421_160045" x1="45.5702" y1="82.2662" x2="59.0059" y2="73.9175" gradientUnits="userSpaceOnUse">
<stop stop-color="#1E4E4E"/>
<stop offset="1" stop-color="#1F2431"/>
</linearGradient>
<linearGradient id="paint28_linear_421_160045" x1="46.6451" y1="79.6755" x2="56.0501" y2="73.8314" gradientUnits="userSpaceOnUse">
<stop stop-color="#1E4E4E"/>
<stop offset="1" stop-color="#1F2431"/>
</linearGradient>
<linearGradient id="paint29_linear_421_160045" x1="13.6102" y1="78.3809" x2="23.2539" y2="72.6609" gradientUnits="userSpaceOnUse">
<stop stop-color="#1E4E4E"/>
<stop offset="1" stop-color="#1F2431"/>
</linearGradient>
<linearGradient id="paint30_linear_421_160045" x1="14.5425" y1="75.7898" x2="21.2604" y2="71.6155" gradientUnits="userSpaceOnUse">
<stop stop-color="#1E4E4E"/>
<stop offset="1" stop-color="#1F2431"/>
</linearGradient>
<linearGradient id="paint31_linear_421_160045" x1="9.09102" y1="46.6391" x2="27.8921" y2="32.2605" gradientUnits="userSpaceOnUse">
<stop stop-color="#1E4E4E"/>
<stop offset="1" stop-color="#1F2431"/>
</linearGradient>
</defs>
</svg>
