<svg width="190" height="95" viewBox="0 0 190 95" fill="none" xmlns="http://www.w3.org/2000/svg">
<g style="mix-blend-mode:multiply" filter="url(#filter0_f_423_160066)">
<ellipse cx="93.0192" cy="69.5897" rx="45.6334" ry="19.1815" fill="black" fill-opacity="0.1"/>
</g>
<path d="M70.4824 21.4925L51.5154 12.0824L67.1536 27.1107L70.4824 21.4925Z" fill="#1F2431"/>
<path d="M70.4824 21.4925L51.5154 12.0824L67.1536 27.1107L70.4824 21.4925Z" fill="url(#paint0_linear_423_160066)"/>
<path d="M70.4824 21.4925L51.5154 12.0824L67.1536 27.1107L70.4824 21.4925Z" stroke="#89E159" stroke-width="0.543104"/>
<path d="M52.7973 14.059L50.6893 11.9794L40.9185 29.2924L52.7973 14.059Z" fill="#1F2431"/>
<path d="M52.7973 14.059L50.6893 11.9794L40.9185 29.2924L52.7973 14.059Z" fill="url(#paint1_linear_423_160066)"/>
<path d="M52.7973 14.059L50.6893 11.9794L40.9185 29.2924L52.7973 14.059Z" stroke="#89E159" stroke-width="0.543104"/>
<path d="M67.1895 27.5082L50.0445 11.041V12.561L67.1895 29.5427V27.5082Z" fill="#1F2431"/>
<path d="M53.0062 14.2253L38.896 32.3315L43.657 27.0567L54.282 15.596L53.0062 14.2253Z" fill="#1F2431"/>
<rect x="-0.271552" y="0.271552" width="1.62255" height="1.00379" transform="matrix(-1 0 0 1 39.7264 31.3545)" fill="#1F2431" stroke="#89E159" stroke-width="0.543104"/>
<ellipse cx="3.71255" cy="3.71256" rx="3.71255" ry="3.71256" transform="matrix(-1 0 0 1 42.4355 32.2822)" fill="#1F2431"/>
<ellipse cx="3.71255" cy="3.71256" rx="3.71255" ry="3.71256" transform="matrix(-1 0 0 1 42.4355 32.2822)" fill="url(#paint2_linear_423_160066)" fill-opacity="0.6"/>
<ellipse cx="2.8712" cy="2.8712" rx="2.8712" ry="2.8712" transform="matrix(-1 0 0 1 41.5098 33.209)" fill="#183F3F"/>
<g style="mix-blend-mode:multiply" filter="url(#filter1_f_423_160066)">
<ellipse cx="11.1901" cy="84.2852" rx="5.25945" ry="3.86724" fill="black" fill-opacity="0.1"/>
</g>
<ellipse cx="6.20058" cy="6.20058" rx="6.20058" ry="6.20058" transform="matrix(-1 0 0 1 17.4033 73.2832)" fill="#1F2431"/>
<ellipse cx="6.20058" cy="6.20058" rx="6.20058" ry="6.20058" transform="matrix(-1 0 0 1 17.4033 73.2832)" fill="url(#paint3_linear_423_160066)" fill-opacity="0.6"/>
<ellipse cx="4.79538" cy="4.79538" rx="4.79538" ry="4.79538" transform="matrix(-1 0 0 1 15.8564 74.8301)" fill="#1E4E4E"/>
<path d="M60.5525 43.2084L35.1069 33.63L56.7483 50.141L60.5525 43.2084Z" fill="#1F2431"/>
<path d="M60.5525 43.2084L35.1069 33.63L56.7483 50.141L60.5525 43.2084Z" fill="url(#paint4_linear_423_160066)"/>
<path d="M60.5525 43.2084L35.1069 33.63L56.7483 50.141L60.5525 43.2084Z" stroke="#89E159" stroke-width="0.543104"/>
<path d="M34.2629 33.928L12.9934 68.7141L39.5764 37.4399L34.2629 33.928Z" fill="#1F2431"/>
<path d="M34.2629 33.928L12.9934 68.7141L39.5764 37.4399L34.2629 33.928Z" fill="url(#paint5_linear_423_160066)"/>
<path d="M34.2629 33.928L12.9934 68.7141L39.5764 37.4399L34.2629 33.928Z" stroke="#89E159" stroke-width="0.543104"/>
<path d="M56.8345 50.5506L33.453 32.7102L33.5901 34.4872L56.0061 52.051L56.8345 50.5506Z" fill="#1F2431"/>
<path d="M39.6714 37.7283L10.9514 71.5375L20.6418 61.688L42.2682 40.2878L39.6714 37.7283Z" fill="#1F2431"/>
<rect x="-0.271552" y="0.271552" width="3.11453" height="1.99872" transform="matrix(-1 0 0 1 12.3749 71.3691)" fill="#1F2431" stroke="#89E159" stroke-width="0.543104"/>
<path d="M119.269 21.6741L138.236 12.264L122.597 27.2923L119.269 21.6741Z" fill="#1F2431"/>
<path d="M119.269 21.6741L138.236 12.264L122.597 27.2923L119.269 21.6741Z" fill="url(#paint6_linear_423_160066)"/>
<path d="M119.269 21.6741L138.236 12.264L122.597 27.2923L119.269 21.6741Z" stroke="#89E159" stroke-width="0.543104"/>
<path d="M136.954 14.2416L139.062 12.1621L148.832 29.475L136.954 14.2416Z" fill="#1F2431"/>
<path d="M136.954 14.2416L139.062 12.1621L148.832 29.475L136.954 14.2416Z" fill="url(#paint7_linear_423_160066)"/>
<path d="M136.954 14.2416L139.062 12.1621L148.832 29.475L136.954 14.2416Z" stroke="#89E159" stroke-width="0.543104"/>
<path d="M122.563 27.6898L139.708 11.2227V12.7427L122.563 29.7244V27.6898Z" fill="#1F2431"/>
<path d="M136.745 14.406L150.855 32.5121L146.094 27.2373L135.469 15.7767L136.745 14.406Z" fill="#1F2431"/>
<rect x="149.753" y="31.8077" width="1.62255" height="1.00379" fill="#1F2431" stroke="#89E159" stroke-width="0.543104"/>
<ellipse cx="151.028" cy="36.1764" rx="3.71255" ry="3.71256" fill="#1F2431"/>
<ellipse cx="151.028" cy="36.1764" rx="3.71255" ry="3.71256" fill="url(#paint8_linear_423_160066)" fill-opacity="0.6"/>
<ellipse cx="151.112" cy="36.2608" rx="2.8712" ry="2.8712" fill="#183F3F"/>
<g style="mix-blend-mode:multiply" filter="url(#filter2_f_423_160066)">
<ellipse cx="178.87" cy="84.2852" rx="5.25945" ry="3.86724" fill="black" fill-opacity="0.1"/>
</g>
<ellipse cx="178.798" cy="79.4838" rx="6.20058" ry="6.20058" fill="#1F2431"/>
<ellipse cx="178.798" cy="79.4838" rx="6.20058" ry="6.20058" fill="url(#paint9_linear_423_160066)" fill-opacity="0.6"/>
<ellipse cx="178.94" cy="79.6255" rx="4.79538" ry="4.79538" fill="#1E4E4E"/>
<path d="M129.448 43.2084L154.894 33.63L133.253 50.141L129.448 43.2084Z" fill="#1F2431"/>
<path d="M129.448 43.2084L154.894 33.63L133.253 50.141L129.448 43.2084Z" fill="url(#paint10_linear_423_160066)"/>
<path d="M129.448 43.2084L154.894 33.63L133.253 50.141L129.448 43.2084Z" stroke="#89E159" stroke-width="0.543104"/>
<path d="M155.738 33.928L177.008 68.7141L150.425 37.4399L155.738 33.928Z" fill="#1F2431"/>
<path d="M155.738 33.928L177.008 68.7141L150.425 37.4399L155.738 33.928Z" fill="url(#paint11_linear_423_160066)"/>
<path d="M155.738 33.928L177.008 68.7141L150.425 37.4399L155.738 33.928Z" stroke="#89E159" stroke-width="0.543104"/>
<path d="M133.167 50.5506L156.548 32.7102L156.411 34.4872L133.995 52.051L133.167 50.5506Z" fill="#1F2431"/>
<path d="M150.33 37.7283L179.05 71.5375L169.359 61.688L147.733 40.2878L150.33 37.7283Z" fill="#1F2431"/>
<rect x="177.355" y="71.6407" width="3.11453" height="1.99872" fill="#1F2431" stroke="#89E159" stroke-width="0.543104"/>
<path d="M64.488 34.2941V31.0215L66.5234 33.9749L64.488 37.5136V34.2941Z" fill="#1F2431"/>
<path d="M126.667 35.6023L126.688 31.958L124.8 35.095L126.667 38.5096V35.6023Z" fill="#1F2431"/>
<path d="M105.37 53.5651L133.698 49.3347V64.6387C133.698 67.906 131.049 70.5547 127.782 70.5547H62.0831C58.8158 70.5547 56.1671 67.906 56.1671 64.6387L56.1671 48.8467L84.469 53.8932L84.6293 53.9218L84.73 53.794L87.4292 50.3694H102.75L105.114 53.4615L105.212 53.5888L105.37 53.5651Z" fill="#1F2431"/>
<path d="M105.37 53.5651L133.698 49.3347V64.6387C133.698 67.906 131.049 70.5547 127.782 70.5547H62.0831C58.8158 70.5547 56.1671 67.906 56.1671 64.6387L56.1671 48.8467L84.469 53.8932L84.6293 53.9218L84.73 53.794L87.4292 50.3694H102.75L105.114 53.4615L105.212 53.5888L105.37 53.5651Z" fill="url(#paint12_linear_423_160066)"/>
<path d="M105.37 53.5651L133.698 49.3347V64.6387C133.698 67.906 131.049 70.5547 127.782 70.5547H62.0831C58.8158 70.5547 56.1671 67.906 56.1671 64.6387L56.1671 48.8467L84.469 53.8932L84.6293 53.9218L84.73 53.794L87.4292 50.3694H102.75L105.114 53.4615L105.212 53.5888L105.37 53.5651Z" stroke="#89E159" stroke-width="0.543104"/>
<path d="M56.5529 46.3674L60.6125 38.8197L63.8135 37.9679C64.3667 37.8207 64.8371 37.4569 65.1188 36.9587L66.1764 35.0874C66.5758 34.3809 66.5384 33.5087 66.0801 32.8389L64.8229 31.0014L70.912 21.3114C71.7681 19.949 73.2642 19.1221 74.8733 19.1221H89.4363L90.545 21.0024C90.8163 21.4626 91.3107 21.745 91.8449 21.745H96.7666C97.3069 21.745 97.8059 21.4561 98.0751 20.9877L99.1469 19.1221H115.271C116.838 19.1221 118.301 19.907 119.168 21.2127L126.357 32.0385L125.172 34.0095C124.795 34.6366 124.767 35.4133 125.098 36.0662L126.063 37.9734C126.335 38.511 126.822 38.9081 127.403 39.0661L130.476 39.9009L133.83 46.4845C135.835 50.4205 132.975 55.0858 128.558 55.0858H61.7631C57.2878 55.0858 54.433 50.3088 56.5529 46.3674Z" fill="#1F2431"/>
<path d="M56.5529 46.3674L60.6125 38.8197L63.8135 37.9679C64.3667 37.8207 64.8371 37.4569 65.1188 36.9587L66.1764 35.0874C66.5758 34.3809 66.5384 33.5087 66.0801 32.8389L64.8229 31.0014L70.912 21.3114C71.7681 19.949 73.2642 19.1221 74.8733 19.1221H89.4363L90.545 21.0024C90.8163 21.4626 91.3107 21.745 91.8449 21.745H96.7666C97.3069 21.745 97.8059 21.4561 98.0751 20.9877L99.1469 19.1221H115.271C116.838 19.1221 118.301 19.907 119.168 21.2127L126.357 32.0385L125.172 34.0095C124.795 34.6366 124.767 35.4133 125.098 36.0662L126.063 37.9734C126.335 38.511 126.822 38.9081 127.403 39.0661L130.476 39.9009L133.83 46.4845C135.835 50.4205 132.975 55.0858 128.558 55.0858H61.7631C57.2878 55.0858 54.433 50.3088 56.5529 46.3674Z" fill="url(#paint13_linear_423_160066)"/>
<path d="M56.5529 46.3674L60.6125 38.8197L63.8135 37.9679C64.3667 37.8207 64.8371 37.4569 65.1188 36.9587L66.1764 35.0874C66.5758 34.3809 66.5384 33.5087 66.0801 32.8389L64.8229 31.0014L70.912 21.3114C71.7681 19.949 73.2642 19.1221 74.8733 19.1221H89.4363L90.545 21.0024C90.8163 21.4626 91.3107 21.745 91.8449 21.745H96.7666C97.3069 21.745 97.8059 21.4561 98.0751 20.9877L99.1469 19.1221H115.271C116.838 19.1221 118.301 19.907 119.168 21.2127L126.357 32.0385L125.172 34.0095C124.795 34.6366 124.767 35.4133 125.098 36.0662L126.063 37.9734C126.335 38.511 126.822 38.9081 127.403 39.0661L130.476 39.9009L133.83 46.4845C135.835 50.4205 132.975 55.0858 128.558 55.0858H61.7631C57.2878 55.0858 54.433 50.3088 56.5529 46.3674Z" stroke="#89E159" stroke-width="0.543104"/>
<path d="M56.5529 46.3674L60.6125 38.8197L63.8135 37.9679C64.3667 37.8207 64.8371 37.4569 65.1188 36.9587L66.1764 35.0874C66.5758 34.3809 66.5384 33.5087 66.0801 32.8389L64.8229 31.0014L70.912 21.3114C71.7681 19.949 73.2642 19.1221 74.8733 19.1221H89.4363L90.545 21.0024C90.8163 21.4626 91.3107 21.745 91.8449 21.745H96.7666C97.3069 21.745 97.8059 21.4561 98.0751 20.9877L99.1469 19.1221H115.271C116.838 19.1221 118.301 19.907 119.168 21.2127L126.357 32.0385L125.172 34.0095C124.795 34.6366 124.767 35.4133 125.098 36.0662L126.063 37.9734C126.335 38.511 126.822 38.9081 127.403 39.0661L130.476 39.9009L133.83 46.4845C135.835 50.4205 132.975 55.0858 128.558 55.0858H61.7631C57.2878 55.0858 54.433 50.3088 56.5529 46.3674Z" stroke="#89E159" stroke-width="0.543104"/>
<path d="M86.7686 50.922C87.0941 50.3265 87.7187 49.9561 88.3974 49.9561H101.566C102.262 49.9561 102.9 50.3452 103.218 50.9641L105.475 55.3582V68.9969H84.3438V55.3582L86.7686 50.922Z" fill="#1F2431"/>
<path fill-rule="evenodd" clip-rule="evenodd" d="M87.1415 50.4141V64.3029V64.3055L84.1572 68.8895L84.4165 69.0583L87.4117 64.4576H102.701L105.341 69.0508L105.609 68.8967L102.92 64.2176L102.92 64.2178V50.6074H102.611V64.1483H87.4509V50.4141H87.1415Z" fill="#141B25"/>
<path d="M88.3974 50.2276H101.566C102.161 50.2276 102.705 50.5598 102.976 51.0882L105.203 55.4239V68.7253H84.6153V55.4276L87.0068 51.0523C87.2847 50.5438 87.818 50.2276 88.3974 50.2276Z" stroke="#89E159" stroke-width="0.543104"/>
<ellipse cx="94.9104" cy="57.1467" rx="6.73262" ry="6.73263" fill="#212121"/>
<ellipse cx="94.9098" cy="57.1471" rx="4.23303" ry="4.23304" fill="#F68561"/>
<g filter="url(#filter3_d_423_160066)">
<ellipse cx="94.9098" cy="57.1471" rx="4.23303" ry="4.23304" fill="#F68561"/>
</g>
<path d="M99.4861 41.3878H120.161V47.7231H69.7227V41.3878H89.7788L91.7154 43.2877L91.7946 43.3654H91.9056H97.2647H97.372L97.4502 43.2921L99.4861 41.3878Z" fill="url(#paint14_linear_423_160066)" stroke="#89E159" stroke-width="0.543104"/>
<path d="M91.0611 22.0572L91.1393 22.1936H91.2966H94.3209H97.3925H97.5611L97.6359 22.0426L99.0825 19.1221H108.437L111.32 24.5468L119.98 40.8445H99.3789H89.6931H69.8959L78.2666 24.5435L81.0505 19.1221H89.3766L91.0611 22.0572Z" fill="url(#paint15_linear_423_160066)" stroke="#89E159" stroke-width="0.543104"/>
<path d="M90.0693 28.834H99.411L102.071 38.3571L97.2041 43.1035H92.0344L87.1973 38.3571L90.0693 28.834Z" fill="#89E159"/>
<path d="M93.8151 33.0781H95.4535L97.3491 43.0681H91.7803L93.8151 33.0781Z" fill="#1F2431"/>
<path d="M93.8151 33.0781H95.4535L97.3491 43.0681H91.7803L93.8151 33.0781Z" fill="url(#paint16_linear_423_160066)"/>
<path d="M104.668 24.4194V21.3652L103.63 24.4716L104.668 24.9636V24.4194Z" fill="#141B25"/>
<path d="M84.144 24.4194V21.3652L85.3184 24.4194L84.144 25.1504L84.144 24.4194Z" fill="#141B25"/>
<path d="M90.1031 28.6167H89.9012L89.8431 28.8101L87.0932 37.9611H77.328L82.1792 26.6551L84.5745 25.1946C85.2022 24.8119 85.4627 24.0325 85.1914 23.3492L84.4272 21.425L85.497 19.1378H89.4195L90.7075 21.0283C90.9885 21.4409 91.4554 21.6877 91.9546 21.6877H96.7672C97.3084 21.6877 97.8082 21.3979 98.077 20.9282L99.1016 19.1378H103.224L104.386 21.4492L103.882 23.532C103.736 24.1374 103.977 24.7705 104.488 25.1258L106.843 26.7614L112.001 37.9611H102.236L99.6631 28.8147L99.6074 28.6167H99.4017H90.1031Z" fill="#1F2431"/>
<path d="M90.1031 28.6167H89.9012L89.8431 28.8101L87.0932 37.9611H77.328L82.1792 26.6551L84.5745 25.1946C85.2022 24.8119 85.4627 24.0325 85.1914 23.3492L84.4272 21.425L85.497 19.1378H89.4195L90.7075 21.0283C90.9885 21.4409 91.4554 21.6877 91.9546 21.6877H96.7672C97.3084 21.6877 97.8082 21.3979 98.077 20.9282L99.1016 19.1378H103.224L104.386 21.4492L103.882 23.532C103.736 24.1374 103.977 24.7705 104.488 25.1258L106.843 26.7614L112.001 37.9611H102.236L99.6631 28.8147L99.6074 28.6167H99.4017H90.1031Z" fill="url(#paint17_linear_423_160066)"/>
<path d="M90.1031 28.6167H89.9012L89.8431 28.8101L87.0932 37.9611H77.328L82.1792 26.6551L84.5745 25.1946C85.2022 24.8119 85.4627 24.0325 85.1914 23.3492L84.4272 21.425L85.497 19.1378H89.4195L90.7075 21.0283C90.9885 21.4409 91.4554 21.6877 91.9546 21.6877H96.7672C97.3084 21.6877 97.8082 21.3979 98.077 20.9282L99.1016 19.1378H103.224L104.386 21.4492L103.882 23.532C103.736 24.1374 103.977 24.7705 104.488 25.1258L106.843 26.7614L112.001 37.9611H102.236L99.6631 28.8147L99.6074 28.6167H99.4017H90.1031Z" stroke="#89E159" stroke-width="0.543104"/>
<path d="M77.0259 47.759L72.2154 43.0961L77.0259 38.4331L86.9874 38.4331L91.7979 43.0961L86.9874 47.759L77.0259 47.759Z" fill="#1F2431"/>
<path d="M77.0259 47.759L72.2154 43.0961L77.0259 38.4331L86.9874 38.4331L91.7979 43.0961L86.9874 47.759L77.0259 47.759Z" fill="#1E4E4E" fill-opacity="0.6"/>
<path d="M77.0259 47.759L72.2154 43.0961L77.0259 38.4331L86.9874 38.4331L91.7979 43.0961L86.9874 47.759L77.0259 47.759Z" stroke="#89E159" stroke-width="0.543104"/>
<path d="M102.086 47.7746L97.2759 43.1117L102.086 38.4487L112.048 38.4487L116.858 43.1117L112.048 47.7746L102.086 47.7746Z" fill="#1F2431"/>
<path d="M102.086 47.7746L97.2759 43.1117L102.086 38.4487L112.048 38.4487L116.858 43.1117L112.048 47.7746L102.086 47.7746Z" fill="#1E4E4E" fill-opacity="0.6"/>
<path d="M102.086 47.7746L97.2759 43.1117L102.086 38.4487L112.048 38.4487L116.858 43.1117L112.048 47.7746L102.086 47.7746Z" stroke="#89E159" stroke-width="0.543104"/>
<g filter="url(#filter4_d_423_160066)">
<ellipse cx="81.8792" cy="43.137" rx="3.55786" ry="3.55787" fill="#141B25"/>
</g>
<ellipse cx="107.248" cy="43.4465" rx="3.55786" ry="3.55787" fill="#141B25"/>
<g filter="url(#filter5_d_423_160066)">
<ellipse cx="81.8795" cy="43.1373" rx="2.9391" ry="2.93911" fill="#89E159"/>
</g>
<g filter="url(#filter6_d_423_160066)">
<ellipse cx="107.248" cy="43.4459" rx="2.9391" ry="2.93911" fill="#89E159"/>
</g>
<g style="mix-blend-mode:multiply" filter="url(#filter7_f_423_160066)">
<ellipse cx="94.1018" cy="25.8117" rx="4.33131" ry="2.01097" fill="black" fill-opacity="0.6"/>
</g>
<path d="M94.9206 4.82812L92.1643 26.8785L90.7861 25.2247L94.9206 4.82812Z" fill="#1F2431"/>
<path d="M94.9206 4.82812L92.1643 26.8785L90.7861 25.2247L94.9206 4.82812Z" fill="url(#paint18_linear_423_160066)"/>
<path d="M94.9198 4.55176L97.7843 26.8777H92.0554L94.9198 4.55176Z" fill="#1F2431"/>
<path d="M94.9198 4.55176L97.7843 26.8777H92.0554L94.9198 4.55176Z" fill="url(#paint19_linear_423_160066)"/>
<g opacity="0.8" filter="url(#filter8_d_423_160066)">
<ellipse cx="94.8253" cy="5.56066" rx="1.55968" ry="1.55968" fill="#F68561"/>
</g>
<path d="M96.9588 45.6328C96.9588 46.6606 95.9347 47.4938 94.6713 47.4938C93.4079 47.4938 92.3838 46.6606 92.3838 45.6328" stroke="#1F2431" stroke-width="0.543104" stroke-linecap="round"/>
<defs>
<filter id="filter0_f_423_160066" x="41.8169" y="44.8394" width="102.404" height="49.5009" filterUnits="userSpaceOnUse" color-interpolation-filters="sRGB">
<feFlood flood-opacity="0" result="BackgroundImageFix"/>
<feBlend mode="normal" in="SourceGraphic" in2="BackgroundImageFix" result="shape"/>
<feGaussianBlur stdDeviation="2.78441" result="effect1_foregroundBlur_423_160066"/>
</filter>
<filter id="filter1_f_423_160066" x="0.361835" y="74.8491" width="21.6562" height="18.872" filterUnits="userSpaceOnUse" color-interpolation-filters="sRGB">
<feFlood flood-opacity="0" result="BackgroundImageFix"/>
<feBlend mode="normal" in="SourceGraphic" in2="BackgroundImageFix" result="shape"/>
<feGaussianBlur stdDeviation="2.78441" result="effect1_foregroundBlur_423_160066"/>
</filter>
<filter id="filter2_f_423_160066" x="168.042" y="74.8491" width="21.6562" height="18.872" filterUnits="userSpaceOnUse" color-interpolation-filters="sRGB">
<feFlood flood-opacity="0" result="BackgroundImageFix"/>
<feBlend mode="normal" in="SourceGraphic" in2="BackgroundImageFix" result="shape"/>
<feGaussianBlur stdDeviation="2.78441" result="effect1_foregroundBlur_423_160066"/>
</filter>
<filter id="filter3_d_423_160066" x="86.9642" y="49.2015" width="15.8909" height="15.8909" filterUnits="userSpaceOnUse" color-interpolation-filters="sRGB">
<feFlood flood-opacity="0" result="BackgroundImageFix"/>
<feColorMatrix in="SourceAlpha" type="matrix" values="0 0 0 0 0 0 0 0 0 0 0 0 0 0 0 0 0 0 127 0" result="hardAlpha"/>
<feMorphology radius="1.23752" operator="dilate" in="SourceAlpha" result="effect1_dropShadow_423_160066"/>
<feOffset/>
<feGaussianBlur stdDeviation="1.23752"/>
<feComposite in2="hardAlpha" operator="out"/>
<feColorMatrix type="matrix" values="0 0 0 0 0.964706 0 0 0 0 0.521569 0 0 0 0 0.380392 0 0 0 0.8 0"/>
<feBlend mode="normal" in2="BackgroundImageFix" result="effect1_dropShadow_423_160066"/>
<feBlend mode="normal" in="SourceGraphic" in2="effect1_dropShadow_423_160066" result="shape"/>
</filter>
<filter id="filter4_d_423_160066" x="77.0838" y="39.5791" width="9.59027" height="9.59125" filterUnits="userSpaceOnUse" color-interpolation-filters="sRGB">
<feFlood flood-opacity="0" result="BackgroundImageFix"/>
<feColorMatrix in="SourceAlpha" type="matrix" values="0 0 0 0 0 0 0 0 0 0 0 0 0 0 0 0 0 0 127 0" result="hardAlpha"/>
<feOffset dy="1.23752"/>
<feGaussianBlur stdDeviation="0.618759"/>
<feComposite in2="hardAlpha" operator="out"/>
<feColorMatrix type="matrix" values="0 0 0 0 0 0 0 0 0 0 0 0 0 0 0 0 0 0 0.25 0"/>
<feBlend mode="normal" in2="BackgroundImageFix" result="effect1_dropShadow_423_160066"/>
<feBlend mode="normal" in="SourceGraphic" in2="effect1_dropShadow_423_160066" result="shape"/>
</filter>
<filter id="filter5_d_423_160066" x="75.2279" y="36.4857" width="13.303" height="13.303" filterUnits="userSpaceOnUse" color-interpolation-filters="sRGB">
<feFlood flood-opacity="0" result="BackgroundImageFix"/>
<feColorMatrix in="SourceAlpha" type="matrix" values="0 0 0 0 0 0 0 0 0 0 0 0 0 0 0 0 0 0 127 0" result="hardAlpha"/>
<feMorphology radius="1.23752" operator="dilate" in="SourceAlpha" result="effect1_dropShadow_423_160066"/>
<feOffset/>
<feGaussianBlur stdDeviation="1.23752"/>
<feComposite in2="hardAlpha" operator="out"/>
<feColorMatrix type="matrix" values="0 0 0 0 0.537255 0 0 0 0 0.882353 0 0 0 0 0.34902 0 0 0 1 0"/>
<feBlend mode="normal" in2="BackgroundImageFix" result="effect1_dropShadow_423_160066"/>
<feBlend mode="normal" in="SourceGraphic" in2="effect1_dropShadow_423_160066" result="shape"/>
</filter>
<filter id="filter6_d_423_160066" x="100.596" y="36.7943" width="13.303" height="13.303" filterUnits="userSpaceOnUse" color-interpolation-filters="sRGB">
<feFlood flood-opacity="0" result="BackgroundImageFix"/>
<feColorMatrix in="SourceAlpha" type="matrix" values="0 0 0 0 0 0 0 0 0 0 0 0 0 0 0 0 0 0 127 0" result="hardAlpha"/>
<feMorphology radius="1.23752" operator="dilate" in="SourceAlpha" result="effect1_dropShadow_423_160066"/>
<feOffset/>
<feGaussianBlur stdDeviation="1.23752"/>
<feComposite in2="hardAlpha" operator="out"/>
<feColorMatrix type="matrix" values="0 0 0 0 0.537255 0 0 0 0 0.882353 0 0 0 0 0.34902 0 0 0 1 0"/>
<feBlend mode="normal" in2="BackgroundImageFix" result="effect1_dropShadow_423_160066"/>
<feBlend mode="normal" in="SourceGraphic" in2="effect1_dropShadow_423_160066" result="shape"/>
</filter>
<filter id="filter7_f_423_160066" x="84.2017" y="18.232" width="19.8007" height="15.1591" filterUnits="userSpaceOnUse" color-interpolation-filters="sRGB">
<feFlood flood-opacity="0" result="BackgroundImageFix"/>
<feBlend mode="normal" in="SourceGraphic" in2="BackgroundImageFix" result="shape"/>
<feGaussianBlur stdDeviation="2.78441" result="effect1_foregroundBlur_423_160066"/>
</filter>
<filter id="filter8_d_423_160066" x="89.5531" y="0.288424" width="10.5442" height="10.5442" filterUnits="userSpaceOnUse" color-interpolation-filters="sRGB">
<feFlood flood-opacity="0" result="BackgroundImageFix"/>
<feColorMatrix in="SourceAlpha" type="matrix" values="0 0 0 0 0 0 0 0 0 0 0 0 0 0 0 0 0 0 127 0" result="hardAlpha"/>
<feMorphology radius="1.23752" operator="dilate" in="SourceAlpha" result="effect1_dropShadow_423_160066"/>
<feOffset/>
<feGaussianBlur stdDeviation="1.23752"/>
<feComposite in2="hardAlpha" operator="out"/>
<feColorMatrix type="matrix" values="0 0 0 0 0.964706 0 0 0 0 0.521569 0 0 0 0 0.380392 0 0 0 0.5 0"/>
<feBlend mode="normal" in2="BackgroundImageFix" result="effect1_dropShadow_423_160066"/>
<feBlend mode="normal" in="SourceGraphic" in2="effect1_dropShadow_423_160066" result="shape"/>
</filter>
<linearGradient id="paint0_linear_423_160066" x1="68.163" y1="25.9397" x2="70.4438" y2="19.5936" gradientUnits="userSpaceOnUse">
<stop stop-color="#1E4E4E"/>
<stop offset="1" stop-color="#1F2431"/>
</linearGradient>
<linearGradient id="paint1_linear_423_160066" x1="52.6401" y1="13.1656" x2="39.7521" y2="27.5841" gradientUnits="userSpaceOnUse">
<stop stop-color="#1E4E4E"/>
<stop offset="1" stop-color="#1F2431"/>
</linearGradient>
<linearGradient id="paint2_linear_423_160066" x1="5.28722" y1="10.3178" x2="2.12422" y2="5.1419" gradientUnits="userSpaceOnUse">
<stop stop-color="#1E4E4E"/>
<stop offset="1" stop-color="#1F2431"/>
</linearGradient>
<linearGradient id="paint3_linear_423_160066" x1="8.83054" y1="17.2325" x2="3.5478" y2="8.58782" gradientUnits="userSpaceOnUse">
<stop stop-color="#1E4E4E"/>
<stop offset="1" stop-color="#1F2431"/>
</linearGradient>
<linearGradient id="paint4_linear_423_160066" x1="57.91" y1="48.6074" x2="59.8928" y2="40.9277" gradientUnits="userSpaceOnUse">
<stop stop-color="#1E4E4E"/>
<stop offset="1" stop-color="#1F2431"/>
</linearGradient>
<linearGradient id="paint5_linear_423_160066" x1="38.9265" y1="35.7515" x2="10.5457" y2="72.2155" gradientUnits="userSpaceOnUse">
<stop stop-color="#1E4E4E"/>
<stop offset="1" stop-color="#1F2431"/>
</linearGradient>
<linearGradient id="paint6_linear_423_160066" x1="121.588" y1="26.1214" x2="119.307" y2="19.7752" gradientUnits="userSpaceOnUse">
<stop stop-color="#1E4E4E"/>
<stop offset="1" stop-color="#1F2431"/>
</linearGradient>
<linearGradient id="paint7_linear_423_160066" x1="137.111" y1="13.3482" x2="149.999" y2="27.7667" gradientUnits="userSpaceOnUse">
<stop stop-color="#1E4E4E"/>
<stop offset="1" stop-color="#1F2431"/>
</linearGradient>
<linearGradient id="paint8_linear_423_160066" x1="152.603" y1="42.7817" x2="149.44" y2="37.6058" gradientUnits="userSpaceOnUse">
<stop stop-color="#1E4E4E"/>
<stop offset="1" stop-color="#1F2431"/>
</linearGradient>
<linearGradient id="paint9_linear_423_160066" x1="181.428" y1="90.5157" x2="176.145" y2="81.871" gradientUnits="userSpaceOnUse">
<stop stop-color="#1E4E4E"/>
<stop offset="1" stop-color="#1F2431"/>
</linearGradient>
<linearGradient id="paint10_linear_423_160066" x1="132.091" y1="48.6074" x2="130.108" y2="40.9277" gradientUnits="userSpaceOnUse">
<stop stop-color="#1E4E4E"/>
<stop offset="1" stop-color="#1F2431"/>
</linearGradient>
<linearGradient id="paint11_linear_423_160066" x1="151.074" y1="35.7515" x2="179.455" y2="72.2155" gradientUnits="userSpaceOnUse">
<stop stop-color="#1E4E4E"/>
<stop offset="1" stop-color="#1F2431"/>
</linearGradient>
<linearGradient id="paint12_linear_423_160066" x1="94.1939" y1="54.4073" x2="94.9437" y2="70.8263" gradientUnits="userSpaceOnUse">
<stop stop-color="#1E4E4E"/>
<stop offset="1" stop-color="#1F2431"/>
</linearGradient>
<linearGradient id="paint13_linear_423_160066" x1="95.9273" y1="55.5633" x2="96.12" y2="18.8506" gradientUnits="userSpaceOnUse">
<stop stop-color="#1E4E4E"/>
<stop offset="1" stop-color="#1F2431"/>
</linearGradient>
<linearGradient id="paint14_linear_423_160066" x1="94.2644" y1="47.9946" x2="94.3481" y2="41.1162" gradientUnits="userSpaceOnUse">
<stop stop-color="#89E159"/>
<stop offset="1" stop-color="#B9F598"/>
</linearGradient>
<linearGradient id="paint15_linear_423_160066" x1="93.8225" y1="18.8506" x2="93.3749" y2="39.7949" gradientUnits="userSpaceOnUse">
<stop stop-color="#89E159"/>
<stop offset="1" stop-color="#B9F598"/>
</linearGradient>
<linearGradient id="paint16_linear_423_160066" x1="94.6473" y1="43.3739" x2="94.6447" y2="33.0781" gradientUnits="userSpaceOnUse">
<stop stop-color="#1E4E4E"/>
<stop offset="1" stop-color="#1F2431"/>
</linearGradient>
<linearGradient id="paint17_linear_423_160066" x1="94.6706" y1="38.2326" x2="90.8598" y2="19.408" gradientUnits="userSpaceOnUse">
<stop stop-color="#1E4E4E"/>
<stop offset="1" stop-color="#1F2431"/>
</linearGradient>
<linearGradient id="paint18_linear_423_160066" x1="92.4958" y1="23.6117" x2="92.9979" y2="5.0362" gradientUnits="userSpaceOnUse">
<stop stop-color="#1F2431"/>
<stop offset="1" stop-color="#1E4E4E"/>
</linearGradient>
<linearGradient id="paint19_linear_423_160066" x1="94.3478" y1="29.9096" x2="94.9199" y2="4.82739" gradientUnits="userSpaceOnUse">
<stop stop-color="#1F2431"/>
<stop offset="1" stop-color="#1E4E4E"/>
</linearGradient>
</defs>
</svg>
