<svg width="85" height="76" viewBox="0 0 85 76" fill="none" xmlns="http://www.w3.org/2000/svg">
<g clip-path="url(#clip0_578_45207)">
<path d="M63.1886 12.0719C56.9472 8.40984 46.8471 1.61502 32.6998 10.4041C30.6193 7.61389 24.8048 5.38797 19.3956 8.73617C12.634 12.9214 8.7262 17.8284 6.64572 20.9673C4.56524 24.1063 -12.4344 58.2184 17.7326 67.1121C41.8662 74.227 60.2048 70.011 65.406 66.0001C72.3409 62.338 82.0363 56.2355 82.0363 43.2057C82.0363 30.176 75.1516 9.97931 63.1886 12.0719Z" fill="#F68561"/>
<path d="M63.1886 12.0719C56.9472 8.40984 46.8471 1.61502 32.6998 10.4041C30.6193 7.61389 24.8048 5.38797 19.3956 8.73617C12.634 12.9214 8.7262 17.8284 6.64572 20.9673C4.56524 24.1063 -12.4344 58.2184 17.7326 67.1121C41.8662 74.227 60.2048 70.011 65.406 66.0001C72.3409 62.338 82.0363 56.2355 82.0363 43.2057C82.0363 30.176 75.1516 9.97931 63.1886 12.0719Z" stroke="#F68561"/>
<path d="M39.1034 13.7052C38.3502 19.1146 40.3086 19.1953 42.1588 19.1373C46.5593 18.229 46.4118 16.0849 45.5882 14.0607L42.8363 6.44796L40.4667 0.000601762C40.1112 2.11349 39.8852 8.08987 39.1034 13.7052Z" fill="url(#paint0_linear_578_45207)" stroke="url(#paint1_linear_578_45207)"/>
<path d="M37.669 16.3003C39.9326 19.3493 40.8757 20.3134 42.5277 19.508C46.1445 16.8785 45.1902 14.9839 43.6236 13.4426L38.0092 7.57599L33.2184 2.62344C33.7533 4.72599 34.275 11.7287 37.669 16.3003Z" fill="#1E4E4E" stroke="#1E4E4E"/>
<path d="M41.6969 18.5988C38.1281 16.1318 41.8505 7.90986 58.7543 2.2168C55.7485 9.04847 44.1377 20.6863 41.6969 18.5988Z" fill="url(#paint2_linear_578_45207)" stroke="url(#paint3_linear_578_45207)"/>
<path d="M35.9713 11.1974C41.0347 10.4784 42.8101 15.6505 42.5131 17.9523C37.1323 19.7317 39.5143 17.465 36.8653 16.1281C34.2104 14.7882 32.9174 17.4068 32.6227 18.6439L30.731 23.2146L29.9902 20.4924L29.8753 18.8361C29.9818 17.0798 30.908 11.9165 35.9713 11.1974Z" fill="#1F2431"/>
<path d="M35.9713 11.1974C41.0347 10.4784 42.8101 15.6505 42.5131 17.9523C37.1323 19.7317 39.5143 17.465 36.8653 16.1281C34.2104 14.7882 32.9174 17.4068 32.6227 18.6439L30.731 23.2146L29.9902 20.4924L29.8753 18.8361C29.9818 17.0798 30.908 11.9165 35.9713 11.1974Z" fill="url(#paint4_linear_578_45207)"/>
<path d="M35.9713 11.1974C41.0347 10.4784 42.8101 15.6505 42.5131 17.9523C37.1323 19.7317 39.5143 17.465 36.8653 16.1281C34.2104 14.7882 32.9174 17.4068 32.6227 18.6439L30.731 23.2146L29.9902 20.4924L29.8753 18.8361C29.9818 17.0798 30.908 11.9165 35.9713 11.1974Z" stroke="#1F2431"/>
<path d="M35.9713 11.1974C41.0347 10.4784 42.8101 15.6505 42.5131 17.9523C37.1323 19.7317 39.5143 17.465 36.8653 16.1281C34.2104 14.7882 32.9174 17.4068 32.6227 18.6439L30.731 23.2146L29.9902 20.4924L29.8753 18.8361C29.9818 17.0798 30.908 11.9165 35.9713 11.1974Z" stroke="url(#paint5_linear_578_45207)"/>
<path d="M47.1464 11.6566C42.3535 11.3101 40.6533 16.6817 41.0814 18.8477C43.7556 19.5563 47.0922 17.4362 46.0439 15.5287C44.9963 13.6227 51.2014 16.033 51.558 17.1882L52.661 19.4008L53.2122 16.635L53.2121 14.9756C52.9981 13.315 51.9393 12.0032 47.1464 11.6566Z" fill="#1F2431"/>
<path d="M47.1464 11.6566C42.3535 11.3101 40.6533 16.6817 41.0814 18.8477C43.7556 19.5563 47.0922 17.4362 46.0439 15.5287C44.9963 13.6227 51.2014 16.033 51.558 17.1882L52.661 19.4008L53.2122 16.635L53.2121 14.9756C52.9981 13.315 51.9393 12.0032 47.1464 11.6566Z" fill="url(#paint6_linear_578_45207)"/>
<path d="M47.1464 11.6566C42.3535 11.3101 40.6533 16.6817 41.0814 18.8477C43.7556 19.5563 47.0922 17.4362 46.0439 15.5287C44.9963 13.6227 51.2014 16.033 51.558 17.1882L52.661 19.4008L53.2122 16.635L53.2121 14.9756C52.9981 13.315 51.9393 12.0032 47.1464 11.6566Z" stroke="#1F2431"/>
<path d="M47.1464 11.6566C42.3535 11.3101 40.6533 16.6817 41.0814 18.8477C43.7556 19.5563 47.0922 17.4362 46.0439 15.5287C44.9963 13.6227 51.2014 16.033 51.558 17.1882L52.661 19.4008L53.2122 16.635L53.2121 14.9756C52.9981 13.315 51.9393 12.0032 47.1464 11.6566Z" stroke="url(#paint7_linear_578_45207)"/>
<path d="M13.3329 33.6889C11.8202 40.7999 9.78966 45.1089 7.5788 44.639C5.36793 44.169 4.54572 39.166 6.05842 32.055C7.57113 24.944 12.6409 18.3163 15.8637 20.5276C19.0864 22.7389 14.8456 26.578 13.3329 33.6889Z" fill="#D9D9D9"/>
<path d="M68.5261 48.9689C74.0047 44.3753 75.8417 30.1928 77.3926 32.0411C79.4033 34.4374 83.4585 41.626 74.3449 55.0443C61.1804 73.4562 29.2769 67.8313 26.4688 64.4847C23.6607 61.1382 51.2468 66.2068 68.5261 48.9689Z" fill="#8990A5"/>
</g>
<defs>
<linearGradient id="paint0_linear_578_45207" x1="41.1668" y1="0.0990016" x2="48.3468" y2="1.34992" gradientUnits="userSpaceOnUse">
<stop stop-color="#89E159"/>
<stop offset="1" stop-color="#B9F598"/>
</linearGradient>
<linearGradient id="paint1_linear_578_45207" x1="41.1668" y1="0.0990016" x2="48.3468" y2="1.34992" gradientUnits="userSpaceOnUse">
<stop stop-color="#89E159"/>
<stop offset="1" stop-color="#B9F598"/>
</linearGradient>
<linearGradient id="paint2_linear_578_45207" x1="42.1392" y1="2.2168" x2="59.1855" y2="3.7733" gradientUnits="userSpaceOnUse">
<stop stop-color="#89E159"/>
<stop offset="1" stop-color="#B9F598"/>
</linearGradient>
<linearGradient id="paint3_linear_578_45207" x1="42.1392" y1="2.2168" x2="59.1855" y2="3.7733" gradientUnits="userSpaceOnUse">
<stop stop-color="#89E159"/>
<stop offset="1" stop-color="#B9F598"/>
</linearGradient>
<linearGradient id="paint4_linear_578_45207" x1="39.59" y1="22.5951" x2="30.8682" y2="17.5065" gradientUnits="userSpaceOnUse">
<stop stop-color="#1E4E4E"/>
<stop offset="1" stop-color="#1F2431"/>
</linearGradient>
<linearGradient id="paint5_linear_578_45207" x1="39.59" y1="22.5951" x2="30.8682" y2="17.5065" gradientUnits="userSpaceOnUse">
<stop stop-color="#1E4E4E"/>
<stop offset="1" stop-color="#1F2431"/>
</linearGradient>
<linearGradient id="paint6_linear_578_45207" x1="44.1911" y1="19.4008" x2="50.1732" y2="13.5592" gradientUnits="userSpaceOnUse">
<stop stop-color="#1E4E4E"/>
<stop offset="1" stop-color="#1F2431"/>
</linearGradient>
<linearGradient id="paint7_linear_578_45207" x1="44.1911" y1="19.4008" x2="50.1732" y2="13.5592" gradientUnits="userSpaceOnUse">
<stop stop-color="#1E4E4E"/>
<stop offset="1" stop-color="#1F2431"/>
</linearGradient>
<clipPath id="clip0_578_45207">
<rect width="87.9995" height="76" fill="white"/>
</clipPath>
</defs>
</svg>
