<svg width="88" height="76" viewBox="0 0 88 76" fill="none" xmlns="http://www.w3.org/2000/svg">
<g clip-path="url(#clip0_578_45327)">
<path d="M63.1888 12.072C56.9474 8.40985 46.8472 1.61501 32.6999 10.4041C30.6194 7.61389 24.8049 5.38797 19.3957 8.73618C12.6341 12.9214 8.72623 17.8284 6.64574 20.9674C4.56525 24.1063 -12.4345 58.2186 17.7326 67.1122C41.8663 74.2272 60.205 70.0112 65.4062 66.0003C72.3412 62.3382 82.0365 56.2356 82.0365 43.2059C82.0365 30.1761 75.1518 9.97932 63.1888 12.072Z" fill="url(#paint0_linear_578_45327)" stroke="#89E159"/>
<path d="M39.1048 13.7052C38.3517 19.1147 40.31 19.1953 42.1603 19.1373C46.5608 18.229 46.4133 16.0849 45.5897 14.0608L42.8378 6.44798L40.4681 0.000601764C40.1126 2.1135 39.8866 8.08989 39.1048 13.7052Z" fill="#1F2431"/>
<path d="M39.1048 13.7052C38.3517 19.1147 40.31 19.1953 42.1603 19.1373C46.5608 18.229 46.4133 16.0849 45.5897 14.0608L42.8378 6.44798L40.4681 0.000601764C40.1126 2.1135 39.8866 8.08989 39.1048 13.7052Z" fill="url(#paint1_linear_578_45327)"/>
<path d="M39.1048 13.7052C38.3517 19.1147 40.31 19.1953 42.1603 19.1373C46.5608 18.229 46.4133 16.0849 45.5897 14.0608L42.8378 6.44798L40.4681 0.000601764C40.1126 2.1135 39.8866 8.08989 39.1048 13.7052Z" stroke="#1F2431"/>
<path d="M39.1048 13.7052C38.3517 19.1147 40.31 19.1953 42.1603 19.1373C46.5608 18.229 46.4133 16.0849 45.5897 14.0608L42.8378 6.44798L40.4681 0.000601764C40.1126 2.1135 39.8866 8.08989 39.1048 13.7052Z" stroke="url(#paint2_linear_578_45327)"/>
<path d="M37.6702 16.3003C39.9338 19.3493 40.8769 20.3135 42.529 19.508C46.1457 16.8785 45.1915 14.9839 43.6248 13.4426L38.0104 7.576L33.2197 2.62344C33.7545 4.726 34.2762 11.7287 37.6702 16.3003Z" fill="#1E4E4E" stroke="#1E4E4E"/>
<path d="M41.6984 18.5989C38.1296 16.1319 41.852 7.90988 58.7558 2.2168C55.75 9.04849 44.1392 20.6863 41.6984 18.5989Z" fill="#1E4E4E" stroke="#1E4E4E"/>
<path d="M35.9728 11.1974C41.0362 10.4784 42.8116 15.6505 42.5146 17.9524C37.1338 19.7317 39.5158 17.465 36.8668 16.1281C34.2118 14.7882 32.9188 17.4068 32.6242 18.644L30.7325 23.2146L29.9916 20.4925L29.8768 18.8361C29.9833 17.0798 30.9095 11.9165 35.9728 11.1974Z" fill="#1F2431"/>
<path d="M35.9728 11.1974C41.0362 10.4784 42.8116 15.6505 42.5146 17.9524C37.1338 19.7317 39.5158 17.465 36.8668 16.1281C34.2118 14.7882 32.9188 17.4068 32.6242 18.644L30.7325 23.2146L29.9916 20.4925L29.8768 18.8361C29.9833 17.0798 30.9095 11.9165 35.9728 11.1974Z" fill="url(#paint3_linear_578_45327)"/>
<path d="M35.9728 11.1974C41.0362 10.4784 42.8116 15.6505 42.5146 17.9524C37.1338 19.7317 39.5158 17.465 36.8668 16.1281C34.2118 14.7882 32.9188 17.4068 32.6242 18.644L30.7325 23.2146L29.9916 20.4925L29.8768 18.8361C29.9833 17.0798 30.9095 11.9165 35.9728 11.1974Z" stroke="#1F2431"/>
<path d="M35.9728 11.1974C41.0362 10.4784 42.8116 15.6505 42.5146 17.9524C37.1338 19.7317 39.5158 17.465 36.8668 16.1281C34.2118 14.7882 32.9188 17.4068 32.6242 18.644L30.7325 23.2146L29.9916 20.4925L29.8768 18.8361C29.9833 17.0798 30.9095 11.9165 35.9728 11.1974Z" stroke="url(#paint4_linear_578_45327)"/>
<path d="M47.1464 11.6566C42.3535 11.3101 40.6533 16.6817 41.0813 18.8477C43.7555 19.5563 47.0922 17.4362 46.0438 15.5287C44.9962 13.6227 51.2014 16.033 51.558 17.1882L52.661 19.4008L53.2122 16.635L53.2121 14.9756C52.9981 13.315 51.9393 12.0032 47.1464 11.6566Z" fill="#1F2431"/>
<path d="M47.1464 11.6566C42.3535 11.3101 40.6533 16.6817 41.0813 18.8477C43.7555 19.5563 47.0922 17.4362 46.0438 15.5287C44.9962 13.6227 51.2014 16.033 51.558 17.1882L52.661 19.4008L53.2122 16.635L53.2121 14.9756C52.9981 13.315 51.9393 12.0032 47.1464 11.6566Z" fill="url(#paint5_linear_578_45327)"/>
<path d="M47.1464 11.6566C42.3535 11.3101 40.6533 16.6817 41.0813 18.8477C43.7555 19.5563 47.0922 17.4362 46.0438 15.5287C44.9962 13.6227 51.2014 16.033 51.558 17.1882L52.661 19.4008L53.2122 16.635L53.2121 14.9756C52.9981 13.315 51.9393 12.0032 47.1464 11.6566Z" stroke="#1F2431"/>
<path d="M47.1464 11.6566C42.3535 11.3101 40.6533 16.6817 41.0813 18.8477C43.7555 19.5563 47.0922 17.4362 46.0438 15.5287C44.9962 13.6227 51.2014 16.033 51.558 17.1882L52.661 19.4008L53.2122 16.635L53.2121 14.9756C52.9981 13.315 51.9393 12.0032 47.1464 11.6566Z" stroke="url(#paint6_linear_578_45327)"/>
<path d="M13.3347 33.69C11.822 40.8009 9.79137 45.11 7.5805 44.64C5.36963 44.1701 4.54741 39.167 6.06012 32.056C7.57283 24.945 12.6427 18.3173 15.8654 20.5286C19.0882 22.7399 14.8474 26.579 13.3347 33.69Z" fill="#D9D9D9"/>
<path d="M68.5264 48.9698C74.0051 44.3761 75.8421 30.1936 77.393 32.0419C79.4037 34.4382 83.4588 41.6268 74.3452 55.0452C61.1807 73.4571 29.2771 67.8322 26.469 64.4857C23.6609 61.1391 51.247 66.2077 68.5264 48.9698Z" fill="#8990A5"/>
</g>
<defs>
<linearGradient id="paint0_linear_578_45327" x1="63.7446" y1="68.7336" x2="6.65355" y2="48.6627" gradientUnits="userSpaceOnUse">
<stop stop-color="#89E159"/>
<stop offset="1" stop-color="#B9F598"/>
</linearGradient>
<linearGradient id="paint1_linear_578_45327" x1="43.5503" y1="19.4652" x2="36.8814" y2="16.7325" gradientUnits="userSpaceOnUse">
<stop stop-color="#1E4E4E"/>
<stop offset="1" stop-color="#1F2431"/>
</linearGradient>
<linearGradient id="paint2_linear_578_45327" x1="43.5503" y1="19.4652" x2="36.8814" y2="16.7325" gradientUnits="userSpaceOnUse">
<stop stop-color="#1E4E4E"/>
<stop offset="1" stop-color="#1F2431"/>
</linearGradient>
<linearGradient id="paint3_linear_578_45327" x1="39.5915" y1="22.5952" x2="30.8696" y2="17.5065" gradientUnits="userSpaceOnUse">
<stop stop-color="#1E4E4E"/>
<stop offset="1" stop-color="#1F2431"/>
</linearGradient>
<linearGradient id="paint4_linear_578_45327" x1="39.5915" y1="22.5952" x2="30.8696" y2="17.5065" gradientUnits="userSpaceOnUse">
<stop stop-color="#1E4E4E"/>
<stop offset="1" stop-color="#1F2431"/>
</linearGradient>
<linearGradient id="paint5_linear_578_45327" x1="44.1911" y1="19.4008" x2="50.1732" y2="13.5592" gradientUnits="userSpaceOnUse">
<stop stop-color="#1E4E4E"/>
<stop offset="1" stop-color="#1F2431"/>
</linearGradient>
<linearGradient id="paint6_linear_578_45327" x1="44.1911" y1="19.4008" x2="50.1732" y2="13.5592" gradientUnits="userSpaceOnUse">
<stop stop-color="#1E4E4E"/>
<stop offset="1" stop-color="#1F2431"/>
</linearGradient>
<clipPath id="clip0_578_45327">
<rect width="88" height="76" fill="white"/>
</clipPath>
</defs>
</svg>
