<svg width="70" height="70" viewBox="0 0 70 70" fill="none" xmlns="http://www.w3.org/2000/svg">
<rect width="70" height="70" fill="#89E159"/>
<path d="M36.3319 30.6332C36.3344 28.3968 37.559 26.3309 39.5463 25.2107L49.2043 19.7671C49.7771 19.4442 50.4938 19.8472 50.4932 20.4918L50.4815 31.3595C50.4791 33.5958 49.2544 35.6617 47.267 36.7819L37.6092 42.2256C37.0363 42.5485 36.3196 42.1454 36.3203 41.5008L36.3319 30.6332Z" fill="white"/>
<path d="M32.0294 10.8371C34.0191 9.72097 36.4684 9.72097 38.4583 10.8371L48.1277 16.2611C48.7013 16.5828 48.7013 17.3889 48.1277 17.7106L38.4583 23.1346C36.4684 24.2506 34.0191 24.2506 32.0294 23.1346L22.3598 17.7106C21.7863 17.3889 21.7863 16.5828 22.3598 16.2611L32.0294 10.8371Z" fill="white"/>
<path d="M20.0117 31.3595C20.0141 33.5958 21.2388 35.6617 23.2261 36.7819L32.884 42.2256C33.4569 42.5485 34.1736 42.1454 34.1729 41.5008L34.1612 30.6332C34.1588 28.3968 32.9342 26.3309 30.9468 25.2107L21.2889 19.7671C20.7161 19.4442 19.9993 19.8472 20 20.4918L20.0117 31.3595Z" fill="white"/>
<path d="M36.3319 49.0862C36.3344 46.8499 37.559 44.784 39.5463 43.6638L49.2043 38.2202C49.7771 37.8973 50.4938 38.3003 50.4932 38.9449L50.4815 49.8125C50.4791 52.0489 49.2544 54.1147 47.267 55.2349L37.6092 60.6786C37.0363 61.0015 36.3196 60.5985 36.3203 59.9539L36.3319 49.0862Z" fill="white"/>
<path d="M20.0117 49.8125C20.0141 52.0489 21.2388 54.1147 23.2261 55.2349L32.884 60.6786C33.4569 61.0015 34.1736 60.5985 34.1729 59.9539L34.1612 49.0862C34.1588 46.8499 32.9342 44.784 30.9468 43.6638L21.2889 38.2202C20.7161 37.8973 19.9993 38.3003 20 38.9449L20.0117 49.8125Z" fill="white"/>
</svg>
