<svg width="249" height="241" viewBox="0 0 249 241" fill="none" xmlns="http://www.w3.org/2000/svg">
<rect x="78.5" y="86.5" width="92" height="92" rx="19.5" fill="#1F2431"/>
<rect x="78.5" y="86.5" width="92" height="92" rx="19.5" fill="url(#paint0_linear_234_123158)"/>
<rect x="105.5" y="122.5" width="3" height="32" rx="1.5" transform="rotate(-90 105.5 122.5)" fill="#1F2431"/>
<rect x="105.5" y="122.5" width="3" height="32" rx="1.5" transform="rotate(-90 105.5 122.5)" fill="url(#paint1_linear_234_123158)"/>
<rect x="105.5" y="122.5" width="3" height="32" rx="1.5" transform="rotate(-90 105.5 122.5)" stroke="#89E159"/>
<rect x="105.5" y="131.5" width="3" height="32" rx="1.5" transform="rotate(-90 105.5 131.5)" fill="#1F2431"/>
<rect x="105.5" y="131.5" width="3" height="32" rx="1.5" transform="rotate(-90 105.5 131.5)" fill="url(#paint2_linear_234_123158)"/>
<rect x="105.5" y="131.5" width="3" height="32" rx="1.5" transform="rotate(-90 105.5 131.5)" stroke="#89E159"/>
<rect x="105.5" y="140.5" width="3" height="32" rx="1.5" transform="rotate(-90 105.5 140.5)" fill="#1F2431"/>
<rect x="105.5" y="140.5" width="3" height="32" rx="1.5" transform="rotate(-90 105.5 140.5)" fill="url(#paint3_linear_234_123158)"/>
<rect x="105.5" y="140.5" width="3" height="32" rx="1.5" transform="rotate(-90 105.5 140.5)" stroke="#89E159"/>
<circle cx="108" cy="111" r="2.5" fill="#1F2431"/>
<circle cx="108" cy="111" r="2.5" fill="url(#paint4_linear_234_123158)"/>
<circle cx="108" cy="111" r="2.5" stroke="#89E159"/>
<circle cx="114" cy="111" r="2.5" fill="#1F2431"/>
<circle cx="114" cy="111" r="2.5" fill="url(#paint5_linear_234_123158)"/>
<circle cx="114" cy="111" r="2.5" stroke="#89E159"/>
<circle cx="119" cy="111" r="2.5" fill="#1F2431"/>
<circle cx="119" cy="111" r="2.5" fill="url(#paint6_linear_234_123158)"/>
<circle cx="119" cy="111" r="2.5" stroke="#89E159"/>
<rect x="78.5" y="86.5" width="92" height="92" rx="19.5" stroke="#89E159"/>
<rect x="92.5" y="0.5" width="64" height="64" rx="7.5" fill="#1F2431"/>
<rect x="92.5" y="0.5" width="64" height="64" rx="7.5" fill="url(#paint7_linear_234_123158)"/>
<rect x="92.5" y="0.5" width="64" height="64" rx="7.5" stroke="#89E159"/>
<mask id="path-9-inside-1_234_123158" fill="white">
<path d="M115 65H135V86H115V65Z"/>
</mask>
<path d="M115 65H135V86H115V65Z" fill="#1F2431"/>
<path d="M115 65H135V86H115V65Z" fill="url(#paint8_linear_234_123158)"/>
<path d="M134 65V86H136V65H134ZM116 86V65H114V86H116Z" fill="#89E159" mask="url(#path-9-inside-1_234_123158)"/>
<mask id="path-11-inside-2_234_123158" fill="white">
<path d="M98 179H118V209H98V179Z"/>
</mask>
<path d="M98 179H118V209H98V179Z" fill="#1F2431"/>
<path d="M98 179H118V209H98V179Z" fill="url(#paint9_linear_234_123158)"/>
<path d="M117 179V209H119V179H117ZM99 209V179H97V209H99Z" fill="#89E159" mask="url(#path-11-inside-2_234_123158)"/>
<mask id="path-13-inside-3_234_123158" fill="white">
<path d="M131 179H151V209H131V179Z"/>
</mask>
<path d="M131 179H151V209H131V179Z" fill="#1F2431"/>
<path d="M131 179H151V209H131V179Z" fill="url(#paint10_linear_234_123158)"/>
<path d="M150 179V209H152V179H150ZM132 209V179H130V209H132Z" fill="#89E159" mask="url(#path-13-inside-3_234_123158)"/>
<circle cx="124.5" cy="29.5" r="16" fill="#8990A5" stroke="#89E159"/>
<circle cx="124.5" cy="29.5" r="11" fill="#89E159" stroke="#89E159"/>
<path d="M108 50C120 57.9039 128.815 58.0955 141 50" stroke="#89E159" stroke-width="2"/>
<rect x="91.5" y="209.5" width="67" height="23" rx="7.5" fill="#1F2431"/>
<rect x="91.5" y="209.5" width="67" height="23" rx="7.5" fill="url(#paint11_linear_234_123158)"/>
<rect x="91.5" y="209.5" width="67" height="23" rx="7.5" stroke="#89E159"/>
<circle cx="109" cy="233" r="7.5" fill="#1F2431"/>
<circle cx="109" cy="233" r="7.5" fill="url(#paint12_linear_234_123158)"/>
<circle cx="109" cy="233" r="7.5" stroke="#89E159"/>
<circle cx="108.5" cy="232.5" r="5" fill="#1F2431"/>
<circle cx="108.5" cy="232.5" r="5" fill="url(#paint13_linear_234_123158)"/>
<circle cx="108.5" cy="232.5" r="5" stroke="#89E159"/>
<circle cx="125" cy="233" r="7.5" fill="#1F2431"/>
<circle cx="125" cy="233" r="7.5" fill="url(#paint14_linear_234_123158)"/>
<circle cx="125" cy="233" r="7.5" stroke="#89E159"/>
<circle cx="124.5" cy="232.5" r="5" fill="#1F2431"/>
<circle cx="124.5" cy="232.5" r="5" fill="url(#paint15_linear_234_123158)"/>
<circle cx="124.5" cy="232.5" r="5" stroke="#89E159"/>
<circle cx="140" cy="233" r="7.5" fill="#1F2431"/>
<circle cx="140" cy="233" r="7.5" fill="url(#paint16_linear_234_123158)"/>
<circle cx="140" cy="233" r="7.5" stroke="#89E159"/>
<circle cx="139.5" cy="232.5" r="5" fill="#1F2431"/>
<circle cx="139.5" cy="232.5" r="5" fill="url(#paint17_linear_234_123158)"/>
<circle cx="139.5" cy="232.5" r="5" stroke="#89E159"/>
<rect x="172.5" y="118.5" width="16" height="60" rx="3.5" transform="rotate(-90 172.5 118.5)" fill="#1F2431"/>
<rect x="172.5" y="118.5" width="16" height="60" rx="3.5" transform="rotate(-90 172.5 118.5)" fill="url(#paint18_linear_234_123158)"/>
<rect x="172.5" y="118.5" width="16" height="60" rx="3.5" transform="rotate(-90 172.5 118.5)" stroke="#89E159"/>
<rect x="216.5" y="67.5" width="15" height="43" rx="3.5" fill="#1F2431"/>
<rect x="216.5" y="67.5" width="15" height="43" rx="3.5" fill="url(#paint19_linear_234_123158)"/>
<rect x="216.5" y="67.5" width="15" height="43" rx="3.5" stroke="#89E159"/>
<circle cx="172" cy="112" r="14.5" fill="#1F2431"/>
<circle cx="172" cy="112" r="14.5" fill="url(#paint20_linear_234_123158)"/>
<circle cx="172" cy="112" r="14.5" stroke="#89E159"/>
<circle cx="172.5" cy="112.5" r="10" fill="#1F2431"/>
<circle cx="172.5" cy="112.5" r="10" fill="url(#paint21_linear_234_123158)"/>
<circle cx="172.5" cy="112.5" r="10" stroke="#89E159"/>
<path d="M233.5 110C233.5 115.821 229.001 120.5 223.5 120.5C217.999 120.5 213.5 115.821 213.5 110C213.5 104.179 217.999 99.5 223.5 99.5C229.001 99.5 233.5 104.179 233.5 110Z" fill="#1F2431"/>
<path d="M233.5 110C233.5 115.821 229.001 120.5 223.5 120.5C217.999 120.5 213.5 115.821 213.5 110C213.5 104.179 217.999 99.5 223.5 99.5C229.001 99.5 233.5 104.179 233.5 110Z" fill="url(#paint22_linear_234_123158)"/>
<path d="M233.5 110C233.5 115.821 229.001 120.5 223.5 120.5C217.999 120.5 213.5 115.821 213.5 110C213.5 104.179 217.999 99.5 223.5 99.5C229.001 99.5 233.5 104.179 233.5 110Z" stroke="#89E159"/>
<circle cx="223.5" cy="109.5" r="7" fill="#1F2431"/>
<circle cx="223.5" cy="109.5" r="7" fill="url(#paint23_linear_234_123158)"/>
<circle cx="223.5" cy="109.5" r="7" stroke="#89E159"/>
<path d="M200.889 59.6842C196.722 46.5474 208.163 36.0789 215.463 33C213.895 41.8065 214.422 45.3158 215.463 50.4474C216.755 56.8123 235.256 56.6053 236.298 50.4474C237.34 44.2895 237.895 41.8065 236.298 33C241.854 37.4474 249.458 46.3225 247.757 59.6842C245.668 76.1053 206.097 76.1053 200.889 59.6842Z" fill="#1F2431"/>
<path d="M200.889 59.6842C196.722 46.5474 208.163 36.0789 215.463 33C213.895 41.8065 214.422 45.3158 215.463 50.4474C216.755 56.8123 235.256 56.6053 236.298 50.4474C237.34 44.2895 237.895 41.8065 236.298 33C241.854 37.4474 249.458 46.3225 247.757 59.6842C245.668 76.1053 206.097 76.1053 200.889 59.6842Z" fill="url(#paint24_linear_234_123158)"/>
<path d="M200.889 59.6842C196.722 46.5474 208.163 36.0789 215.463 33C213.895 41.8065 214.422 45.3158 215.463 50.4474C216.755 56.8123 235.256 56.6053 236.298 50.4474C237.34 44.2895 237.895 41.8065 236.298 33C241.854 37.4474 249.458 46.3225 247.757 59.6842C245.668 76.1053 206.097 76.1053 200.889 59.6842Z" stroke="#89E159"/>
<rect x="-0.5" y="-0.5" width="16" height="60" rx="3.5" transform="matrix(0 -1 -1 0 75.9995 118)" fill="#1F2431"/>
<rect x="-0.5" y="-0.5" width="16" height="60" rx="3.5" transform="matrix(0 -1 -1 0 75.9995 118)" fill="url(#paint25_linear_234_123158)"/>
<rect x="-0.5" y="-0.5" width="16" height="60" rx="3.5" transform="matrix(0 -1 -1 0 75.9995 118)" stroke="#89E159"/>
<rect x="-0.5" y="0.5" width="15" height="43" rx="3.5" transform="matrix(-1 0 0 1 31.9995 67)" fill="#1F2431"/>
<rect x="-0.5" y="0.5" width="15" height="43" rx="3.5" transform="matrix(-1 0 0 1 31.9995 67)" fill="url(#paint26_linear_234_123158)"/>
<rect x="-0.5" y="0.5" width="15" height="43" rx="3.5" transform="matrix(-1 0 0 1 31.9995 67)" stroke="#89E159"/>
<circle cx="15" cy="15" r="14.5" transform="matrix(-1 0 0 1 92 97)" fill="#1F2431"/>
<circle cx="15" cy="15" r="14.5" transform="matrix(-1 0 0 1 92 97)" fill="url(#paint27_linear_234_123158)"/>
<circle cx="15" cy="15" r="14.5" transform="matrix(-1 0 0 1 92 97)" stroke="#89E159"/>
<circle cx="10.5" cy="10.5" r="10" transform="matrix(-1 0 0 1 87 102)" fill="#1F2431"/>
<circle cx="10.5" cy="10.5" r="10" transform="matrix(-1 0 0 1 87 102)" fill="url(#paint28_linear_234_123158)"/>
<circle cx="10.5" cy="10.5" r="10" transform="matrix(-1 0 0 1 87 102)" stroke="#89E159"/>
<path d="M15.5 110C15.5 115.821 19.9988 120.5 25.5 120.5C31.0012 120.5 35.5 115.821 35.5 110C35.5 104.179 31.0012 99.5 25.5 99.5C19.9988 99.5 15.5 104.179 15.5 110Z" fill="#1F2431"/>
<path d="M15.5 110C15.5 115.821 19.9988 120.5 25.5 120.5C31.0012 120.5 35.5 115.821 35.5 110C35.5 104.179 31.0012 99.5 25.5 99.5C19.9988 99.5 15.5 104.179 15.5 110Z" fill="url(#paint29_linear_234_123158)"/>
<path d="M15.5 110C15.5 115.821 19.9988 120.5 25.5 120.5C31.0012 120.5 35.5 115.821 35.5 110C35.5 104.179 31.0012 99.5 25.5 99.5C19.9988 99.5 15.5 104.179 15.5 110Z" stroke="#89E159"/>
<circle cx="7.5" cy="7.5" r="7" transform="matrix(-1 0 0 1 33 102)" fill="#1F2431"/>
<circle cx="7.5" cy="7.5" r="7" transform="matrix(-1 0 0 1 33 102)" fill="url(#paint30_linear_234_123158)"/>
<circle cx="7.5" cy="7.5" r="7" transform="matrix(-1 0 0 1 33 102)" stroke="#89E159"/>
<path d="M48.1115 59.6842C52.2784 46.5474 40.8373 36.0789 33.5367 33C35.1053 41.8065 34.5785 45.3158 33.5367 50.4474C32.2446 56.8123 13.7437 56.6053 12.702 50.4474C11.6603 44.2895 11.1053 41.8065 12.702 33C7.14608 37.4474 -0.457809 46.3225 1.24253 59.6842C3.3322 76.1053 42.9028 76.1053 48.1115 59.6842Z" fill="#1F2431"/>
<path d="M48.1115 59.6842C52.2784 46.5474 40.8373 36.0789 33.5367 33C35.1053 41.8065 34.5785 45.3158 33.5367 50.4474C32.2446 56.8123 13.7437 56.6053 12.702 50.4474C11.6603 44.2895 11.1053 41.8065 12.702 33C7.14608 37.4474 -0.457809 46.3225 1.24253 59.6842C3.3322 76.1053 42.9028 76.1053 48.1115 59.6842Z" fill="url(#paint31_linear_234_123158)"/>
<path d="M48.1115 59.6842C52.2784 46.5474 40.8373 36.0789 33.5367 33C35.1053 41.8065 34.5785 45.3158 33.5367 50.4474C32.2446 56.8123 13.7437 56.6053 12.702 50.4474C11.6603 44.2895 11.1053 41.8065 12.702 33C7.14608 37.4474 -0.457809 46.3225 1.24253 59.6842C3.3322 76.1053 42.9028 76.1053 48.1115 59.6842Z" stroke="#89E159"/>
<defs>
<linearGradient id="paint0_linear_234_123158" x1="146.8" y1="179" x2="82.501" y2="139.046" gradientUnits="userSpaceOnUse">
<stop stop-color="#1E4E4E"/>
<stop offset="1" stop-color="#1F2431"/>
</linearGradient>
<linearGradient id="paint1_linear_234_123158" x1="107.959" y1="156" x2="104.147" y2="155.713" gradientUnits="userSpaceOnUse">
<stop stop-color="#1E4E4E"/>
<stop offset="1" stop-color="#1F2431"/>
</linearGradient>
<linearGradient id="paint2_linear_234_123158" x1="107.959" y1="165" x2="104.147" y2="164.713" gradientUnits="userSpaceOnUse">
<stop stop-color="#1E4E4E"/>
<stop offset="1" stop-color="#1F2431"/>
</linearGradient>
<linearGradient id="paint3_linear_234_123158" x1="107.959" y1="174" x2="104.147" y2="173.713" gradientUnits="userSpaceOnUse">
<stop stop-color="#1E4E4E"/>
<stop offset="1" stop-color="#1F2431"/>
</linearGradient>
<linearGradient id="paint4_linear_234_123158" x1="109.439" y1="114" x2="105.29" y2="111.422" gradientUnits="userSpaceOnUse">
<stop stop-color="#1E4E4E"/>
<stop offset="1" stop-color="#1F2431"/>
</linearGradient>
<linearGradient id="paint5_linear_234_123158" x1="115.439" y1="114" x2="111.29" y2="111.422" gradientUnits="userSpaceOnUse">
<stop stop-color="#1E4E4E"/>
<stop offset="1" stop-color="#1F2431"/>
</linearGradient>
<linearGradient id="paint6_linear_234_123158" x1="120.439" y1="114" x2="116.29" y2="111.422" gradientUnits="userSpaceOnUse">
<stop stop-color="#1E4E4E"/>
<stop offset="1" stop-color="#1F2431"/>
</linearGradient>
<linearGradient id="paint7_linear_234_123158" x1="140.086" y1="65" x2="95.1458" y2="37.0752" gradientUnits="userSpaceOnUse">
<stop stop-color="#1E4E4E"/>
<stop offset="1" stop-color="#1F2431"/>
</linearGradient>
<linearGradient id="paint8_linear_234_123158" x1="129.796" y1="86" x2="115.6" y2="77.5994" gradientUnits="userSpaceOnUse">
<stop stop-color="#1E4E4E"/>
<stop offset="1" stop-color="#1F2431"/>
</linearGradient>
<linearGradient id="paint9_linear_234_123158" x1="112.796" y1="209" x2="96.4363" y2="202.223" gradientUnits="userSpaceOnUse">
<stop stop-color="#1E4E4E"/>
<stop offset="1" stop-color="#1F2431"/>
</linearGradient>
<linearGradient id="paint10_linear_234_123158" x1="145.796" y1="209" x2="129.436" y2="202.223" gradientUnits="userSpaceOnUse">
<stop stop-color="#1E4E4E"/>
<stop offset="1" stop-color="#1F2431"/>
</linearGradient>
<linearGradient id="paint11_linear_234_123158" x1="141.305" y1="233" x2="125.409" y2="205.014" gradientUnits="userSpaceOnUse">
<stop stop-color="#1E4E4E"/>
<stop offset="1" stop-color="#1F2431"/>
</linearGradient>
<linearGradient id="paint12_linear_234_123158" x1="112.836" y1="241" x2="101.774" y2="234.126" gradientUnits="userSpaceOnUse">
<stop stop-color="#1E4E4E"/>
<stop offset="1" stop-color="#1F2431"/>
</linearGradient>
<linearGradient id="paint13_linear_234_123158" x1="111.138" y1="238" x2="103.532" y2="233.274" gradientUnits="userSpaceOnUse">
<stop stop-color="#1E4E4E"/>
<stop offset="1" stop-color="#1F2431"/>
</linearGradient>
<linearGradient id="paint14_linear_234_123158" x1="128.836" y1="241" x2="117.774" y2="234.126" gradientUnits="userSpaceOnUse">
<stop stop-color="#1E4E4E"/>
<stop offset="1" stop-color="#1F2431"/>
</linearGradient>
<linearGradient id="paint15_linear_234_123158" x1="127.138" y1="238" x2="119.532" y2="233.274" gradientUnits="userSpaceOnUse">
<stop stop-color="#1E4E4E"/>
<stop offset="1" stop-color="#1F2431"/>
</linearGradient>
<linearGradient id="paint16_linear_234_123158" x1="143.836" y1="241" x2="132.774" y2="234.126" gradientUnits="userSpaceOnUse">
<stop stop-color="#1E4E4E"/>
<stop offset="1" stop-color="#1F2431"/>
</linearGradient>
<linearGradient id="paint17_linear_234_123158" x1="142.138" y1="238" x2="134.532" y2="233.274" gradientUnits="userSpaceOnUse">
<stop stop-color="#1E4E4E"/>
<stop offset="1" stop-color="#1F2431"/>
</linearGradient>
<linearGradient id="paint18_linear_234_123158" x1="184.576" y1="180" x2="168.759" y2="177.261" gradientUnits="userSpaceOnUse">
<stop stop-color="#1E4E4E"/>
<stop offset="1" stop-color="#1F2431"/>
</linearGradient>
<linearGradient id="paint19_linear_234_123158" x1="227.836" y1="111" x2="213.248" y2="107.704" gradientUnits="userSpaceOnUse">
<stop stop-color="#1E4E4E"/>
<stop offset="1" stop-color="#1F2431"/>
</linearGradient>
<linearGradient id="paint20_linear_234_123158" x1="179.193" y1="127" x2="158.452" y2="114.112" gradientUnits="userSpaceOnUse">
<stop stop-color="#1E4E4E"/>
<stop offset="1" stop-color="#1F2431"/>
</linearGradient>
<linearGradient id="paint21_linear_234_123158" x1="177.535" y1="123" x2="163.016" y2="113.978" gradientUnits="userSpaceOnUse">
<stop stop-color="#1E4E4E"/>
<stop offset="1" stop-color="#1F2431"/>
</linearGradient>
<linearGradient id="paint22_linear_234_123158" x1="228.535" y1="121" x2="213.648" y2="112.17" gradientUnits="userSpaceOnUse">
<stop stop-color="#1E4E4E"/>
<stop offset="1" stop-color="#1F2431"/>
</linearGradient>
<linearGradient id="paint23_linear_234_123158" x1="227.097" y1="117" x2="216.726" y2="110.556" gradientUnits="userSpaceOnUse">
<stop stop-color="#1E4E4E"/>
<stop offset="1" stop-color="#1F2431"/>
</linearGradient>
<linearGradient id="paint24_linear_234_123158" x1="235.509" y1="72" x2="206.485" y2="49.8029" gradientUnits="userSpaceOnUse">
<stop stop-color="#1E4E4E"/>
<stop offset="1" stop-color="#1F2431"/>
</linearGradient>
<linearGradient id="paint25_linear_234_123158" x1="12.5763" y1="61" x2="-3.2411" y2="58.2609" gradientUnits="userSpaceOnUse">
<stop stop-color="#1E4E4E"/>
<stop offset="1" stop-color="#1F2431"/>
</linearGradient>
<linearGradient id="paint26_linear_234_123158" x1="11.8365" y1="44" x2="-2.75205" y2="40.7036" gradientUnits="userSpaceOnUse">
<stop stop-color="#1E4E4E"/>
<stop offset="1" stop-color="#1F2431"/>
</linearGradient>
<linearGradient id="paint27_linear_234_123158" x1="22.1934" y1="30" x2="1.45193" y2="17.1116" gradientUnits="userSpaceOnUse">
<stop stop-color="#1E4E4E"/>
<stop offset="1" stop-color="#1F2431"/>
</linearGradient>
<linearGradient id="paint28_linear_234_123158" x1="15.5354" y1="21" x2="1.01635" y2="11.9781" gradientUnits="userSpaceOnUse">
<stop stop-color="#1E4E4E"/>
<stop offset="1" stop-color="#1F2431"/>
</linearGradient>
<linearGradient id="paint29_linear_234_123158" x1="20.4646" y1="121" x2="35.3521" y2="112.17" gradientUnits="userSpaceOnUse">
<stop stop-color="#1E4E4E"/>
<stop offset="1" stop-color="#1F2431"/>
</linearGradient>
<linearGradient id="paint30_linear_234_123158" x1="11.0967" y1="15" x2="0.725965" y2="8.55582" gradientUnits="userSpaceOnUse">
<stop stop-color="#1E4E4E"/>
<stop offset="1" stop-color="#1F2431"/>
</linearGradient>
<linearGradient id="paint31_linear_234_123158" x1="13.4906" y1="72" x2="42.5148" y2="49.8029" gradientUnits="userSpaceOnUse">
<stop stop-color="#1E4E4E"/>
<stop offset="1" stop-color="#1F2431"/>
</linearGradient>
</defs>
</svg>
